<svg width="65" height="75" viewBox="0 0 65 75" fill="none" xmlns="http://www.w3.org/2000/svg">
<path d="M9 8H55C56.6569 8 58 9.34315 58 11V67C58 68.6569 56.6569 70 55 70H9C7.34315 70 6 68.6569 6 67V11C6 9.34315 7.34315 8 9 8Z" fill="url(#paint0_linear)"/>
<path d="M14 7H50C51.6569 7 53 8.34315 53 10V59C53 60.6569 51.6569 62 50 62H14C12.3431 62 11 60.6569 11 59V10C11 8.34315 12.3431 7 14 7Z" fill="url(#paint1_linear)"/>
<path d="M32.1952 38.021C30.4979 38.021 29.0222 37.679 27.7682 36.995C26.5142 36.3237 25.5452 35.38 24.8612 34.164C24.1899 32.948 23.8542 31.5483 23.8542 29.965C23.8542 28.2043 24.2089 26.6843 24.9182 25.405C25.6402 24.1257 26.6345 23.1503 27.9012 22.479C29.1679 21.8077 30.6055 21.472 32.2142 21.472C33.8735 21.472 35.2985 21.7823 36.4892 22.403C37.6799 23.0237 38.5855 23.8723 39.2062 24.949C39.8269 26.013 40.1372 27.21 40.1372 28.54C40.1372 29.642 39.9662 30.592 39.6242 31.39C39.2949 32.1753 38.8325 32.777 38.2372 33.195C37.6419 33.6003 36.9642 33.803 36.2042 33.803C35.5329 33.803 34.9882 33.6573 34.5702 33.366C34.1522 33.0747 33.8925 32.6883 33.7912 32.207H33.7532C33.4112 32.701 33.0249 33.0937 32.5942 33.385C32.1762 33.6637 31.6442 33.803 30.9982 33.803C30.0609 33.803 29.3262 33.4927 28.7942 32.872C28.2749 32.2387 28.0152 31.4027 28.0152 30.364C28.0152 29.4647 28.1862 28.6477 28.5282 27.913C28.8702 27.1657 29.3389 26.5767 29.9342 26.146C30.5422 25.7153 31.2325 25.5 32.0052 25.5C32.5245 25.5 32.9805 25.6077 33.3732 25.823C33.7659 26.0383 34.0445 26.3423 34.2092 26.735H34.2662L34.4562 25.671H36.5082L35.6912 30.155C35.6279 30.535 35.5962 30.8327 35.5962 31.048C35.5962 31.4153 35.6722 31.694 35.8242 31.884C35.9762 32.074 36.2232 32.169 36.5652 32.169C36.8185 32.169 37.0719 32.0487 37.3252 31.808C37.5785 31.5673 37.7875 31.1747 37.9522 30.63C38.1295 30.0853 38.2182 29.3887 38.2182 28.54C38.2182 27.476 37.9902 26.545 37.5342 25.747C37.0782 24.949 36.4005 24.3283 35.5012 23.885C34.6019 23.4417 33.5062 23.22 32.2142 23.22C30.9982 23.22 29.9152 23.486 28.9652 24.018C28.0152 24.5373 27.2679 25.31 26.7232 26.336C26.1785 27.3493 25.9062 28.559 25.9062 29.965C25.9062 31.2317 26.1532 32.34 26.6472 33.29C27.1539 34.24 27.8759 34.9747 28.8132 35.494C29.7632 36.0133 30.8905 36.273 32.1952 36.273C33.1199 36.273 33.9115 36.159 34.5702 35.931C35.2415 35.703 35.7355 35.3927 36.0522 35H38.7122C38.2182 35.8993 37.4012 36.6277 36.2612 37.185C35.1339 37.7423 33.7785 38.021 32.1952 38.021ZM31.4542 32.169C31.9609 32.169 32.3915 32.017 32.7462 31.713C33.1135 31.3963 33.3859 30.991 33.5632 30.497C33.7532 29.9903 33.8482 29.4583 33.8482 28.901C33.8482 28.3183 33.7152 27.8813 33.4492 27.59C33.1959 27.2987 32.8349 27.153 32.3662 27.153C31.8975 27.153 31.4922 27.3113 31.1502 27.628C30.8082 27.9447 30.5485 28.35 30.3712 28.844C30.1939 29.338 30.1052 29.8447 30.1052 30.364C30.1052 30.9087 30.2255 31.3457 30.4662 31.675C30.7069 32.0043 31.0362 32.169 31.4542 32.169Z" fill="white"/>
<path d="M17.9889 49.2873C17.4918 49.2873 17.0889 48.8844 17.0889 48.3873C17.0889 47.8902 17.4918 47.4873 17.9889 47.4873H27.8876C28.3847 47.4873 28.7876 47.8902 28.7876 48.3873C28.7876 48.8844 28.3847 49.2873 27.8876 49.2873H17.9889Z" fill="#77D0AF"/>
<path d="M17.9889 54.2873C17.4918 54.2873 17.0889 53.8844 17.0889 53.3873C17.0889 52.8902 17.4918 52.4873 17.9889 52.4873H37.8876C38.3847 52.4873 38.7876 52.8902 38.7876 53.3873C38.7876 53.8844 38.3847 54.2873 37.8876 54.2873H17.9889Z" fill="#77D0AF" fill-opacity="0.45"/>
<path fill-rule="evenodd" clip-rule="evenodd" d="M39 5H25C22.7909 5 21 6.79086 21 9C21 11.2091 22.7909 13 25 13H39C41.2091 13 43 11.2091 43 9C43 6.79086 41.2091 5 39 5ZM23 9C23 7.89543 23.8954 7 25 7H39C40.1046 7 41 7.89543 41 9C41 10.1046 40.1046 11 39 11H25C23.8954 11 23 10.1046 23 9Z" fill="#49B5BF"/>
<defs>
<linearGradient id="paint0_linear" x1="34.723" y1="117.07" x2="97.3252" y2="49.0977" gradientUnits="userSpaceOnUse">
<stop stop-color="#A7EB9E"/>
<stop offset="1" stop-color="#40B0C2"/>
</linearGradient>
<linearGradient id="paint1_linear" x1="19.2132" y1="-1.84475" x2="-17.5507" y2="37.0267" gradientUnits="userSpaceOnUse">
<stop stop-color="white" stop-opacity="0.414006"/>
<stop offset="1" stop-color="white"/>
</linearGradient>
</defs>
</svg>
