<svg width="65" height="75" viewBox="0 0 65 75" fill="none" xmlns="http://www.w3.org/2000/svg">
<path d="M9 8H55C56.6569 8 58 9.34315 58 11V67C58 68.6569 56.6569 70 55 70H9C7.34315 70 6 68.6569 6 67V11C6 9.34315 7.34315 8 9 8Z" fill="url(#paint0_linear)"/>
<path d="M14 7H50C51.6569 7 53 8.34315 53 10V59C53 60.6569 51.6569 62 50 62H14C12.3431 62 11 60.6569 11 59V10C11 8.34315 12.3431 7 14 7Z" fill="url(#paint1_linear)"/>
<path d="M17.9889 49.2873C17.4918 49.2873 17.0889 48.8844 17.0889 48.3873C17.0889 47.8902 17.4918 47.4873 17.9889 47.4873H27.8876C28.3847 47.4873 28.7876 47.8902 28.7876 48.3873C28.7876 48.8844 28.3847 49.2873 27.8876 49.2873H17.9889Z" fill="#77D0AF"/>
<path d="M17.9889 54.2873C17.4918 54.2873 17.0889 53.8844 17.0889 53.3873C17.0889 52.8902 17.4918 52.4873 17.9889 52.4873H37.8876C38.3847 52.4873 38.7876 52.8902 38.7876 53.3873C38.7876 53.8844 38.3847 54.2873 37.8876 54.2873H17.9889Z" fill="#77D0AF" fill-opacity="0.45"/>
<path fill-rule="evenodd" clip-rule="evenodd" d="M39 5H25C22.7909 5 21 6.79086 21 9C21 11.2091 22.7909 13 25 13H39C41.2091 13 43 11.2091 43 9C43 6.79086 41.2091 5 39 5ZM23 9C23 7.89543 23.8954 7 25 7H39C40.1046 7 41 7.89543 41 9C41 10.1046 40.1046 11 39 11H25C23.8954 11 23 10.1046 23 9Z" fill="#49B5BF"/>
<path d="M32.1952 47.021C30.4979 47.021 29.0222 46.679 27.7682 45.995C26.5142 45.3237 25.5452 44.38 24.8612 43.164C24.1899 41.948 23.8542 40.5483 23.8542 38.965C23.8542 37.2043 24.2089 35.6843 24.9182 34.405C25.6402 33.1257 26.6345 32.1503 27.9012 31.479C29.1679 30.8077 30.6055 30.472 32.2142 30.472C33.8735 30.472 35.2985 30.7823 36.4892 31.403C37.6799 32.0237 38.5855 32.8723 39.2062 33.949C39.8269 35.013 40.1372 36.21 40.1372 37.54C40.1372 38.642 39.9662 39.592 39.6242 40.39C39.2949 41.1753 38.8325 41.777 38.2372 42.195C37.6419 42.6003 36.9642 42.803 36.2042 42.803C35.5329 42.803 34.9882 42.6573 34.5702 42.366C34.1522 42.0747 33.8925 41.6883 33.7912 41.207H33.7532C33.4112 41.701 33.0249 42.0937 32.5942 42.385C32.1762 42.6637 31.6442 42.803 30.9982 42.803C30.0609 42.803 29.3262 42.4927 28.7942 41.872C28.2749 41.2387 28.0152 40.4027 28.0152 39.364C28.0152 38.4647 28.1862 37.6477 28.5282 36.913C28.8702 36.1657 29.3389 35.5767 29.9342 35.146C30.5422 34.7153 31.2325 34.5 32.0052 34.5C32.5245 34.5 32.9805 34.6077 33.3732 34.823C33.7659 35.0383 34.0445 35.3423 34.2092 35.735H34.2662L34.4562 34.671H36.5082L35.6912 39.155C35.6279 39.535 35.5962 39.8327 35.5962 40.048C35.5962 40.4153 35.6722 40.694 35.8242 40.884C35.9762 41.074 36.2232 41.169 36.5652 41.169C36.8185 41.169 37.0719 41.0487 37.3252 40.808C37.5785 40.5673 37.7875 40.1747 37.9522 39.63C38.1295 39.0853 38.2182 38.3887 38.2182 37.54C38.2182 36.476 37.9902 35.545 37.5342 34.747C37.0782 33.949 36.4005 33.3283 35.5012 32.885C34.6019 32.4417 33.5062 32.22 32.2142 32.22C30.9982 32.22 29.9152 32.486 28.9652 33.018C28.0152 33.5373 27.2679 34.31 26.7232 35.336C26.1785 36.3493 25.9062 37.559 25.9062 38.965C25.9062 40.2317 26.1532 41.34 26.6472 42.29C27.1539 43.24 27.8759 43.9747 28.8132 44.494C29.7632 45.0133 30.8905 45.273 32.1952 45.273C33.1199 45.273 33.9115 45.159 34.5702 44.931C35.2415 44.703 35.7355 44.3927 36.0522 44H38.7122C38.2182 44.8993 37.4012 45.6277 36.2612 46.185C35.1339 46.7423 33.7785 47.021 32.1952 47.021ZM31.4542 41.169C31.9609 41.169 32.3915 41.017 32.7462 40.713C33.1135 40.3963 33.3859 39.991 33.5632 39.497C33.7532 38.9903 33.8482 38.4583 33.8482 37.901C33.8482 37.3183 33.7152 36.8813 33.4492 36.59C33.1959 36.2987 32.8349 36.153 32.3662 36.153C31.8975 36.153 31.4922 36.3113 31.1502 36.628C30.8082 36.9447 30.5485 37.35 30.3712 37.844C30.1939 38.338 30.1052 38.8447 30.1052 39.364C30.1052 39.9087 30.2255 40.3457 30.4662 40.675C30.7069 41.0043 31.0362 41.169 31.4542 41.169Z" fill="white"/>
<path fill-rule="evenodd" clip-rule="evenodd" d="M57 40C57 53.2548 46.2548 64 33 64C19.7452 64 9 53.2548 9 40C9 26.7452 19.7452 16 33 16C46.2548 16 57 26.7452 57 40ZM42.5065 24.8052L18.4286 50.4416C7.44156 35.0909 24.8961 14.4416 42.5065 24.8052ZM47.4156 29.3247L23.5714 55.1948C39.9351 65.2468 58.948 46.2338 47.4156 29.3247Z" fill="#FF0000" fill-opacity="0.66"/>
<defs>
<linearGradient id="paint0_linear" x1="34.723" y1="117.07" x2="97.3252" y2="49.0977" gradientUnits="userSpaceOnUse">
<stop stop-color="#A7EB9E"/>
<stop offset="1" stop-color="#40B0C2"/>
</linearGradient>
<linearGradient id="paint1_linear" x1="19.2132" y1="-1.84475" x2="-17.5507" y2="37.0267" gradientUnits="userSpaceOnUse">
<stop stop-color="white" stop-opacity="0.414006"/>
<stop offset="1" stop-color="white"/>
</linearGradient>
</defs>
</svg>
