<svg width="163" height="108" viewBox="0 0 163 108" fill="none" xmlns="http://www.w3.org/2000/svg">
<path d="M6.35538 0L156.645 0C160.155 0 163 2.84297 163 6.34995V101.65C163 105.157 160.155 108 156.645 108H6.35538C2.8454 108 0 105.157 0 101.65V6.34995C0 2.84297 2.8454 0 6.35538 0Z" fill="url(#paint0_linear)"/>
<path opacity="0.2" d="M6.35538 0L156.645 0C160.155 0 163 2.88115 163 6.43523V18H0L0 6.43523C0 2.88115 2.8454 0 6.35538 0Z" fill="white"/>
<path d="M12 11C13.1046 11 14 10.1046 14 9C14 7.89543 13.1046 7 12 7C10.8954 7 10 7.89543 10 9C10 10.1046 10.8954 11 12 11Z" fill="#99FF87"/>
<path d="M20 11C21.1046 11 22 10.1046 22 9C22 7.89543 21.1046 7 20 7C18.8954 7 18 7.89543 18 9C18 10.1046 18.8954 11 20 11Z" fill="#3598E9"/>
<path d="M28 11C29.1046 11 30 10.1046 30 9C30 7.89543 29.1046 7 28 7C26.8954 7 26 7.89543 26 9C26 10.1046 26.8954 11 28 11Z" fill="#3598E9"/>
<path d="M59.6189 72.75V79H36.6189V72.75H44.2189V52.4L38.2189 55.9L35.2689 50.3L46.4689 43.75H52.0189V72.75H59.6189ZM71.9043 62.65H87.3543V68.55H71.9043V62.65ZM115.131 56.2C117.297 56.2 119.231 56.6833 120.931 57.65C122.631 58.5833 123.947 59.9 124.881 61.6C125.814 63.3 126.281 65.2667 126.281 67.5C126.281 69.8667 125.714 71.95 124.581 73.75C123.481 75.55 121.897 76.95 119.831 77.95C117.797 78.9167 115.414 79.4 112.681 79.4C110.447 79.4 108.231 79.05 106.031 78.35C103.831 77.6167 102.047 76.65 100.681 75.45L103.131 69.9C106.364 72.1667 109.581 73.3 112.781 73.3C114.814 73.3 116.347 72.8333 117.381 71.9C118.447 70.9667 118.981 69.5833 118.981 67.75C118.981 66.0167 118.431 64.65 117.331 63.65C116.264 62.65 114.797 62.15 112.931 62.15C111.764 62.15 110.597 62.3667 109.431 62.8C108.297 63.2333 107.264 63.8333 106.331 64.6H101.881V43.75H124.581V49.7H109.481V57.55C111.081 56.65 112.964 56.2 115.131 56.2Z" fill="#373A5B" fill-opacity="0.59"/>
<path d="M59.6189 71.75V78H36.6189V71.75H44.2189V51.4L38.2189 54.9L35.2689 49.3L46.4689 42.75H52.0189V71.75H59.6189ZM71.9043 61.65H87.3543V67.55H71.9043V61.65ZM115.131 55.2C117.297 55.2 119.231 55.6833 120.931 56.65C122.631 57.5833 123.947 58.9 124.881 60.6C125.814 62.3 126.281 64.2667 126.281 66.5C126.281 68.8667 125.714 70.95 124.581 72.75C123.481 74.55 121.897 75.95 119.831 76.95C117.797 77.9167 115.414 78.4 112.681 78.4C110.447 78.4 108.231 78.05 106.031 77.35C103.831 76.6167 102.047 75.65 100.681 74.45L103.131 68.9C106.364 71.1667 109.581 72.3 112.781 72.3C114.814 72.3 116.347 71.8333 117.381 70.9C118.447 69.9667 118.981 68.5833 118.981 66.75C118.981 65.0167 118.431 63.65 117.331 62.65C116.264 61.65 114.797 61.15 112.931 61.15C111.764 61.15 110.597 61.3667 109.431 61.8C108.297 62.2333 107.264 62.8333 106.331 63.6H101.881V42.75H124.581V48.7H109.481V56.55C111.081 55.65 112.964 55.2 115.131 55.2Z" fill="white"/>
<defs>
<linearGradient id="paint0_linear" x1="145.71" y1="135.151" x2="186.282" y2="13.3644" gradientUnits="userSpaceOnUse">
<stop stop-color="#A8EB9D"/>
<stop offset="1" stop-color="#3FAFC3"/>
</linearGradient>
</defs>
</svg>
