<svg width="163" height="108" viewBox="0 0 163 108" fill="none" xmlns="http://www.w3.org/2000/svg">
<path d="M6.35538 0L156.645 0C160.155 0 163 2.84297 163 6.34995V101.65C163 105.157 160.155 108 156.645 108H6.35538C2.8454 108 0 105.157 0 101.65V6.34995C0 2.84297 2.8454 0 6.35538 0Z" fill="url(#paint0_linear)"/>
<path d="M6.35538 0L156.645 0C160.155 0 163 2.84297 163 6.34995V101.65C163 105.157 160.155 108 156.645 108H6.35538C2.8454 108 0 105.157 0 101.65V6.34995C0 2.84297 2.8454 0 6.35538 0Z" fill="url(#paint1_linear)"/>
<path opacity="0.2" d="M6.35538 0L156.645 0C160.155 0 163 2.88115 163 6.43523V18H0L0 6.43523C0 2.88115 2.8454 0 6.35538 0Z" fill="white"/>
<path d="M12 11C13.1046 11 14 10.1046 14 9C14 7.89543 13.1046 7 12 7C10.8954 7 10 7.89543 10 9C10 10.1046 10.8954 11 12 11Z" fill="#99FF87"/>
<path d="M20 11C21.1046 11 22 10.1046 22 9C22 7.89543 21.1046 7 20 7C18.8954 7 18 7.89543 18 9C18 10.1046 18.8954 11 20 11Z" fill="#3598E9"/>
<path d="M28 11C29.1046 11 30 10.1046 30 9C30 7.89543 29.1046 7 28 7C26.8954 7 26 7.89543 26 9C26 10.1046 26.8954 11 28 11Z" fill="#3598E9"/>
<path d="M70.2165 55.92C72.5998 55.92 74.7265 56.4517 76.5965 57.515C78.4665 58.5417 79.9148 59.99 80.9415 61.86C81.9682 63.73 82.4815 65.8933 82.4815 68.35C82.4815 70.9533 81.8582 73.245 80.6115 75.225C79.4015 77.205 77.6598 78.745 75.3865 79.845C73.1498 80.9083 70.5282 81.44 67.5215 81.44C65.0648 81.44 62.6265 81.055 60.2065 80.285C57.7865 79.4783 55.8248 78.415 54.3215 77.095L57.0165 70.99C60.5732 73.4833 64.1115 74.73 67.6315 74.73C69.8682 74.73 71.5548 74.2167 72.6915 73.19C73.8648 72.1633 74.4515 70.6417 74.4515 68.625C74.4515 66.7183 73.8465 65.215 72.6365 64.115C71.4632 63.015 69.8498 62.465 67.7965 62.465C66.5132 62.465 65.2298 62.7033 63.9465 63.18C62.6998 63.6567 61.5632 64.3167 60.5365 65.16H55.6415V42.225H80.6115V48.77H64.0015V57.405C65.7615 56.415 67.8332 55.92 70.2165 55.92ZM110.92 68.075H100.36V78.635H94.64V68.075H84.08V62.41H94.64V51.795H100.36V62.41H110.92V68.075Z" fill="#373A5B" fill-opacity="0.59"/>
<path d="M70.2165 54.92C72.5998 54.92 74.7265 55.4517 76.5965 56.515C78.4665 57.5417 79.9148 58.99 80.9415 60.86C81.9682 62.73 82.4815 64.8933 82.4815 67.35C82.4815 69.9533 81.8582 72.245 80.6115 74.225C79.4015 76.205 77.6598 77.745 75.3865 78.845C73.1498 79.9083 70.5282 80.44 67.5215 80.44C65.0648 80.44 62.6265 80.055 60.2065 79.285C57.7865 78.4783 55.8248 77.415 54.3215 76.095L57.0165 69.99C60.5732 72.4833 64.1115 73.73 67.6315 73.73C69.8682 73.73 71.5548 73.2167 72.6915 72.19C73.8648 71.1633 74.4515 69.6417 74.4515 67.625C74.4515 65.7183 73.8465 64.215 72.6365 63.115C71.4632 62.015 69.8498 61.465 67.7965 61.465C66.5132 61.465 65.2298 61.7033 63.9465 62.18C62.6998 62.6567 61.5632 63.3167 60.5365 64.16H55.6415V41.225H80.6115V47.77H64.0015V56.405C65.7615 55.415 67.8332 54.92 70.2165 54.92ZM110.92 67.075H100.36V77.635H94.64V67.075H84.08V61.41H94.64V50.795H100.36V61.41H110.92V67.075Z" fill="white"/>
<defs>
<linearGradient id="paint0_linear" x1="145.71" y1="135.151" x2="186.282" y2="13.3644" gradientUnits="userSpaceOnUse">
<stop stop-color="#37CEDB"/>
<stop offset="1" stop-color="#3488ED"/>
</linearGradient>
<linearGradient id="paint1_linear" x1="145.71" y1="135.151" x2="186.282" y2="13.3644" gradientUnits="userSpaceOnUse">
<stop stop-color="#A8EB9D"/>
<stop offset="1" stop-color="#3FAFC3"/>
</linearGradient>
</defs>
</svg>
