<svg width="163" height="108" viewBox="0 0 163 108" fill="none" xmlns="http://www.w3.org/2000/svg">
<path d="M6.35538 0L156.645 0C160.155 0 163 2.84297 163 6.34995V101.65C163 105.157 160.155 108 156.645 108H6.35538C2.8454 108 0 105.157 0 101.65V6.34995C0 2.84297 2.8454 0 6.35538 0Z" fill="url(#paint0_linear)"/>
<path d="M6.35538 0L156.645 0C160.155 0 163 2.84297 163 6.34995V101.65C163 105.157 160.155 108 156.645 108H6.35538C2.8454 108 0 105.157 0 101.65V6.34995C0 2.84297 2.8454 0 6.35538 0Z" fill="url(#paint1_linear)"/>
<path opacity="0.2" d="M6.35538 0L156.645 0C160.155 0 163 2.88115 163 6.43523V18H0L0 6.43523C0 2.88115 2.8454 0 6.35538 0Z" fill="white"/>
<path d="M12 11C13.1046 11 14 10.1046 14 9C14 7.89543 13.1046 7 12 7C10.8954 7 10 7.89543 10 9C10 10.1046 10.8954 11 12 11Z" fill="#99FF87"/>
<path d="M20 11C21.1046 11 22 10.1046 22 9C22 7.89543 21.1046 7 20 7C18.8954 7 18 7.89543 18 9C18 10.1046 18.8954 11 20 11Z" fill="#3598E9"/>
<path d="M28 11C29.1046 11 30 10.1046 30 9C30 7.89543 29.1046 7 28 7C26.8954 7 26 7.89543 26 9C26 10.1046 26.8954 11 28 11Z" fill="#3598E9"/>
<path d="M77.0707 65.35C77.0707 63.6167 77.3873 62.1833 78.0207 61.05C78.654 59.8833 79.5373 58.65 80.6707 57.35C81.5373 56.35 82.1707 55.5 82.5707 54.8C83.004 54.1 83.2207 53.3333 83.2207 52.5C83.2207 51.5 82.8873 50.7333 82.2207 50.2C81.554 49.6667 80.604 49.4 79.3707 49.4C78.0373 49.4 76.5873 49.7 75.0207 50.3C73.454 50.9 71.9207 51.7333 70.4207 52.8L67.9207 47.25C69.2873 46.05 71.0707 45.1 73.2707 44.4C75.504 43.6667 77.7373 43.3 79.9707 43.3C82.104 43.3 83.9873 43.6667 85.6207 44.4C87.2873 45.1 88.5707 46.1 89.4707 47.4C90.404 48.6667 90.8707 50.1167 90.8707 51.75C90.8707 52.9833 90.6373 54.1167 90.1707 55.15C89.704 56.15 89.1373 57.0333 88.4707 57.8C87.8373 58.5333 86.954 59.4333 85.8207 60.5C84.554 61.7 83.604 62.7167 82.9707 63.55C82.3373 64.35 81.9373 65.2333 81.7707 66.2L81.4707 67.85H77.0707V65.35ZM75.3707 71H83.4207V79H75.3707V71Z" fill="#373A5B" fill-opacity="0.59"/>
<path d="M77.0707 64.35C77.0707 62.6167 77.3873 61.1833 78.0207 60.05C78.654 58.8833 79.5373 57.65 80.6707 56.35C81.5373 55.35 82.1707 54.5 82.5707 53.8C83.004 53.1 83.2207 52.3333 83.2207 51.5C83.2207 50.5 82.8873 49.7333 82.2207 49.2C81.554 48.6667 80.604 48.4 79.3707 48.4C78.0373 48.4 76.5873 48.7 75.0207 49.3C73.454 49.9 71.9207 50.7333 70.4207 51.8L67.9207 46.25C69.2873 45.05 71.0707 44.1 73.2707 43.4C75.504 42.6667 77.7373 42.3 79.9707 42.3C82.104 42.3 83.9873 42.6667 85.6207 43.4C87.2873 44.1 88.5707 45.1 89.4707 46.4C90.404 47.6667 90.8707 49.1167 90.8707 50.75C90.8707 51.9833 90.6373 53.1167 90.1707 54.15C89.704 55.15 89.1373 56.0333 88.4707 56.8C87.8373 57.5333 86.954 58.4333 85.8207 59.5C84.554 60.7 83.604 61.7167 82.9707 62.55C82.3373 63.35 81.9373 64.2333 81.7707 65.2L81.4707 66.85H77.0707V64.35ZM75.3707 70H83.4207V78H75.3707V70Z" fill="white"/>
<defs>
<linearGradient id="paint0_linear" x1="145.71" y1="135.151" x2="186.282" y2="13.3644" gradientUnits="userSpaceOnUse">
<stop stop-color="#37CEDB"/>
<stop offset="1" stop-color="#3488ED"/>
</linearGradient>
<linearGradient id="paint1_linear" x1="145.71" y1="135.151" x2="186.282" y2="13.3644" gradientUnits="userSpaceOnUse">
<stop stop-color="#A8EB9D"/>
<stop offset="1" stop-color="#3FAFC3"/>
</linearGradient>
</defs>
</svg>
