<svg width="164" height="81" viewBox="0 0 164 81" fill="none" xmlns="http://www.w3.org/2000/svg">
<path d="M36.2066 68.6313H64.4066L68.8593 80.9998H31.7539L36.2066 68.6313Z" fill="url(#paint0_linear)"/>
<path d="M5.30077 1.44629H95.3126C98.2401 1.44629 100.613 3.81952 100.613 6.74706V63.3311C100.613 66.2586 98.2401 68.6318 95.3126 68.6318H5.30077C2.37324 68.6318 0 66.2586 0 63.3311V6.74706C0 3.81952 2.37324 1.44629 5.30077 1.44629Z" fill="url(#paint1_linear)"/>
<path opacity="0.1" d="M58.3532 16.0894H88.3909C90.3426 16.0894 91.9247 17.6715 91.9247 19.6232V54.9617C91.9247 56.9134 90.3426 58.4955 88.3909 58.4955H58.3532C56.4015 58.4955 54.8193 56.9134 54.8193 54.9617V19.6232C54.8193 17.6715 56.4015 16.0894 58.3532 16.0894Z" fill="#373A5B"/>
<path d="M58.3546 12.5552H88.3923C90.344 12.5552 91.9262 14.1373 91.9262 16.089V51.4275C91.9262 53.3792 90.344 54.9613 88.3923 54.9613H58.3546C56.403 54.9613 54.8208 53.3792 54.8208 51.4275V16.089C54.8208 14.1373 56.403 12.5552 58.3546 12.5552Z" fill="white"/>
<path fill-rule="evenodd" clip-rule="evenodd" d="M66.481 29.0512C66.481 32.857 69.5662 35.9422 73.372 35.9422C77.1778 35.9422 80.263 32.857 80.263 29.0512C80.263 25.2454 77.1778 22.1602 73.372 22.1602C69.5662 22.1602 66.481 25.2454 66.481 29.0512ZM77.082 29.0508C77.082 31.1001 75.4207 32.7613 73.3714 32.7613C71.3221 32.7613 69.6609 31.1001 69.6609 29.0508C69.6609 27.0015 71.3221 25.3403 73.3714 25.3403C75.4207 25.3403 77.082 27.0015 77.082 29.0508Z" fill="#91DEA6" fill-opacity="0.53"/>
<path d="M68.2274 45.6292C67.3492 45.6292 66.6372 44.9172 66.6372 44.039C66.6372 43.1607 67.3492 42.4487 68.2274 42.4487H78.5159C79.3941 42.4487 80.1061 43.1607 80.1061 44.039C80.1061 44.9172 79.3941 45.6292 78.5159 45.6292H68.2274Z" fill="#B6E7CC" fill-opacity="0.26"/>
<g opacity="0.4">
<path opacity="0.1" d="M12.4147 16.0894H42.4524C44.4041 16.0894 45.9862 17.6715 45.9862 19.6232V54.9617C45.9862 56.9134 44.4041 58.4955 42.4524 58.4955H12.4147C10.463 58.4955 8.88086 56.9134 8.88086 54.9617V19.6232C8.88086 17.6715 10.463 16.0894 12.4147 16.0894Z" fill="#373A5B"/>
<path d="M12.4157 12.5552H42.4534C44.4051 12.5552 45.9872 14.1373 45.9872 16.089V51.4275C45.9872 53.3792 44.4051 54.9613 42.4534 54.9613H12.4157C10.464 54.9613 8.88184 53.3792 8.88184 51.4275V16.089C8.88184 14.1373 10.464 12.5552 12.4157 12.5552Z" fill="white"/>
<path fill-rule="evenodd" clip-rule="evenodd" d="M21 28.891C21 32.6968 24.0852 35.782 27.891 35.782C31.6968 35.782 34.782 32.6968 34.782 28.891C34.782 25.0852 31.6968 22 27.891 22C24.0852 22 21 25.0852 21 28.891ZM31.601 28.8906C31.601 30.9399 29.9397 32.6012 27.8905 32.6012C25.8412 32.6012 24.1799 30.9399 24.1799 28.8906C24.1799 26.8414 25.8412 25.1801 27.8905 25.1801C29.9397 25.1801 31.601 26.8414 31.601 28.8906Z" fill="#91DEA6" fill-opacity="0.53"/>
<path d="M22.289 45.6292C21.4107 45.6292 20.6987 44.9172 20.6987 44.039C20.6987 43.1607 21.4107 42.4487 22.289 42.4487H32.5774C33.4557 42.4487 34.1676 43.1607 34.1676 44.039C34.1676 44.9172 33.4557 45.6292 32.5774 45.6292H22.289Z" fill="#D9EFF3"/>
</g>
<path d="M37.511 49.6819L45.453 56.3633L41.041 60.7753L34.3596 52.8334L31.7652 59.2095L26.7229 41.6882L44.2441 46.7305L37.511 49.6819Z" fill="white"/>
<path d="M130.836 0H151.218C157.972 0 163.447 5.47508 163.447 12.2289V68.435C163.447 75.1889 157.972 80.664 151.218 80.664H130.836C124.083 80.664 118.607 75.1889 118.607 68.435V12.2289C118.607 5.47508 124.083 0 130.836 0Z" fill="url(#paint2_linear)"/>
<path opacity="0.5" d="M126.211 5.76172H155.843C158.57 5.76172 160.781 7.97281 160.781 10.7003V69.9637C160.781 72.6912 158.57 74.9023 155.843 74.9023H126.211C123.484 74.9023 121.272 72.6912 121.272 69.9637V10.7003C121.272 7.97281 123.484 5.76172 126.211 5.76172Z" fill="url(#paint3_linear)"/>
<path opacity="0.1" d="M129.427 24.7993H153.115C154.654 24.7993 155.902 26.047 155.902 27.5861V55.4536C155.902 56.9927 154.654 58.2404 153.115 58.2404H129.427C127.888 58.2404 126.641 56.9927 126.641 55.4536V27.5861C126.641 26.047 127.888 24.7993 129.427 24.7993Z" fill="#373A5B"/>
<path d="M129.429 22.0122H153.116C154.655 22.0122 155.903 23.2599 155.903 24.799V52.6665C155.903 54.2056 154.655 55.4533 153.116 55.4533H129.429C127.89 55.4533 126.642 54.2056 126.642 52.6665V24.799C126.642 23.2599 127.89 22.0122 129.429 22.0122Z" fill="white"/>
<path fill-rule="evenodd" clip-rule="evenodd" d="M135.837 35.0211C135.837 38.0223 138.27 40.4553 141.272 40.4553C144.273 40.4553 146.706 38.0223 146.706 35.0211C146.706 32.0199 144.273 29.5869 141.272 29.5869C138.27 29.5869 135.837 32.0199 135.837 35.0211ZM144.197 35.0212C144.197 36.6372 142.887 37.9472 141.271 37.9472C139.655 37.9472 138.345 36.6372 138.345 35.0212C138.345 33.4051 139.655 32.0951 141.271 32.0951C142.887 32.0951 144.197 33.4051 144.197 35.0212Z" fill="#C5EED0"/>
<path d="M137.214 48.0945C136.521 48.0945 135.96 47.5331 135.96 46.8405C135.96 46.1479 136.521 45.5864 137.214 45.5864H145.327C146.02 45.5864 146.581 46.1479 146.581 46.8405C146.581 47.5331 146.02 48.0945 145.327 48.0945H137.214Z" fill="#ECF9F2"/>
<defs>
<linearGradient id="paint0_linear" x1="52.7091" y1="84.8123" x2="53.0332" y2="68.7576" gradientUnits="userSpaceOnUse">
<stop stop-color="#A8EB9D"/>
<stop offset="1" stop-color="#4AB5BF"/>
</linearGradient>
<linearGradient id="paint1_linear" x1="55.5753" y1="119.639" x2="111.039" y2="12.1114" gradientUnits="userSpaceOnUse">
<stop stop-color="#A8EB9D"/>
<stop offset="1" stop-color="#3FAFC3"/>
</linearGradient>
<linearGradient id="paint2_linear" x1="126.595" y1="-24.6635" x2="71.4318" y2="25.4809" gradientUnits="userSpaceOnUse">
<stop stop-color="#A8EB9D"/>
<stop offset="1" stop-color="#3EAEC4"/>
</linearGradient>
<linearGradient id="paint3_linear" x1="160.781" y1="74.9023" x2="160.781" y2="5.76172" gradientUnits="userSpaceOnUse">
<stop stop-color="#FFD9E2"/>
<stop offset="1" stop-color="white"/>
</linearGradient>
</defs>
</svg>
