<svg width="164" height="93" viewBox="0 0 164 93" fill="none" xmlns="http://www.w3.org/2000/svg">
<path d="M36.2066 74.6313H64.4066L68.8593 86.9998H31.7539L36.2066 74.6313Z" fill="url(#paint0_linear)"/>
<path d="M5.30077 7.44629H95.3126C98.2401 7.44629 100.613 9.81952 100.613 12.7471V69.3311C100.613 72.2586 98.2401 74.6318 95.3126 74.6318H5.30077C2.37324 74.6318 0 72.2586 0 69.3311V12.7471C0 9.81952 2.37324 7.44629 5.30077 7.44629Z" fill="url(#paint1_linear)"/>
<path opacity="0.1" d="M58.3532 22.0894H88.3909C90.3426 22.0894 91.9247 23.6715 91.9247 25.6232V60.9617C91.9247 62.9134 90.3426 64.4955 88.3909 64.4955H58.3532C56.4015 64.4955 54.8193 62.9134 54.8193 60.9617V25.6232C54.8193 23.6715 56.4015 22.0894 58.3532 22.0894Z" fill="#373A5B"/>
<path d="M58.3546 18.5552H88.3923C90.344 18.5552 91.9262 20.1373 91.9262 22.089V57.4275C91.9262 59.3792 90.344 60.9613 88.3923 60.9613H58.3546C56.403 60.9613 54.8208 59.3792 54.8208 57.4275V22.089C54.8208 20.1373 56.403 18.5552 58.3546 18.5552Z" fill="white"/>
<path fill-rule="evenodd" clip-rule="evenodd" d="M66.481 35.0512C66.481 38.857 69.5662 41.9422 73.372 41.9422C77.1778 41.9422 80.263 38.857 80.263 35.0512C80.263 31.2454 77.1778 28.1602 73.372 28.1602C69.5662 28.1602 66.481 31.2454 66.481 35.0512ZM77.082 35.0508C77.082 37.1001 75.4207 38.7613 73.3714 38.7613C71.3221 38.7613 69.6609 37.1001 69.6609 35.0508C69.6609 33.0015 71.3221 31.3403 73.3714 31.3403C75.4207 31.3403 77.082 33.0015 77.082 35.0508Z" fill="#91DEA6" fill-opacity="0.53"/>
<path d="M68.2274 51.6292C67.3492 51.6292 66.6372 50.9172 66.6372 50.039C66.6372 49.1607 67.3492 48.4487 68.2274 48.4487H78.5159C79.3941 48.4487 80.1061 49.1607 80.1061 50.039C80.1061 50.9172 79.3941 51.6292 78.5159 51.6292H68.2274Z" fill="#B6E7CC" fill-opacity="0.26"/>
<g opacity="0.4">
<path opacity="0.1" d="M12.4147 22.0894H42.4524C44.4041 22.0894 45.9862 23.6715 45.9862 25.6232V60.9617C45.9862 62.9134 44.4041 64.4955 42.4524 64.4955H12.4147C10.463 64.4955 8.88086 62.9134 8.88086 60.9617V25.6232C8.88086 23.6715 10.463 22.0894 12.4147 22.0894Z" fill="#373A5B"/>
<path d="M12.4157 18.5552H42.4534C44.4051 18.5552 45.9872 20.1373 45.9872 22.089V57.4275C45.9872 59.3792 44.4051 60.9613 42.4534 60.9613H12.4157C10.464 60.9613 8.88184 59.3792 8.88184 57.4275V22.089C8.88184 20.1373 10.464 18.5552 12.4157 18.5552Z" fill="white"/>
<path fill-rule="evenodd" clip-rule="evenodd" d="M21 34.891C21 38.6968 24.0852 41.782 27.891 41.782C31.6968 41.782 34.782 38.6968 34.782 34.891C34.782 31.0852 31.6968 28 27.891 28C24.0852 28 21 31.0852 21 34.891ZM31.601 34.8906C31.601 36.9399 29.9397 38.6012 27.8905 38.6012C25.8412 38.6012 24.1799 36.9399 24.1799 34.8906C24.1799 32.8414 25.8412 31.1801 27.8905 31.1801C29.9397 31.1801 31.601 32.8414 31.601 34.8906Z" fill="#91DEA6" fill-opacity="0.53"/>
<path d="M22.289 51.6292C21.4107 51.6292 20.6987 50.9172 20.6987 50.039C20.6987 49.1607 21.4107 48.4487 22.289 48.4487H32.5774C33.4557 48.4487 34.1676 49.1607 34.1676 50.039C34.1676 50.9172 33.4557 51.6292 32.5774 51.6292H22.289Z" fill="#D9EFF3"/>
</g>
<path d="M37.511 55.6819L45.453 62.3633L41.041 66.7753L34.3596 58.8334L31.7652 65.2095L26.7229 47.6882L44.2441 52.7305L37.511 55.6819Z" fill="white"/>
<path d="M130.836 6H151.218C157.972 6 163.447 11.4751 163.447 18.2289V74.435C163.447 81.1889 157.972 86.664 151.218 86.664H130.836C124.083 86.664 118.607 81.1889 118.607 74.435V18.2289C118.607 11.4751 124.083 6 130.836 6Z" fill="url(#paint2_linear)"/>
<path opacity="0.5" d="M126.211 11.7617H155.843C158.57 11.7617 160.781 13.9728 160.781 16.7003V75.9637C160.781 78.6912 158.57 80.9023 155.843 80.9023H126.211C123.484 80.9023 121.272 78.6912 121.272 75.9637V16.7003C121.272 13.9728 123.484 11.7617 126.211 11.7617Z" fill="url(#paint3_linear)"/>
<path opacity="0.1" d="M129.427 30.7993H153.115C154.654 30.7993 155.902 32.047 155.902 33.5861V61.4536C155.902 62.9927 154.654 64.2404 153.115 64.2404H129.427C127.888 64.2404 126.641 62.9927 126.641 61.4536V33.5861C126.641 32.047 127.888 30.7993 129.427 30.7993Z" fill="#373A5B"/>
<path d="M129.429 28.0122H153.116C154.655 28.0122 155.903 29.2599 155.903 30.799V58.6665C155.903 60.2056 154.655 61.4533 153.116 61.4533H129.429C127.89 61.4533 126.642 60.2056 126.642 58.6665V30.799C126.642 29.2599 127.89 28.0122 129.429 28.0122Z" fill="white"/>
<path fill-rule="evenodd" clip-rule="evenodd" d="M135.837 41.0211C135.837 44.0223 138.27 46.4553 141.272 46.4553C144.273 46.4553 146.706 44.0223 146.706 41.0211C146.706 38.0199 144.273 35.5869 141.272 35.5869C138.27 35.5869 135.837 38.0199 135.837 41.0211ZM144.197 41.0212C144.197 42.6372 142.887 43.9472 141.271 43.9472C139.655 43.9472 138.345 42.6372 138.345 41.0212C138.345 39.4051 139.655 38.0951 141.271 38.0951C142.887 38.0951 144.197 39.4051 144.197 41.0212Z" fill="#C5EED0"/>
<path d="M137.214 54.0945C136.521 54.0945 135.96 53.5331 135.96 52.8405C135.96 52.1479 136.521 51.5864 137.214 51.5864H145.327C146.02 51.5864 146.581 52.1479 146.581 52.8405C146.581 53.5331 146.02 54.0945 145.327 54.0945H137.214Z" fill="#ECF9F2"/>
<path fill-rule="evenodd" clip-rule="evenodd" d="M128 46.5C128 72.1812 107.181 93 81.5 93C55.8188 93 35 72.1812 35 46.5C35 20.8188 55.8188 0 81.5 0C107.181 0 128 20.8188 128 46.5ZM99.9188 17.0601L53.2679 66.7305C31.9805 36.9886 65.7987 -3.01948 99.9188 17.0601ZM109.43 25.8166L63.2321 75.9399C94.9367 95.4156 131.774 58.5779 109.43 25.8166Z" fill="#FF0000" fill-opacity="0.51"/>
<defs>
<linearGradient id="paint0_linear" x1="52.7091" y1="90.8123" x2="53.0332" y2="74.7576" gradientUnits="userSpaceOnUse">
<stop stop-color="#A8EB9D"/>
<stop offset="1" stop-color="#4AB5BF"/>
</linearGradient>
<linearGradient id="paint1_linear" x1="55.5753" y1="125.639" x2="111.039" y2="18.1114" gradientUnits="userSpaceOnUse">
<stop stop-color="#A8EB9D"/>
<stop offset="1" stop-color="#3FAFC3"/>
</linearGradient>
<linearGradient id="paint2_linear" x1="126.595" y1="-18.6635" x2="71.4318" y2="31.4809" gradientUnits="userSpaceOnUse">
<stop stop-color="#A8EB9D"/>
<stop offset="1" stop-color="#3EAEC4"/>
</linearGradient>
<linearGradient id="paint3_linear" x1="160.781" y1="80.9023" x2="160.781" y2="11.7617" gradientUnits="userSpaceOnUse">
<stop stop-color="#FFD9E2"/>
<stop offset="1" stop-color="white"/>
</linearGradient>
</defs>
</svg>
