<svg width="165" height="83" viewBox="0 0 165 83" fill="none" xmlns="http://www.w3.org/2000/svg">
<path d="M37.2066 69.6313H65.4066L69.8593 81.9998H32.7539L37.2066 69.6313Z" fill="url(#paint0_linear)"/>
<path d="M6.30077 2.44629H96.3126C99.2401 2.44629 101.613 4.81952 101.613 7.74706V64.3311C101.613 67.2586 99.2401 69.6318 96.3126 69.6318H6.30077C3.37324 69.6318 1 67.2586 1 64.3311V7.74706C1 4.81952 3.37324 2.44629 6.30077 2.44629Z" fill="url(#paint1_linear)"/>
<path opacity="0.1" d="M59.3532 17.0894H89.3909C91.3426 17.0894 92.9247 18.6715 92.9247 20.6232V55.9617C92.9247 57.9134 91.3426 59.4955 89.3909 59.4955H59.3532C57.4015 59.4955 55.8193 57.9134 55.8193 55.9617V20.6232C55.8193 18.6715 57.4015 17.0894 59.3532 17.0894Z" fill="#373A5B"/>
<path d="M59.3546 13.5552H89.3923C91.344 13.5552 92.9262 15.1373 92.9262 17.089V52.4275C92.9262 54.3792 91.344 55.9613 89.3923 55.9613H59.3546C57.403 55.9613 55.8208 54.3792 55.8208 52.4275V17.089C55.8208 15.1373 57.403 13.5552 59.3546 13.5552Z" fill="white"/>
<path fill-rule="evenodd" clip-rule="evenodd" d="M67.481 30.0512C67.481 33.857 70.5662 36.9422 74.372 36.9422C78.1778 36.9422 81.263 33.857 81.263 30.0512C81.263 26.2454 78.1778 23.1602 74.372 23.1602C70.5662 23.1602 67.481 26.2454 67.481 30.0512ZM78.082 30.0508C78.082 32.1001 76.4207 33.7613 74.3714 33.7613C72.3221 33.7613 70.6609 32.1001 70.6609 30.0508C70.6609 28.0015 72.3221 26.3403 74.3714 26.3403C76.4207 26.3403 78.082 28.0015 78.082 30.0508Z" fill="#91DEA6" fill-opacity="0.53"/>
<path d="M69.2274 46.6292C68.3492 46.6292 67.6372 45.9172 67.6372 45.039C67.6372 44.1607 68.3492 43.4487 69.2274 43.4487H79.5159C80.3941 43.4487 81.1061 44.1607 81.1061 45.039C81.1061 45.9172 80.3941 46.6292 79.5159 46.6292H69.2274Z" fill="#B6E7CC" fill-opacity="0.26"/>
<g opacity="0.4">
<path opacity="0.1" d="M13.4147 17.0894H43.4524C45.4041 17.0894 46.9862 18.6715 46.9862 20.6232V55.9617C46.9862 57.9134 45.4041 59.4955 43.4524 59.4955H13.4147C11.463 59.4955 9.88086 57.9134 9.88086 55.9617V20.6232C9.88086 18.6715 11.463 17.0894 13.4147 17.0894Z" fill="#373A5B"/>
<path d="M13.4157 13.5552H43.4534C45.4051 13.5552 46.9872 15.1373 46.9872 17.089V52.4275C46.9872 54.3792 45.4051 55.9613 43.4534 55.9613H13.4157C11.464 55.9613 9.88184 54.3792 9.88184 52.4275V17.089C9.88184 15.1373 11.464 13.5552 13.4157 13.5552Z" fill="white"/>
<path fill-rule="evenodd" clip-rule="evenodd" d="M22 29.891C22 33.6968 25.0852 36.782 28.891 36.782C32.6968 36.782 35.782 33.6968 35.782 29.891C35.782 26.0852 32.6968 23 28.891 23C25.0852 23 22 26.0852 22 29.891ZM32.601 29.8906C32.601 31.9399 30.9397 33.6012 28.8905 33.6012C26.8412 33.6012 25.1799 31.9399 25.1799 29.8906C25.1799 27.8414 26.8412 26.1801 28.8905 26.1801C30.9397 26.1801 32.601 27.8414 32.601 29.8906Z" fill="#91DEA6" fill-opacity="0.53"/>
<path d="M23.289 46.6292C22.4107 46.6292 21.6987 45.9172 21.6987 45.039C21.6987 44.1607 22.4107 43.4487 23.289 43.4487H33.5774C34.4557 43.4487 35.1676 44.1607 35.1676 45.039C35.1676 45.9172 34.4557 46.6292 33.5774 46.6292H23.289Z" fill="#D9EFF3"/>
</g>
<path d="M38.511 50.6819L46.453 57.3633L42.041 61.7753L35.3596 53.8334L32.7652 60.2095L27.7229 42.6882L45.2441 47.7305L38.511 50.6819Z" fill="white"/>
<path d="M131.836 1H152.218C158.972 1 164.447 6.47508 164.447 13.2289V69.435C164.447 76.1889 158.972 81.664 152.218 81.664H131.836C125.083 81.664 119.607 76.1889 119.607 69.435V13.2289C119.607 6.47508 125.083 1 131.836 1Z" fill="url(#paint2_linear)"/>
<path opacity="0.5" d="M127.211 6.76172H156.843C159.57 6.76172 161.781 8.97281 161.781 11.7003V70.9637C161.781 73.6912 159.57 75.9023 156.843 75.9023H127.211C124.484 75.9023 122.272 73.6912 122.272 70.9637V11.7003C122.272 8.97281 124.484 6.76172 127.211 6.76172Z" fill="url(#paint3_linear)"/>
<path opacity="0.1" d="M130.427 25.7993H154.115C155.654 25.7993 156.902 27.047 156.902 28.5861V56.4536C156.902 57.9927 155.654 59.2404 154.115 59.2404H130.427C128.888 59.2404 127.641 57.9927 127.641 56.4536V28.5861C127.641 27.047 128.888 25.7993 130.427 25.7993Z" fill="#373A5B"/>
<path d="M130.429 23.0122H154.116C155.655 23.0122 156.903 24.2599 156.903 25.799V53.6665C156.903 55.2056 155.655 56.4533 154.116 56.4533H130.429C128.89 56.4533 127.642 55.2056 127.642 53.6665V25.799C127.642 24.2599 128.89 23.0122 130.429 23.0122Z" fill="white"/>
<path fill-rule="evenodd" clip-rule="evenodd" d="M136.837 36.0211C136.837 39.0223 139.27 41.4553 142.272 41.4553C145.273 41.4553 147.706 39.0223 147.706 36.0211C147.706 33.0199 145.273 30.5869 142.272 30.5869C139.27 30.5869 136.837 33.0199 136.837 36.0211ZM145.197 36.0212C145.197 37.6372 143.887 38.9472 142.271 38.9472C140.655 38.9472 139.345 37.6372 139.345 36.0212C139.345 34.4051 140.655 33.0951 142.271 33.0951C143.887 33.0951 145.197 34.4051 145.197 36.0212Z" fill="#C5EED0"/>
<path d="M138.214 49.0945C137.521 49.0945 136.96 48.5331 136.96 47.8405C136.96 47.1479 137.521 46.5864 138.214 46.5864H146.327C147.02 46.5864 147.581 47.1479 147.581 47.8405C147.581 48.5331 147.02 49.0945 146.327 49.0945H138.214Z" fill="#ECF9F2"/>
<rect width="165" height="83" fill="white" fill-opacity="0.63"/>
<path d="M80.0518 44.16C80.0518 42.08 80.4318 40.36 81.1918 39C81.9518 37.6 83.0118 36.12 84.3718 34.56C85.4118 33.36 86.1718 32.34 86.6518 31.5C87.1718 30.66 87.4318 29.74 87.4318 28.74C87.4318 27.54 87.0318 26.62 86.2318 25.98C85.4318 25.34 84.2918 25.02 82.8118 25.02C81.2118 25.02 79.4718 25.38 77.5918 26.1C75.7118 26.82 73.8718 27.82 72.0718 29.1L69.0718 22.44C70.7118 21 72.8518 19.86 75.4918 19.02C78.1718 18.14 80.8518 17.7 83.5318 17.7C86.0918 17.7 88.3518 18.14 90.3118 19.02C92.3118 19.86 93.8518 21.06 94.9318 22.62C96.0518 24.14 96.6118 25.88 96.6118 27.84C96.6118 29.32 96.3318 30.68 95.7718 31.92C95.2118 33.12 94.5318 34.18 93.7318 35.1C92.9718 35.98 91.9118 37.06 90.5518 38.34C89.0318 39.78 87.8918 41 87.1318 42C86.3718 42.96 85.8918 44.02 85.6918 45.18L85.3318 47.16H80.0518V44.16ZM78.0118 50.94H87.6718V60.54H78.0118V50.94Z" fill="#373A5B" fill-opacity="0.59"/>
<path d="M80.0518 43.1132C80.0518 41.0332 80.4318 39.3132 81.1918 37.9532C81.9518 36.5532 83.0118 35.0732 84.3718 33.5132C85.4118 32.3132 86.1718 31.2932 86.6518 30.4532C87.1718 29.6132 87.4318 28.6932 87.4318 27.6932C87.4318 26.4932 87.0318 25.5732 86.2318 24.9332C85.4318 24.2932 84.2918 23.9732 82.8118 23.9732C81.2118 23.9732 79.4718 24.3332 77.5918 25.0532C75.7118 25.7732 73.8718 26.7732 72.0718 28.0532L69.0718 21.3932C70.7118 19.9532 72.8518 18.8132 75.4918 17.9732C78.1718 17.0932 80.8518 16.6532 83.5318 16.6532C86.0918 16.6532 88.3518 17.0932 90.3118 17.9732C92.3118 18.8132 93.8518 20.0132 94.9318 21.5732C96.0518 23.0932 96.6118 24.8332 96.6118 26.7932C96.6118 28.2732 96.3318 29.6332 95.7718 30.8732C95.2118 32.0732 94.5318 33.1332 93.7318 34.0532C92.9718 34.9332 91.9118 36.0132 90.5518 37.2932C89.0318 38.7332 87.8918 39.9532 87.1318 40.9532C86.3718 41.9132 85.8918 42.9732 85.6918 44.1332L85.3318 46.1132H80.0518V43.1132ZM78.0118 49.8932H87.6718V59.4932H78.0118V49.8932Z" fill="#00C2FF"/>
<defs>
<linearGradient id="paint0_linear" x1="53.7091" y1="85.8123" x2="54.0332" y2="69.7576" gradientUnits="userSpaceOnUse">
<stop stop-color="#A8EB9D"/>
<stop offset="1" stop-color="#4AB5BF"/>
</linearGradient>
<linearGradient id="paint1_linear" x1="56.5753" y1="120.639" x2="112.039" y2="13.1114" gradientUnits="userSpaceOnUse">
<stop stop-color="#A8EB9D"/>
<stop offset="1" stop-color="#3FAFC3"/>
</linearGradient>
<linearGradient id="paint2_linear" x1="127.595" y1="-23.6635" x2="72.4318" y2="26.4809" gradientUnits="userSpaceOnUse">
<stop stop-color="#A8EB9D"/>
<stop offset="1" stop-color="#3EAEC4"/>
</linearGradient>
<linearGradient id="paint3_linear" x1="161.781" y1="75.9023" x2="161.781" y2="6.76172" gradientUnits="userSpaceOnUse">
<stop stop-color="#FFD9E2"/>
<stop offset="1" stop-color="white"/>
</linearGradient>
</defs>
</svg>
