<svg width="90" height="90" viewBox="0 0 90 90" fill="none" xmlns="http://www.w3.org/2000/svg">
<path d="M12.2959 67.5342H46.5204C49.3864 67.5342 51.7097 69.8575 51.7097 72.7235C51.7097 73.3854 51.5831 74.0412 51.3367 74.6555L46.7135 86.1813C45.9242 88.149 44.0173 89.4387 41.8972 89.4387H7.67276C4.80676 89.4387 2.4834 87.1154 2.4834 84.2494C2.4834 83.5875 2.61001 82.9318 2.85641 82.3175L7.47959 70.7916C8.26888 68.8239 10.1758 67.5342 12.2959 67.5342Z" fill="url(#paint0_linear)"/>
<path d="M49 82C71.6437 82 90 63.6437 90 41C90 18.3563 71.6437 0 49 0C26.3563 0 8 18.3563 8 41C8 63.6437 26.3563 82 49 82Z" fill="url(#paint1_linear)"/>
<mask id="mask0" mask-type="alpha" maskUnits="userSpaceOnUse" x="8" y="0" width="82" height="82">
<path d="M49 82C71.6437 82 90 63.6437 90 41C90 18.3563 71.6437 0 49 0C26.3563 0 8 18.3563 8 41C8 63.6437 26.3563 82 49 82Z" fill="white"/>
</mask>
<g mask="url(#mask0)">
<path fill-rule="evenodd" clip-rule="evenodd" d="M48.9252 -2.7207L85.3181 -1.87935V20.2051H82.7294C77.6882 20.2051 73.6015 24.2918 73.6015 29.333V36.4644C73.6015 37.5671 74.4954 38.461 75.598 38.461C76.7007 38.461 77.5946 39.3549 77.5946 40.4575V40.796C77.5946 42.0855 76.5492 43.1309 75.2596 43.1309H72.7885C70.1342 43.1309 67.9825 40.9792 67.9825 38.3249V32.3657C67.9825 30.6951 66.6282 29.3408 64.9576 29.3408C63.287 29.3408 61.9327 27.9865 61.9327 26.3159V24.9745C61.9327 22.5631 59.9778 20.6082 57.5664 20.6082H55.4289C51.837 20.6082 48.9252 17.6964 48.9252 14.1045V-2.7207ZM52.0219 44.1435H56.2494C57.4004 44.1435 58.3336 45.0766 58.3336 46.2277V50.4551C58.3336 51.6062 57.4004 52.5393 56.2494 52.5393H52.0219C50.8709 52.5393 49.9378 51.6062 49.9378 50.4551V46.2277C49.9378 45.0766 50.8709 44.1435 52.0219 44.1435ZM9.52716 56.8379H-0.295898V76.222L12.4449 88.9628H62.4754V76.9831C62.4754 73.1176 59.3417 69.9839 55.4761 69.9839H51.9264C50.0213 69.9839 48.4769 68.4395 48.4769 66.5344C48.4769 64.6293 46.9325 63.0849 45.0274 63.0849H39.9544C35.4879 63.0849 31.8671 59.4641 31.8671 54.9976V49.0874C31.8671 47.885 32.8418 46.9103 34.0442 46.9103C35.2466 46.9103 36.2214 45.9356 36.2214 44.7331V44.4172C36.2214 43.0403 37.3376 41.9241 38.7145 41.9241H39.9048C41.9391 41.9241 43.5882 40.275 43.5882 38.2407V36.1544C43.5882 32.9679 41.0051 30.3848 37.8186 30.3848H30.7522C29.2944 30.3848 28.1126 31.5665 28.1126 33.0243C28.1126 34.4821 26.9308 35.6639 25.473 35.6639H24.1134C21.9047 35.6639 20.1141 37.4544 20.1141 39.6631V46.2509C20.1141 52.0979 15.3742 56.8379 9.52716 56.8379Z" fill="url(#paint2_linear)"/>
</g>
<path d="M5.18937 46.6265H40.2176C43.0836 46.6265 45.407 48.9498 45.407 51.8158V84.2494C45.407 87.1154 43.0836 89.4387 40.2176 89.4387H5.18937C2.32336 89.4387 0 87.1154 0 84.2494V51.8158C0 48.9498 2.32336 46.6265 5.18937 46.6265Z" fill="url(#paint3_linear)"/>
<path d="M8.6752 71.489C8.35777 72.2084 7.3419 72.1562 7.09667 71.4078L5.04419 65.1437C4.89529 64.6892 5.13491 64.1974 5.5794 64.0452C6.02388 63.8929 6.50492 64.1379 6.65383 64.5924L8.01833 68.7568L9.89143 64.5112C10.1935 63.8266 11.1459 63.8309 11.4419 64.5183L13.2009 68.6024L14.3362 64.6249C14.4675 64.1648 14.9388 63.9007 15.3888 64.035C15.8388 64.1692 16.0971 64.6511 15.9658 65.1111L14.1778 71.3752C13.9559 72.1527 12.9054 72.2231 12.5862 71.4818L10.6558 66.9997L8.6752 71.489Z" fill="white"/>
<path d="M20.6752 71.489C20.3578 72.2084 19.3419 72.1562 19.0967 71.4078L17.0442 65.1437C16.8953 64.6892 17.1349 64.1974 17.5794 64.0452C18.0239 63.8929 18.5049 64.1379 18.6538 64.5924L20.0183 68.7568L21.8914 64.5112C22.1935 63.8266 23.1459 63.8309 23.4419 64.5183L25.2009 68.6024L26.3362 64.6249C26.4675 64.1648 26.9388 63.9007 27.3888 64.035C27.8388 64.1692 28.0971 64.6511 27.9658 65.1111L26.1778 71.3752C25.9559 72.1527 24.9054 72.2231 24.5862 71.4818L22.6558 66.9997L20.6752 71.489Z" fill="white"/>
<path d="M32.6752 71.489C32.3578 72.2084 31.3419 72.1562 31.0967 71.4078L29.0442 65.1437C28.8953 64.6892 29.1349 64.1974 29.5794 64.0452C30.0239 63.8929 30.5049 64.1379 30.6538 64.5924L32.0183 68.7568L33.8914 64.5112C34.1935 63.8266 35.1459 63.8309 35.4419 64.5183L37.2009 68.6024L38.3362 64.6249C38.4675 64.1648 38.9388 63.9007 39.3888 64.035C39.8388 64.1692 40.0971 64.6511 39.9658 65.1111L38.1778 71.3752C37.9559 72.1527 36.9054 72.2231 36.5862 71.4818L34.6558 66.9997L32.6752 71.489Z" fill="white"/>
<path d="M14.1167 76.8461C13.4002 76.8461 12.8193 76.2653 12.8193 75.5488C12.8193 74.8323 13.4002 74.2515 14.1167 74.2515H31.2902C32.0067 74.2515 32.5875 74.8323 32.5875 75.5488C32.5875 76.2653 32.0067 76.8461 31.2902 76.8461H14.1167Z" fill="#8B8BAE"/>
<defs>
<linearGradient id="paint0_linear" x1="45.2861" y1="100.728" x2="50.6296" y2="69.6725" gradientUnits="userSpaceOnUse">
<stop stop-color="#373F87" stop-opacity="0.511068"/>
<stop offset="1" stop-color="#2B3171"/>
</linearGradient>
<linearGradient id="paint1_linear" x1="39.0236" y1="85.8756" x2="49.1187" y2="3.01692" gradientUnits="userSpaceOnUse">
<stop stop-color="#37CEDB"/>
<stop offset="1" stop-color="#3488ED"/>
</linearGradient>
<linearGradient id="paint2_linear" x1="16.8957" y1="-32.5201" x2="-29.7947" y2="57.2446" gradientUnits="userSpaceOnUse">
<stop stop-color="#39ABC5"/>
<stop offset="1" stop-color="#A8EB9D"/>
</linearGradient>
<linearGradient id="paint3_linear" x1="18.8069" y1="34.0659" x2="2.16638" y2="76.8325" gradientUnits="userSpaceOnUse">
<stop stop-color="#373F87" stop-opacity="0.511068"/>
<stop offset="1" stop-color="#2B3171"/>
</linearGradient>
</defs>
</svg>
