<svg width="92" height="94" viewBox="0 0 92 94" fill="none" xmlns="http://www.w3.org/2000/svg">
<path d="M14.2959 68.5342H48.5204C51.3864 68.5342 53.7097 70.8575 53.7097 73.7235C53.7097 74.3854 53.5831 75.0412 53.3367 75.6555L48.7135 87.1813C47.9242 89.149 46.0173 90.4387 43.8972 90.4387H9.67276C6.80676 90.4387 4.4834 88.1154 4.4834 85.2494C4.4834 84.5875 4.61001 83.9318 4.85641 83.3175L9.47959 71.7916C10.2689 69.8239 12.1758 68.5342 14.2959 68.5342Z" fill="url(#paint0_linear)"/>
<path d="M51 83C73.6437 83 92 64.6437 92 42C92 19.3563 73.6437 1 51 1C28.3563 1 10 19.3563 10 42C10 64.6437 28.3563 83 51 83Z" fill="url(#paint1_linear)"/>
<mask id="mask0" mask-type="alpha" maskUnits="userSpaceOnUse" x="10" y="1" width="82" height="82">
<path d="M51 83C73.6437 83 92 64.6437 92 42C92 19.3563 73.6437 1 51 1C28.3563 1 10 19.3563 10 42C10 64.6437 28.3563 83 51 83Z" fill="white"/>
</mask>
<g mask="url(#mask0)">
<path fill-rule="evenodd" clip-rule="evenodd" d="M50.9252 -1.7207L87.3181 -0.879346V21.2051H84.7294C79.6882 21.2051 75.6015 25.2918 75.6015 30.333V37.4644C75.6015 38.5671 76.4954 39.461 77.598 39.461C78.7007 39.461 79.5946 40.3549 79.5946 41.4575V41.796C79.5946 43.0855 78.5492 44.1309 77.2596 44.1309H74.7885C72.1342 44.1309 69.9825 41.9792 69.9825 39.3249V33.3657C69.9825 31.6951 68.6282 30.3408 66.9576 30.3408C65.287 30.3408 63.9327 28.9865 63.9327 27.3159V25.9745C63.9327 23.5631 61.9778 21.6082 59.5664 21.6082H57.4289C53.837 21.6082 50.9252 18.6964 50.9252 15.1045V-1.7207ZM54.0219 45.1435H58.2494C59.4004 45.1435 60.3336 46.0766 60.3336 47.2277V51.4551C60.3336 52.6062 59.4004 53.5393 58.2494 53.5393H54.0219C52.8709 53.5393 51.9378 52.6062 51.9378 51.4551V47.2277C51.9378 46.0766 52.8709 45.1435 54.0219 45.1435ZM11.5272 57.8379H1.7041V77.222L14.4449 89.9628H64.4754V77.9831C64.4754 74.1176 61.3417 70.9839 57.4761 70.9839H53.9264C52.0213 70.9839 50.4769 69.4395 50.4769 67.5344C50.4769 65.6293 48.9325 64.0849 47.0274 64.0849H41.9544C37.4879 64.0849 33.8671 60.4641 33.8671 55.9976V50.0874C33.8671 48.885 34.8418 47.9103 36.0442 47.9103C37.2466 47.9103 38.2214 46.9356 38.2214 45.7331V45.4172C38.2214 44.0403 39.3376 42.9241 40.7145 42.9241H41.9048C43.9391 42.9241 45.5882 41.275 45.5882 39.2407V37.1544C45.5882 33.9679 43.0051 31.3848 39.8186 31.3848H32.7522C31.2944 31.3848 30.1126 32.5665 30.1126 34.0243C30.1126 35.4821 28.9308 36.6639 27.473 36.6639H26.1134C23.9047 36.6639 22.1141 38.4544 22.1141 40.6631V47.2509C22.1141 53.0979 17.3742 57.8379 11.5272 57.8379Z" fill="url(#paint2_linear)"/>
</g>
<path d="M7.18937 47.6265H42.2176C45.0836 47.6265 47.407 49.9498 47.407 52.8158V85.2494C47.407 88.1154 45.0836 90.4387 42.2176 90.4387H7.18937C4.32336 90.4387 2 88.1154 2 85.2494V52.8158C2 49.9498 4.32336 47.6265 7.18937 47.6265Z" fill="url(#paint3_linear)"/>
<path d="M10.6752 72.489C10.3578 73.2084 9.3419 73.1562 9.09667 72.4078L7.04419 66.1437C6.89529 65.6892 7.13491 65.1974 7.5794 65.0452C8.02388 64.8929 8.50492 65.1379 8.65383 65.5924L10.0183 69.7568L11.8914 65.5112C12.1935 64.8266 13.1459 64.8309 13.4419 65.5183L15.2009 69.6024L16.3362 65.6249C16.4675 65.1648 16.9388 64.9007 17.3888 65.035C17.8388 65.1692 18.0971 65.6511 17.9658 66.1111L16.1778 72.3752C15.9559 73.1527 14.9054 73.2231 14.5862 72.4818L12.6558 67.9997L10.6752 72.489Z" fill="white"/>
<path d="M22.6752 72.489C22.3578 73.2084 21.3419 73.1562 21.0967 72.4078L19.0442 66.1437C18.8953 65.6892 19.1349 65.1974 19.5794 65.0452C20.0239 64.8929 20.5049 65.1379 20.6538 65.5924L22.0183 69.7568L23.8914 65.5112C24.1935 64.8266 25.1459 64.8309 25.4419 65.5183L27.2009 69.6024L28.3362 65.6249C28.4675 65.1648 28.9388 64.9007 29.3888 65.035C29.8388 65.1692 30.0971 65.6511 29.9658 66.1111L28.1778 72.3752C27.9559 73.1527 26.9054 73.2231 26.5862 72.4818L24.6558 67.9997L22.6752 72.489Z" fill="white"/>
<path d="M34.6752 72.489C34.3578 73.2084 33.3419 73.1562 33.0967 72.4078L31.0442 66.1437C30.8953 65.6892 31.1349 65.1974 31.5794 65.0452C32.0239 64.8929 32.5049 65.1379 32.6538 65.5924L34.0183 69.7568L35.8914 65.5112C36.1935 64.8266 37.1459 64.8309 37.4419 65.5183L39.2009 69.6024L40.3362 65.6249C40.4675 65.1648 40.9388 64.9007 41.3888 65.035C41.8388 65.1692 42.0971 65.6511 41.9658 66.1111L40.1778 72.3752C39.9559 73.1527 38.9054 73.2231 38.5862 72.4818L36.6558 67.9997L34.6752 72.489Z" fill="white"/>
<path d="M16.1167 77.8461C15.4002 77.8461 14.8193 77.2653 14.8193 76.5488C14.8193 75.8323 15.4002 75.2515 16.1167 75.2515H33.2902C34.0067 75.2515 34.5875 75.8323 34.5875 76.5488C34.5875 77.2653 34.0067 77.8461 33.2902 77.8461H16.1167Z" fill="#8B8BAE"/>
<path fill-rule="evenodd" clip-rule="evenodd" d="M92 41C92 63.6437 73.6437 82 51 82C28.3563 82 10 63.6437 10 41C10 18.3563 28.3563 0 51 0C73.6437 0 92 18.3563 92 41ZM67.2403 15.0422L26.1071 58.8377C7.33766 32.6136 37.1558 -2.66234 67.2403 15.0422ZM75.6266 22.763L34.8929 66.9578C62.8474 84.1299 95.3279 51.6494 75.6266 22.763Z" fill="#FF0000" fill-opacity="0.51"/>
<defs>
<linearGradient id="paint0_linear" x1="47.2861" y1="101.728" x2="52.6296" y2="70.6725" gradientUnits="userSpaceOnUse">
<stop stop-color="#373F87" stop-opacity="0.511068"/>
<stop offset="1" stop-color="#2B3171"/>
</linearGradient>
<linearGradient id="paint1_linear" x1="41.0236" y1="86.8756" x2="51.1187" y2="4.01692" gradientUnits="userSpaceOnUse">
<stop stop-color="#37CEDB"/>
<stop offset="1" stop-color="#3488ED"/>
</linearGradient>
<linearGradient id="paint2_linear" x1="18.8957" y1="-31.5201" x2="-27.7947" y2="58.2446" gradientUnits="userSpaceOnUse">
<stop stop-color="#39ABC5"/>
<stop offset="1" stop-color="#A8EB9D"/>
</linearGradient>
<linearGradient id="paint3_linear" x1="20.8069" y1="35.0659" x2="4.16638" y2="77.8325" gradientUnits="userSpaceOnUse">
<stop stop-color="#373F87" stop-opacity="0.511068"/>
<stop offset="1" stop-color="#2B3171"/>
</linearGradient>
</defs>
</svg>
