<svg width="92" height="94" viewBox="0 0 92 94" fill="none" xmlns="http://www.w3.org/2000/svg">
<path d="M13.2959 68.5342H47.5204C50.3864 68.5342 52.7097 70.8575 52.7097 73.7235C52.7097 74.3854 52.5831 75.0412 52.3367 75.6555L47.7135 87.1813C46.9242 89.149 45.0173 90.4387 42.8972 90.4387H8.67276C5.80676 90.4387 3.4834 88.1154 3.4834 85.2494C3.4834 84.5875 3.61001 83.9318 3.85641 83.3175L8.47959 71.7916C9.26888 69.8239 11.1758 68.5342 13.2959 68.5342Z" fill="url(#paint0_linear)"/>
<path d="M50 83C72.6437 83 91 64.6437 91 42C91 19.3563 72.6437 1 50 1C27.3563 1 9 19.3563 9 42C9 64.6437 27.3563 83 50 83Z" fill="url(#paint1_linear)"/>
<mask id="mask0" mask-type="alpha" maskUnits="userSpaceOnUse" x="9" y="1" width="82" height="82">
<path d="M50 83C72.6437 83 91 64.6437 91 42C91 19.3563 72.6437 1 50 1C27.3563 1 9 19.3563 9 42C9 64.6437 27.3563 83 50 83Z" fill="white"/>
</mask>
<g mask="url(#mask0)">
<path fill-rule="evenodd" clip-rule="evenodd" d="M49.9252 -1.7207L86.3181 -0.879346V21.2051H83.7294C78.6882 21.2051 74.6015 25.2918 74.6015 30.333V37.4644C74.6015 38.5671 75.4954 39.461 76.598 39.461C77.7007 39.461 78.5946 40.3549 78.5946 41.4575V41.796C78.5946 43.0855 77.5492 44.1309 76.2596 44.1309H73.7885C71.1342 44.1309 68.9825 41.9792 68.9825 39.3249V33.3657C68.9825 31.6951 67.6282 30.3408 65.9576 30.3408C64.287 30.3408 62.9327 28.9865 62.9327 27.3159V25.9745C62.9327 23.5631 60.9778 21.6082 58.5664 21.6082H56.4289C52.837 21.6082 49.9252 18.6964 49.9252 15.1045V-1.7207ZM53.0219 45.1435H57.2494C58.4004 45.1435 59.3336 46.0766 59.3336 47.2277V51.4551C59.3336 52.6062 58.4004 53.5393 57.2494 53.5393H53.0219C51.8709 53.5393 50.9378 52.6062 50.9378 51.4551V47.2277C50.9378 46.0766 51.8709 45.1435 53.0219 45.1435ZM10.5272 57.8379H0.704102V77.222L13.4449 89.9628H63.4754V77.9831C63.4754 74.1176 60.3417 70.9839 56.4761 70.9839H52.9264C51.0213 70.9839 49.4769 69.4395 49.4769 67.5344C49.4769 65.6293 47.9325 64.0849 46.0274 64.0849H40.9544C36.4879 64.0849 32.8671 60.4641 32.8671 55.9976V50.0874C32.8671 48.885 33.8418 47.9103 35.0442 47.9103C36.2466 47.9103 37.2214 46.9356 37.2214 45.7331V45.4172C37.2214 44.0403 38.3376 42.9241 39.7145 42.9241H40.9048C42.9391 42.9241 44.5882 41.275 44.5882 39.2407V37.1544C44.5882 33.9679 42.0051 31.3848 38.8186 31.3848H31.7522C30.2944 31.3848 29.1126 32.5665 29.1126 34.0243C29.1126 35.4821 27.9308 36.6639 26.473 36.6639H25.1134C22.9047 36.6639 21.1141 38.4544 21.1141 40.6631V47.2509C21.1141 53.0979 16.3742 57.8379 10.5272 57.8379Z" fill="url(#paint2_linear)"/>
</g>
<path d="M6.18937 47.6265H41.2176C44.0836 47.6265 46.407 49.9498 46.407 52.8158V85.2494C46.407 88.1154 44.0836 90.4387 41.2176 90.4387H6.18937C3.32336 90.4387 1 88.1154 1 85.2494V52.8158C1 49.9498 3.32336 47.6265 6.18937 47.6265Z" fill="url(#paint3_linear)"/>
<path d="M9.6752 72.489C9.35777 73.2084 8.3419 73.1562 8.09667 72.4078L6.04419 66.1437C5.89529 65.6892 6.13491 65.1974 6.5794 65.0452C7.02388 64.8929 7.50492 65.1379 7.65383 65.5924L9.01833 69.7568L10.8914 65.5112C11.1935 64.8266 12.1459 64.8309 12.4419 65.5183L14.2009 69.6024L15.3362 65.6249C15.4675 65.1648 15.9388 64.9007 16.3888 65.035C16.8388 65.1692 17.0971 65.6511 16.9658 66.1111L15.1778 72.3752C14.9559 73.1527 13.9054 73.2231 13.5862 72.4818L11.6558 67.9997L9.6752 72.489Z" fill="white"/>
<path d="M21.6752 72.489C21.3578 73.2084 20.3419 73.1562 20.0967 72.4078L18.0442 66.1437C17.8953 65.6892 18.1349 65.1974 18.5794 65.0452C19.0239 64.8929 19.5049 65.1379 19.6538 65.5924L21.0183 69.7568L22.8914 65.5112C23.1935 64.8266 24.1459 64.8309 24.4419 65.5183L26.2009 69.6024L27.3362 65.6249C27.4675 65.1648 27.9388 64.9007 28.3888 65.035C28.8388 65.1692 29.0971 65.6511 28.9658 66.1111L27.1778 72.3752C26.9559 73.1527 25.9054 73.2231 25.5862 72.4818L23.6558 67.9997L21.6752 72.489Z" fill="white"/>
<path d="M33.6752 72.489C33.3578 73.2084 32.3419 73.1562 32.0967 72.4078L30.0442 66.1437C29.8953 65.6892 30.1349 65.1974 30.5794 65.0452C31.0239 64.8929 31.5049 65.1379 31.6538 65.5924L33.0183 69.7568L34.8914 65.5112C35.1935 64.8266 36.1459 64.8309 36.4419 65.5183L38.2009 69.6024L39.3362 65.6249C39.4675 65.1648 39.9388 64.9007 40.3888 65.035C40.8388 65.1692 41.0971 65.6511 40.9658 66.1111L39.1778 72.3752C38.9559 73.1527 37.9054 73.2231 37.5862 72.4818L35.6558 67.9997L33.6752 72.489Z" fill="white"/>
<path d="M15.1167 77.8461C14.4002 77.8461 13.8193 77.2653 13.8193 76.5488C13.8193 75.8323 14.4002 75.2515 15.1167 75.2515H32.2902C33.0067 75.2515 33.5875 75.8323 33.5875 76.5488C33.5875 77.2653 33.0067 77.8461 32.2902 77.8461H15.1167Z" fill="#8B8BAE"/>
<path d="M4.90667 0H87.0933C89.8032 0 92 2.40487 92 5.37143V88.6286C92 91.5951 89.8032 94 87.0933 94H4.90667C2.19679 94 0 91.5951 0 88.6286V5.37143C0 2.40487 2.19679 0 4.90667 0Z" fill="white" fill-opacity="0.55"/>
<path d="M46.5518 45.62C46.5518 43.54 46.9318 41.82 47.6918 40.46C48.4518 39.06 49.5118 37.58 50.8718 36.02C51.9118 34.82 52.6718 33.8 53.1518 32.96C53.6718 32.12 53.9318 31.2 53.9318 30.2C53.9318 29 53.5318 28.08 52.7318 27.44C51.9318 26.8 50.7918 26.48 49.3118 26.48C47.7118 26.48 45.9718 26.84 44.0918 27.56C42.2118 28.28 40.3718 29.28 38.5718 30.56L35.5718 23.9C37.2118 22.46 39.3518 21.32 41.9918 20.48C44.6718 19.6 47.3518 19.16 50.0318 19.16C52.5918 19.16 54.8518 19.6 56.8118 20.48C58.8118 21.32 60.3518 22.52 61.4318 24.08C62.5518 25.6 63.1118 27.34 63.1118 29.3C63.1118 30.78 62.8318 32.14 62.2718 33.38C61.7118 34.58 61.0318 35.64 60.2318 36.56C59.4718 37.44 58.4118 38.52 57.0518 39.8C55.5318 41.24 54.3918 42.46 53.6318 43.46C52.8718 44.42 52.3918 45.48 52.1918 46.64L51.8318 48.62H46.5518V45.62ZM44.5118 52.4H54.1718V62H44.5118V52.4Z" fill="#373A5B" fill-opacity="0.59"/>
<path d="M46.5518 44.62C46.5518 42.54 46.9318 40.82 47.6918 39.46C48.4518 38.06 49.5118 36.58 50.8718 35.02C51.9118 33.82 52.6718 32.8 53.1518 31.96C53.6718 31.12 53.9318 30.2 53.9318 29.2C53.9318 28 53.5318 27.08 52.7318 26.44C51.9318 25.8 50.7918 25.48 49.3118 25.48C47.7118 25.48 45.9718 25.84 44.0918 26.56C42.2118 27.28 40.3718 28.28 38.5718 29.56L35.5718 22.9C37.2118 21.46 39.3518 20.32 41.9918 19.48C44.6718 18.6 47.3518 18.16 50.0318 18.16C52.5918 18.16 54.8518 18.6 56.8118 19.48C58.8118 20.32 60.3518 21.52 61.4318 23.08C62.5518 24.6 63.1118 26.34 63.1118 28.3C63.1118 29.78 62.8318 31.14 62.2718 32.38C61.7118 33.58 61.0318 34.64 60.2318 35.56C59.4718 36.44 58.4118 37.52 57.0518 38.8C55.5318 40.24 54.3918 41.46 53.6318 42.46C52.8718 43.42 52.3918 44.48 52.1918 45.64L51.8318 47.62H46.5518V44.62ZM44.5118 51.4H54.1718V61H44.5118V51.4Z" fill="#00C2FF"/>
<defs>
<linearGradient id="paint0_linear" x1="46.2861" y1="101.728" x2="51.6296" y2="70.6725" gradientUnits="userSpaceOnUse">
<stop stop-color="#373F87" stop-opacity="0.511068"/>
<stop offset="1" stop-color="#2B3171"/>
</linearGradient>
<linearGradient id="paint1_linear" x1="40.0236" y1="86.8756" x2="50.1187" y2="4.01692" gradientUnits="userSpaceOnUse">
<stop stop-color="#37CEDB"/>
<stop offset="1" stop-color="#3488ED"/>
</linearGradient>
<linearGradient id="paint2_linear" x1="17.8957" y1="-31.5201" x2="-28.7947" y2="58.2446" gradientUnits="userSpaceOnUse">
<stop stop-color="#39ABC5"/>
<stop offset="1" stop-color="#A8EB9D"/>
</linearGradient>
<linearGradient id="paint3_linear" x1="19.8069" y1="35.0659" x2="3.16638" y2="77.8325" gradientUnits="userSpaceOnUse">
<stop stop-color="#373F87" stop-opacity="0.511068"/>
<stop offset="1" stop-color="#2B3171"/>
</linearGradient>
</defs>
</svg>
