<svg width="115" height="88" viewBox="0 0 115 88" fill="none" xmlns="http://www.w3.org/2000/svg">
<path d="M76.6946 74.9911V75H19.2312V74.9781C9.08116 74.4959 1 66.114 1 55.8447C1 45.7531 8.80379 37.4841 18.7059 36.7433C21.9478 23.1232 34.1119 13 48.6224 13C63.1691 13 75.3577 23.1738 78.563 36.8453C87.9821 38.0511 95.2619 46.0977 95.2619 55.8447C95.2619 66.2271 87.0017 74.6804 76.6946 74.9911Z" fill="url(#paint0_linear)"/>
<path d="M41 88C48.1797 88 54 82.1797 54 75C54 67.8203 48.1797 62 41 62C33.8203 62 28 67.8203 28 75C28 82.1797 33.8203 88 41 88Z" fill="url(#paint1_linear)"/>
<mask id="mask0" mask-type="alpha" maskUnits="userSpaceOnUse" x="28" y="62" width="26" height="26">
<path d="M41 88C48.1797 88 54 82.1797 54 75C54 67.8203 48.1797 62 41 62C33.8203 62 28 67.8203 28 75C28 82.1797 33.8203 88 41 88Z" fill="white"/>
</mask>
<g mask="url(#mask0)">
<path fill-rule="evenodd" clip-rule="evenodd" d="M40.9755 61.1377L52.5148 61.4045V68.4069H51.6939C50.0955 68.4069 48.7997 69.7026 48.7997 71.3011V73.5623C48.7997 73.9119 49.0832 74.1953 49.4328 74.1953C49.7824 74.1953 50.0658 74.4787 50.0658 74.8284V74.9357C50.0658 75.3446 49.7344 75.676 49.3255 75.676H48.542C47.7003 75.676 47.0181 74.9938 47.0181 74.1521V72.2627C47.0181 71.7329 46.5887 71.3035 46.059 71.3035C45.5293 71.3035 45.0999 70.8741 45.0999 70.3444V69.9191C45.0999 69.1545 44.48 68.5347 43.7154 68.5347H43.0377C41.8988 68.5347 40.9755 67.6114 40.9755 66.4725V61.1377ZM41.9574 75.997H43.2978C43.6628 75.997 43.9586 76.2928 43.9586 76.6578V77.9982C43.9586 78.3632 43.6628 78.659 43.2978 78.659H41.9574C41.5924 78.659 41.2965 78.3632 41.2965 77.9982V76.6578C41.2965 76.2928 41.5924 75.997 41.9574 75.997ZM28.4828 80.0222H25.3682V86.1684L29.4079 90.2081H45.2713V86.4097C45.2713 85.184 44.2776 84.1904 43.052 84.1904H41.9264C41.3224 84.1904 40.8327 83.7007 40.8327 83.0967C40.8327 82.4926 40.343 82.0029 39.739 82.0029H38.1305C36.7142 82.0029 35.5662 80.8549 35.5662 79.4387V77.5647C35.5662 77.1835 35.8752 76.8744 36.2565 76.8744C36.6378 76.8744 36.9468 76.5653 36.9468 76.1841V76.0839C36.9468 75.6473 37.3007 75.2934 37.7373 75.2934H38.1147C38.7598 75.2934 39.2826 74.7705 39.2826 74.1255V73.464C39.2826 72.4537 38.4636 71.6346 37.4532 71.6346H35.2127C34.7504 71.6346 34.3757 72.0093 34.3757 72.4715C34.3757 72.9338 34.001 73.3085 33.5388 73.3085H33.1077C32.4074 73.3085 31.8396 73.8762 31.8396 74.5765V76.6653C31.8396 78.5193 30.3367 80.0222 28.4828 80.0222Z" fill="url(#paint2_linear)"/>
</g>
<path d="M99.3043 67.6087C107.757 67.6087 114.609 60.7567 114.609 52.3043C114.609 43.852 107.757 37 99.3043 37C90.852 37 84 43.852 84 52.3043C84 60.7567 90.852 67.6087 99.3043 67.6087Z" fill="url(#paint3_linear)"/>
<path d="M104.303 58.4032C104.303 58.9555 103.855 59.4032 103.303 59.4032C102.751 59.4032 102.303 58.9555 102.303 58.4032C102.303 56.8317 100.982 55.5464 99.3385 55.5464C97.6952 55.5464 96.374 56.8317 96.374 58.4032C96.374 58.9555 95.9263 59.4032 95.374 59.4032C94.8217 59.4032 94.374 58.9555 94.374 58.4032C94.374 55.7146 96.6028 53.5464 99.3385 53.5464C102.074 53.5464 104.303 55.7146 104.303 58.4032Z" fill="#E0BEF4"/>
<path fill-rule="evenodd" clip-rule="evenodd" d="M94.374 50.474C94.374 53.1626 96.6028 55.3308 99.3385 55.3308C102.074 55.3308 104.303 53.1626 104.303 50.474C104.303 47.7854 102.074 45.6172 99.3385 45.6172C96.6028 45.6172 94.374 47.7854 94.374 50.474ZM102.303 50.474C102.303 52.0455 100.982 53.3308 99.3385 53.3308C97.6952 53.3308 96.374 52.0455 96.374 50.474C96.374 48.9025 97.6952 47.6172 99.3385 47.6172C100.982 47.6172 102.303 48.9025 102.303 50.474Z" fill="white"/>
<path d="M5 0H26C28.7614 0 31 2.23858 31 5V26C31 28.7614 28.7614 31 26 31H5C2.23858 31 0 28.7614 0 26L0 5C0 2.23858 2.23858 0 5 0Z" fill="url(#paint4_linear)"/>
<path d="M20.4397 21.5643C20.4397 22.1166 19.992 22.5643 19.4397 22.5643C18.8874 22.5643 18.4397 22.1166 18.4397 21.5643C18.4397 19.9928 17.1185 18.7075 15.4752 18.7075C13.8319 18.7075 12.5107 19.9928 12.5107 21.5643C12.5107 22.1166 12.063 22.5643 11.5107 22.5643C10.9585 22.5643 10.5107 22.1166 10.5107 21.5643C10.5107 18.8757 12.7395 16.7075 15.4752 16.7075C18.211 16.7075 20.4397 18.8757 20.4397 21.5643Z" fill="#B0E0DB"/>
<path fill-rule="evenodd" clip-rule="evenodd" d="M10.5107 13.6351C10.5107 16.3237 12.7395 18.4919 15.4752 18.4919C18.211 18.4919 20.4397 16.3237 20.4397 13.6351C20.4397 10.9465 18.211 8.77832 15.4752 8.77832C12.7395 8.77832 10.5107 10.9465 10.5107 13.6351ZM18.4397 13.6351C18.4397 15.2066 17.1185 16.4919 15.4752 16.4919C13.8319 16.4919 12.5107 15.2066 12.5107 13.6351C12.5107 12.0636 13.8319 10.7783 15.4752 10.7783C17.1185 10.7783 18.4397 12.0636 18.4397 13.6351Z" fill="white"/>
<path fill-rule="evenodd" clip-rule="evenodd" d="M49.3958 57.396C49.7747 57.9687 49.6176 58.7402 49.0448 59.1191C48.4721 59.4981 47.7006 59.341 47.3217 58.7682C47.0486 58.3555 46.7934 57.9274 46.5553 57.4841C46.2304 56.8791 46.4575 56.1252 47.0625 55.8003C47.6676 55.4754 48.4214 55.7025 48.7463 56.3075C48.9488 56.6846 49.1651 57.0473 49.3958 57.396ZM56.1731 62.8907C56.2559 62.209 55.7704 61.5892 55.0886 61.5064C54.6976 61.4589 54.3207 61.379 53.9564 61.2658C53.3006 61.0619 52.6037 61.4283 52.3999 62.0841C52.1961 62.7399 52.5624 63.4368 53.2182 63.6406C53.7273 63.7988 54.2509 63.9099 54.7888 63.9752C55.4705 64.058 56.0903 63.5725 56.1731 62.8907ZM62.4263 59.7502C63.0473 59.4569 63.7885 59.7225 64.0817 60.3435C64.375 60.9645 64.1094 61.7056 63.4884 61.9989C63.0396 62.2109 62.6035 62.406 62.1773 62.5848C61.544 62.8505 60.8153 62.5525 60.5495 61.9193C60.2838 61.286 60.5818 60.5573 61.2151 60.2915C61.6066 60.1273 62.0096 59.947 62.4263 59.7502ZM71.3228 56.2053C70.9759 55.6126 70.2142 55.4134 69.6215 55.7603C69.4005 55.8898 69.2355 55.9865 68.8501 56.2129L68.5722 56.3762L68.429 56.4603C67.8368 56.808 67.6387 57.57 67.9864 58.1622C68.3341 58.7544 69.0961 58.9525 69.6883 58.6048L69.8318 58.5205L70.1098 58.3572C70.4944 58.1313 70.6582 58.0352 70.8779 57.9066C71.4706 57.5596 71.6698 56.7979 71.3228 56.2053ZM77.1653 51.8811C77.8059 51.6338 78.5258 51.9526 78.7732 52.5932C79.0206 53.2339 78.7017 53.9537 78.0611 54.2011C77.6689 54.3525 77.2646 54.5216 76.8461 54.7088C76.2191 54.9891 75.4837 54.7082 75.2033 54.0813C74.923 53.4544 75.2039 52.7189 75.8308 52.4385C76.2876 52.2343 76.7316 52.0486 77.1653 51.8811ZM86.2623 51.5953C86.8794 51.8968 87.1352 52.6413 86.8338 53.2584C86.5324 53.8754 85.7878 54.1313 85.1707 53.8299C84.8281 53.6625 84.4739 53.5315 84.1063 53.4355C83.4419 53.2619 83.044 52.5825 83.2176 51.9181C83.3912 51.2536 84.0706 50.8557 84.735 51.0294C85.2615 51.1669 85.7708 51.3552 86.2623 51.5953ZM45.7393 51.5242C46.4165 51.4101 46.873 50.7687 46.759 50.0915C46.687 49.6643 46.6223 49.2254 46.5642 48.7731C46.4768 48.092 45.8537 47.6107 45.1725 47.6982C44.4914 47.7857 44.0101 48.4087 44.0976 49.0899C44.1597 49.5736 44.2291 50.0445 44.3066 50.5045C44.4206 51.1817 45.0621 51.6382 45.7393 51.5242ZM46.1182 42.0056C46.1393 42.692 45.5999 43.2655 44.9135 43.2865C44.227 43.3075 43.6535 42.7681 43.6325 42.0817L43.6129 41.4292L43.591 40.701C43.5699 40.0146 44.1093 39.4411 44.7957 39.42C45.4821 39.3989 46.0556 39.9383 46.0767 40.6247L46.0986 41.353L46.1182 42.0056ZM44.4917 34.9553C45.1619 34.8053 45.5835 34.1404 45.4334 33.4702C45.3142 32.938 45.1738 32.4459 45.0087 31.9901C44.7748 31.3444 44.0617 31.0106 43.4161 31.2445C42.7704 31.4785 42.4366 32.1915 42.6705 32.8372C42.7978 33.1887 42.9095 33.5801 43.0066 34.0137C43.1567 34.6838 43.8216 35.1054 44.4917 34.9553ZM39.4121 26.752C40.0366 27.0377 40.3114 27.7755 40.0258 28.4C39.7402 29.0245 39.0023 29.2993 38.3778 29.0137C37.9963 28.8392 37.6036 28.6806 37.1998 28.538C36.5523 28.3092 36.2128 27.5989 36.4415 26.9513C36.6703 26.3038 37.3806 25.9643 38.0281 26.1931C38.5015 26.3603 38.9629 26.5466 39.4121 26.752ZM32.0078 26.3225C31.9985 25.6358 31.4343 25.0867 30.7477 25.096C30.2742 25.1024 29.7931 25.1213 29.3041 25.1527C28.6188 25.1968 28.0989 25.788 28.143 26.4734C28.1871 27.1587 28.7783 27.6786 29.4637 27.6345C29.911 27.6057 30.3502 27.5885 30.7812 27.5827C31.4679 27.5734 32.0171 27.0092 32.0078 26.3225Z" fill="white"/>
<defs>
<linearGradient id="paint0_linear" x1="36.6627" y1="77.9303" x2="41.7252" y2="14.7568" gradientUnits="userSpaceOnUse">
<stop stop-color="#A8EB9D"/>
<stop offset="1" stop-color="#3FAFC3"/>
</linearGradient>
<linearGradient id="paint1_linear" x1="37.8367" y1="89.2288" x2="41.0376" y2="62.9566" gradientUnits="userSpaceOnUse">
<stop stop-color="#37CEDB"/>
<stop offset="1" stop-color="#3488ED"/>
</linearGradient>
<linearGradient id="paint2_linear" x1="30.8193" y1="51.6891" x2="16.0152" y2="80.1514" gradientUnits="userSpaceOnUse">
<stop stop-color="#39ABC5"/>
<stop offset="1" stop-color="#A8EB9D"/>
</linearGradient>
<linearGradient id="paint3_linear" x1="101.286" y1="77.0437" x2="103.685" y2="37.4415" gradientUnits="userSpaceOnUse">
<stop stop-color="#FF90D7"/>
<stop offset="1" stop-color="#906EFA"/>
</linearGradient>
<linearGradient id="paint4_linear" x1="29.214" y1="45.621" x2="52.2467" y2="-2.1075" gradientUnits="userSpaceOnUse">
<stop offset="0.767956" stop-color="#39ABC5"/>
<stop offset="1" stop-color="#A8EB9D"/>
</linearGradient>
</defs>
</svg>
