<svg width="116" height="90" viewBox="0 0 116 90" fill="none" xmlns="http://www.w3.org/2000/svg">
<path d="M77.6946 75.9911V76H20.2312V75.9781C10.0812 75.4959 2 67.114 2 56.8447C2 46.7531 9.80379 38.4841 19.7059 37.7433C22.9478 24.1232 35.1119 14 49.6224 14C64.1691 14 76.3577 24.1738 79.563 37.8453C88.9821 39.0511 96.2619 47.0977 96.2619 56.8447C96.2619 67.2271 88.0017 75.6804 77.6946 75.9911Z" fill="url(#paint0_linear)"/>
<path d="M42 89C49.1797 89 55 83.1797 55 76C55 68.8203 49.1797 63 42 63C34.8203 63 29 68.8203 29 76C29 83.1797 34.8203 89 42 89Z" fill="url(#paint1_linear)"/>
<mask id="mask0" mask-type="alpha" maskUnits="userSpaceOnUse" x="29" y="63" width="26" height="26">
<path d="M42 89C49.1797 89 55 83.1797 55 76C55 68.8203 49.1797 63 42 63C34.8203 63 29 68.8203 29 76C29 83.1797 34.8203 89 42 89Z" fill="white"/>
</mask>
<g mask="url(#mask0)">
<path fill-rule="evenodd" clip-rule="evenodd" d="M41.9755 62.1377L53.5148 62.4045V69.4069H52.6939C51.0955 69.4069 49.7997 70.7026 49.7997 72.3011V74.5623C49.7997 74.9119 50.0832 75.1953 50.4328 75.1953C50.7824 75.1953 51.0658 75.4787 51.0658 75.8284V75.9357C51.0658 76.3446 50.7344 76.676 50.3255 76.676H49.542C48.7003 76.676 48.0181 75.9938 48.0181 75.1521V73.2627C48.0181 72.7329 47.5887 72.3035 47.059 72.3035C46.5293 72.3035 46.0999 71.8741 46.0999 71.3444V70.9191C46.0999 70.1545 45.48 69.5347 44.7154 69.5347H44.0377C42.8988 69.5347 41.9755 68.6114 41.9755 67.4725V62.1377ZM42.9574 76.997H44.2978C44.6628 76.997 44.9586 77.2928 44.9586 77.6578V78.9982C44.9586 79.3632 44.6628 79.659 44.2978 79.659H42.9574C42.5924 79.659 42.2965 79.3632 42.2965 78.9982V77.6578C42.2965 77.2928 42.5924 76.997 42.9574 76.997ZM29.4828 81.0222H26.3682V87.1684L30.4079 91.2081H46.2713V87.4097C46.2713 86.184 45.2776 85.1904 44.052 85.1904H42.9264C42.3224 85.1904 41.8327 84.7007 41.8327 84.0967C41.8327 83.4926 41.343 83.0029 40.739 83.0029H39.1305C37.7142 83.0029 36.5662 81.8549 36.5662 80.4387V78.5647C36.5662 78.1835 36.8752 77.8744 37.2565 77.8744C37.6378 77.8744 37.9468 77.5653 37.9468 77.1841V77.0839C37.9468 76.6473 38.3007 76.2934 38.7373 76.2934H39.1147C39.7598 76.2934 40.2826 75.7705 40.2826 75.1255V74.464C40.2826 73.4537 39.4636 72.6346 38.4532 72.6346H36.2127C35.7504 72.6346 35.3757 73.0093 35.3757 73.4715C35.3757 73.9338 35.001 74.3085 34.5388 74.3085H34.1077C33.4074 74.3085 32.8396 74.8762 32.8396 75.5765V77.6653C32.8396 79.5193 31.3367 81.0222 29.4828 81.0222Z" fill="url(#paint2_linear)"/>
</g>
<path d="M100.304 68.6087C108.757 68.6087 115.609 61.7567 115.609 53.3043C115.609 44.852 108.757 38 100.304 38C91.852 38 85 44.852 85 53.3043C85 61.7567 91.852 68.6087 100.304 68.6087Z" fill="url(#paint3_linear)"/>
<path d="M105.303 59.4032C105.303 59.9555 104.855 60.4032 104.303 60.4032C103.751 60.4032 103.303 59.9555 103.303 59.4032C103.303 57.8317 101.982 56.5464 100.339 56.5464C98.6952 56.5464 97.374 57.8317 97.374 59.4032C97.374 59.9555 96.9263 60.4032 96.374 60.4032C95.8217 60.4032 95.374 59.9555 95.374 59.4032C95.374 56.7146 97.6028 54.5464 100.339 54.5464C103.074 54.5464 105.303 56.7146 105.303 59.4032Z" fill="#E0BEF4"/>
<path fill-rule="evenodd" clip-rule="evenodd" d="M95.374 51.474C95.374 54.1626 97.6028 56.3308 100.339 56.3308C103.074 56.3308 105.303 54.1626 105.303 51.474C105.303 48.7854 103.074 46.6172 100.339 46.6172C97.6028 46.6172 95.374 48.7854 95.374 51.474ZM103.303 51.474C103.303 53.0455 101.982 54.3308 100.339 54.3308C98.6952 54.3308 97.374 53.0455 97.374 51.474C97.374 49.9025 98.6952 48.6172 100.339 48.6172C101.982 48.6172 103.303 49.9025 103.303 51.474Z" fill="white"/>
<path d="M6 1H27C29.7614 1 32 3.23858 32 6V27C32 29.7614 29.7614 32 27 32H6C3.23858 32 1 29.7614 1 27L1 6C1 3.23858 3.23858 1 6 1Z" fill="url(#paint4_linear)"/>
<path d="M21.4397 22.5643C21.4397 23.1166 20.992 23.5643 20.4397 23.5643C19.8874 23.5643 19.4397 23.1166 19.4397 22.5643C19.4397 20.9928 18.1185 19.7075 16.4752 19.7075C14.8319 19.7075 13.5107 20.9928 13.5107 22.5643C13.5107 23.1166 13.063 23.5643 12.5107 23.5643C11.9585 23.5643 11.5107 23.1166 11.5107 22.5643C11.5107 19.8757 13.7395 17.7075 16.4752 17.7075C19.211 17.7075 21.4397 19.8757 21.4397 22.5643Z" fill="#B0E0DB"/>
<path fill-rule="evenodd" clip-rule="evenodd" d="M11.5107 14.6351C11.5107 17.3237 13.7395 19.4919 16.4752 19.4919C19.211 19.4919 21.4397 17.3237 21.4397 14.6351C21.4397 11.9465 19.211 9.77832 16.4752 9.77832C13.7395 9.77832 11.5107 11.9465 11.5107 14.6351ZM19.4397 14.6351C19.4397 16.2066 18.1185 17.4919 16.4752 17.4919C14.8319 17.4919 13.5107 16.2066 13.5107 14.6351C13.5107 13.0636 14.8319 11.7783 16.4752 11.7783C18.1185 11.7783 19.4397 13.0636 19.4397 14.6351Z" fill="white"/>
<path fill-rule="evenodd" clip-rule="evenodd" d="M50.3958 58.396C50.7747 58.9687 50.6176 59.7402 50.0448 60.1191C49.4721 60.4981 48.7006 60.341 48.3217 59.7682C48.0486 59.3555 47.7934 58.9274 47.5553 58.4841C47.2304 57.8791 47.4575 57.1252 48.0625 56.8003C48.6676 56.4754 49.4214 56.7025 49.7463 57.3075C49.9488 57.6846 50.1651 58.0473 50.3958 58.396ZM57.1731 63.8907C57.2559 63.209 56.7704 62.5892 56.0886 62.5064C55.6976 62.4589 55.3207 62.379 54.9564 62.2658C54.3006 62.0619 53.6037 62.4283 53.3999 63.0841C53.1961 63.7399 53.5624 64.4368 54.2182 64.6406C54.7273 64.7988 55.2509 64.9099 55.7888 64.9752C56.4705 65.058 57.0903 64.5725 57.1731 63.8907ZM63.4263 60.7502C64.0473 60.4569 64.7885 60.7225 65.0817 61.3435C65.375 61.9645 65.1094 62.7056 64.4884 62.9989C64.0396 63.2109 63.6035 63.406 63.1773 63.5848C62.544 63.8505 61.8153 63.5525 61.5495 62.9193C61.2838 62.286 61.5818 61.5573 62.2151 61.2915C62.6066 61.1273 63.0096 60.947 63.4263 60.7502ZM72.3228 57.2053C71.9759 56.6126 71.2142 56.4134 70.6215 56.7603C70.4005 56.8898 70.2355 56.9865 69.8501 57.2129L69.5722 57.3762L69.429 57.4603C68.8368 57.808 68.6387 58.57 68.9864 59.1622C69.3341 59.7544 70.0961 59.9525 70.6883 59.6048L70.8318 59.5205L71.1098 59.3572C71.4944 59.1313 71.6582 59.0352 71.8779 58.9066C72.4706 58.5596 72.6698 57.7979 72.3228 57.2053ZM78.1653 52.8811C78.8059 52.6338 79.5258 52.9526 79.7732 53.5932C80.0206 54.2339 79.7017 54.9537 79.0611 55.2011C78.6689 55.3525 78.2646 55.5216 77.8461 55.7088C77.2191 55.9891 76.4837 55.7082 76.2033 55.0813C75.923 54.4544 76.2039 53.7189 76.8308 53.4385C77.2876 53.2343 77.7316 53.0486 78.1653 52.8811ZM87.2623 52.5953C87.8794 52.8968 88.1352 53.6413 87.8338 54.2584C87.5324 54.8754 86.7878 55.1313 86.1707 54.8299C85.8281 54.6625 85.4739 54.5315 85.1063 54.4355C84.4419 54.2619 84.044 53.5825 84.2176 52.9181C84.3912 52.2536 85.0706 51.8557 85.735 52.0294C86.2615 52.1669 86.7708 52.3552 87.2623 52.5953ZM46.7393 52.5242C47.4165 52.4101 47.873 51.7687 47.759 51.0915C47.687 50.6643 47.6223 50.2254 47.5642 49.7731C47.4768 49.092 46.8537 48.6107 46.1725 48.6982C45.4914 48.7857 45.0101 49.4087 45.0976 50.0899C45.1597 50.5736 45.2291 51.0445 45.3066 51.5045C45.4206 52.1817 46.0621 52.6382 46.7393 52.5242ZM47.1182 43.0056C47.1393 43.692 46.5999 44.2655 45.9135 44.2865C45.227 44.3075 44.6535 43.7681 44.6325 43.0817L44.6129 42.4292L44.591 41.701C44.5699 41.0146 45.1093 40.4411 45.7957 40.42C46.4821 40.3989 47.0556 40.9383 47.0767 41.6247L47.0986 42.353L47.1182 43.0056ZM45.4917 35.9553C46.1619 35.8053 46.5835 35.1404 46.4334 34.4702C46.3142 33.938 46.1738 33.4459 46.0087 32.9901C45.7748 32.3444 45.0617 32.0106 44.4161 32.2445C43.7704 32.4785 43.4366 33.1915 43.6705 33.8372C43.7978 34.1887 43.9095 34.5801 44.0066 35.0137C44.1567 35.6838 44.8216 36.1054 45.4917 35.9553ZM40.4121 27.752C41.0366 28.0377 41.3114 28.7755 41.0258 29.4C40.7402 30.0245 40.0023 30.2993 39.3778 30.0137C38.9963 29.8392 38.6036 29.6806 38.1998 29.538C37.5523 29.3092 37.2128 28.5989 37.4415 27.9513C37.6703 27.3038 38.3806 26.9643 39.0281 27.1931C39.5015 27.3603 39.9629 27.5466 40.4121 27.752ZM33.0078 27.3225C32.9985 26.6358 32.4343 26.0867 31.7477 26.096C31.2742 26.1024 30.7931 26.1213 30.3041 26.1527C29.6188 26.1968 29.0989 26.788 29.143 27.4734C29.1871 28.1587 29.7783 28.6786 30.4637 28.6345C30.911 28.6057 31.3502 28.5885 31.7812 28.5827C32.4679 28.5734 33.0171 28.0092 33.0078 27.3225Z" fill="white"/>
<path d="M6.18667 0H109.813C113.23 0 116 2.30254 116 5.14286V84.8571C116 87.6975 113.23 90 109.813 90H6.18667C2.76986 90 0 87.6975 0 84.8571V5.14286C0 2.30254 2.76986 0 6.18667 0Z" fill="white" fill-opacity="0.55"/>
<path d="M47.5518 50.62C47.5518 48.54 47.9318 46.82 48.6918 45.46C49.4518 44.06 50.5118 42.58 51.8718 41.02C52.9118 39.82 53.6718 38.8 54.1518 37.96C54.6718 37.12 54.9318 36.2 54.9318 35.2C54.9318 34 54.5318 33.08 53.7318 32.44C52.9318 31.8 51.7918 31.48 50.3118 31.48C48.7118 31.48 46.9718 31.84 45.0918 32.56C43.2118 33.28 41.3718 34.28 39.5718 35.56L36.5718 28.9C38.2118 27.46 40.3518 26.32 42.9918 25.48C45.6718 24.6 48.3518 24.16 51.0318 24.16C53.5918 24.16 55.8518 24.6 57.8118 25.48C59.8118 26.32 61.3518 27.52 62.4318 29.08C63.5518 30.6 64.1118 32.34 64.1118 34.3C64.1118 35.78 63.8318 37.14 63.2718 38.38C62.7118 39.58 62.0318 40.64 61.2318 41.56C60.4718 42.44 59.4118 43.52 58.0518 44.8C56.5318 46.24 55.3918 47.46 54.6318 48.46C53.8718 49.42 53.3918 50.48 53.1918 51.64L52.8318 53.62H47.5518V50.62ZM45.5118 57.4H55.1718V67H45.5118V57.4Z" fill="#373A5B" fill-opacity="0.59"/>
<path d="M47.5518 49.62C47.5518 47.54 47.9318 45.82 48.6918 44.46C49.4518 43.06 50.5118 41.58 51.8718 40.02C52.9118 38.82 53.6718 37.8 54.1518 36.96C54.6718 36.12 54.9318 35.2 54.9318 34.2C54.9318 33 54.5318 32.08 53.7318 31.44C52.9318 30.8 51.7918 30.48 50.3118 30.48C48.7118 30.48 46.9718 30.84 45.0918 31.56C43.2118 32.28 41.3718 33.28 39.5718 34.56L36.5718 27.9C38.2118 26.46 40.3518 25.32 42.9918 24.48C45.6718 23.6 48.3518 23.16 51.0318 23.16C53.5918 23.16 55.8518 23.6 57.8118 24.48C59.8118 25.32 61.3518 26.52 62.4318 28.08C63.5518 29.6 64.1118 31.34 64.1118 33.3C64.1118 34.78 63.8318 36.14 63.2718 37.38C62.7118 38.58 62.0318 39.64 61.2318 40.56C60.4718 41.44 59.4118 42.52 58.0518 43.8C56.5318 45.24 55.3918 46.46 54.6318 47.46C53.8718 48.42 53.3918 49.48 53.1918 50.64L52.8318 52.62H47.5518V49.62ZM45.5118 56.4H55.1718V66H45.5118V56.4Z" fill="#00C2FF"/>
<defs>
<linearGradient id="paint0_linear" x1="37.6627" y1="78.9303" x2="42.7252" y2="15.7568" gradientUnits="userSpaceOnUse">
<stop stop-color="#A8EB9D"/>
<stop offset="1" stop-color="#3FAFC3"/>
</linearGradient>
<linearGradient id="paint1_linear" x1="38.8367" y1="90.2288" x2="42.0376" y2="63.9566" gradientUnits="userSpaceOnUse">
<stop stop-color="#37CEDB"/>
<stop offset="1" stop-color="#3488ED"/>
</linearGradient>
<linearGradient id="paint2_linear" x1="31.8193" y1="52.6891" x2="17.0152" y2="81.1514" gradientUnits="userSpaceOnUse">
<stop stop-color="#39ABC5"/>
<stop offset="1" stop-color="#A8EB9D"/>
</linearGradient>
<linearGradient id="paint3_linear" x1="102.286" y1="78.0437" x2="104.685" y2="38.4415" gradientUnits="userSpaceOnUse">
<stop stop-color="#FF90D7"/>
<stop offset="1" stop-color="#906EFA"/>
</linearGradient>
<linearGradient id="paint4_linear" x1="30.214" y1="46.621" x2="53.2467" y2="-1.1075" gradientUnits="userSpaceOnUse">
<stop offset="0.767956" stop-color="#39ABC5"/>
<stop offset="1" stop-color="#A8EB9D"/>
</linearGradient>
</defs>
</svg>
