<svg width="67" height="81" viewBox="0 0 67 81" fill="none" xmlns="http://www.w3.org/2000/svg">
<path d="M35.6274 0.574086L65.0124 18.0857C66.3301 18.871 67.0948 20.3303 66.9905 21.8608C66.0388 35.8329 62.9989 47.4968 57.8711 56.8527C52.4393 66.763 45.4189 74.2437 36.8098 79.2948C35.2058 80.7556 32.5447 80.7556 30.4657 79.3806C20.411 73.1737 12.8532 65.0929 7.79233 55.1383C3.02728 45.7656 0.430585 34.6429 0.00224534 21.7703C-0.0470816 20.2879 0.713474 18.8959 1.9876 18.1366L31.4579 0.574086C32.7423 -0.191362 34.343 -0.191362 35.6274 0.574086Z" fill="url(#paint0_linear)"/>
<path opacity="0.3" d="M33.6064 55.0126C42.9391 55.0126 50.5048 47.4469 50.5048 38.1142C50.5048 28.7815 42.9391 21.2158 33.6064 21.2158C24.2737 21.2158 16.708 28.7815 16.708 38.1142C16.708 47.4469 24.2737 55.0126 33.6064 55.0126Z" fill="#373A5B"/>
<path d="M41.9231 43H39.8462V38.3481H38V36.2548H39.8462V34.8593C39.8462 32.0682 42.6154 31.8356 44 32.0682V33.9289H42.6154C42.0615 33.9289 41.9231 34.5492 41.9231 34.8593V36.4874H44L43.5385 38.5808H41.9231V43Z" fill="white"/>
<path fill-rule="evenodd" clip-rule="evenodd" d="M31.079 50C33.884 50 36.1579 47.9813 35.9914 45C35.9914 44.5159 35.9081 44.274 35.9081 44.274H31.079V45.9675H33.9931C33.4936 48.6288 29.2145 49.1115 28.0819 45.8862C27.2492 42.3378 31.4956 40.8862 33.1608 42.6604L34.576 41.3739C33.6652 40.5225 32.4341 40 31.079 40C28.2739 40 26 42.2386 26 45C26 47.7614 28.2739 50 31.079 50Z" fill="white"/>
<path d="M30.7986 37.067C29.6372 37.067 28.6276 36.833 27.7696 36.365C26.9116 35.9057 26.2486 35.26 25.7806 34.428C25.3212 33.596 25.0916 32.6383 25.0916 31.555C25.0916 30.3503 25.3342 29.3103 25.8196 28.435C26.3136 27.5597 26.9939 26.8923 27.8606 26.433C28.7272 25.9737 29.7109 25.744 30.8116 25.744C31.9469 25.744 32.9219 25.9563 33.7366 26.381C34.5512 26.8057 35.1709 27.3863 35.5956 28.123C36.0202 28.851 36.2326 29.67 36.2326 30.58C36.2326 31.334 36.1156 31.984 35.8816 32.53C35.6562 33.0673 35.3399 33.479 34.9326 33.765C34.5252 34.0423 34.0616 34.181 33.5416 34.181C33.0822 34.181 32.7096 34.0813 32.4236 33.882C32.1376 33.6827 31.9599 33.4183 31.8906 33.089H31.8646C31.6306 33.427 31.3662 33.6957 31.0716 33.895C30.7856 34.0857 30.4216 34.181 29.9796 34.181C29.3382 34.181 28.8356 33.9687 28.4716 33.544C28.1162 33.1107 27.9386 32.5387 27.9386 31.828C27.9386 31.2127 28.0556 30.6537 28.2896 30.151C28.5236 29.6397 28.8442 29.2367 29.2516 28.942C29.6676 28.6473 30.1399 28.5 30.6686 28.5C31.0239 28.5 31.3359 28.5737 31.6046 28.721C31.8732 28.8683 32.0639 29.0763 32.1766 29.345H32.2156L32.3456 28.617H33.7496L33.1906 31.685C33.1472 31.945 33.1256 32.1487 33.1256 32.296C33.1256 32.5473 33.1776 32.738 33.2816 32.868C33.3856 32.998 33.5546 33.063 33.7886 33.063C33.9619 33.063 34.1352 32.9807 34.3086 32.816C34.4819 32.6513 34.6249 32.3827 34.7376 32.01C34.8589 31.6373 34.9196 31.1607 34.9196 30.58C34.9196 29.852 34.7636 29.215 34.4516 28.669C34.1396 28.123 33.6759 27.6983 33.0606 27.395C32.4452 27.0917 31.6956 26.94 30.8116 26.94C29.9796 26.94 29.2386 27.122 28.5886 27.486C27.9386 27.8413 27.4272 28.37 27.0546 29.072C26.6819 29.7653 26.4956 30.593 26.4956 31.555C26.4956 32.4217 26.6646 33.18 27.0026 33.83C27.3492 34.48 27.8432 34.9827 28.4846 35.338C29.1346 35.6933 29.9059 35.871 30.7986 35.871C31.4312 35.871 31.9729 35.793 32.4236 35.637C32.8829 35.481 33.2209 35.2687 33.4376 35H35.2576C34.9196 35.6153 34.3606 36.1137 33.5806 36.495C32.8092 36.8763 31.8819 37.067 30.7986 37.067ZM30.2916 33.063C30.6382 33.063 30.9329 32.959 31.1756 32.751C31.4269 32.5343 31.6132 32.257 31.7346 31.919C31.8646 31.5723 31.9296 31.2083 31.9296 30.827C31.9296 30.4283 31.8386 30.1293 31.6566 29.93C31.4832 29.7307 31.2362 29.631 30.9156 29.631C30.5949 29.631 30.3176 29.7393 30.0836 29.956C29.8496 30.1727 29.6719 30.45 29.5506 30.788C29.4292 31.126 29.3686 31.4727 29.3686 31.828C29.3686 32.2007 29.4509 32.4997 29.6156 32.725C29.7802 32.9503 30.0056 33.063 30.2916 33.063Z" fill="white"/>
<defs>
<linearGradient id="paint0_linear" x1="1.75681" y1="-1.99106" x2="1.75681" y2="97.8919" gradientUnits="userSpaceOnUse">
<stop stop-color="#3EAFC3"/>
<stop offset="1" stop-color="#A8EB9D"/>
</linearGradient>
</defs>
</svg>
