<svg width="67" height="81" viewBox="0 0 67 81" fill="none" xmlns="http://www.w3.org/2000/svg">
<path d="M35.6274 0.574086L65.0124 18.0857C66.3301 18.871 67.0948 20.3303 66.9905 21.8608C66.0388 35.8329 62.9989 47.4968 57.8711 56.8527C52.4393 66.763 45.4189 74.2437 36.8098 79.2948C35.2058 80.7556 32.5447 80.7556 30.4657 79.3806C20.411 73.1737 12.8532 65.0929 7.79233 55.1383C3.02728 45.7656 0.430585 34.6429 0.00224534 21.7703C-0.0470816 20.2879 0.713474 18.8959 1.9876 18.1366L31.4579 0.574086C32.7423 -0.191362 34.343 -0.191362 35.6274 0.574086Z" fill="url(#paint0_linear)"/>
<path opacity="0.3" d="M33.6064 55.0126C42.9391 55.0126 50.5048 47.4469 50.5048 38.1142C50.5048 28.7815 42.9391 21.2158 33.6064 21.2158C24.2737 21.2158 16.708 28.7815 16.708 38.1142C16.708 47.4469 24.2737 55.0126 33.6064 55.0126Z" fill="#373A5B"/>
<path fill-rule="evenodd" clip-rule="evenodd" d="M51 38C51 47.3888 43.3888 55 34 55C24.6112 55 17 47.3888 17 38C17 28.6112 24.6112 21 34 21C43.3888 21 51 28.6112 51 38ZM40.7338 27.237L23.6786 45.3961C15.8961 34.5227 28.2597 19.8961 40.7338 27.237ZM44.211 30.4383L27.3214 48.763C38.9123 55.8831 52.3799 42.4156 44.211 30.4383Z" fill="#FF0000" fill-opacity="0.51"/>
<defs>
<linearGradient id="paint0_linear" x1="1.75681" y1="-1.99106" x2="1.75681" y2="97.8919" gradientUnits="userSpaceOnUse">
<stop stop-color="#3EAFC3"/>
<stop offset="1" stop-color="#A8EB9D"/>
</linearGradient>
</defs>
</svg>
