<svg width="67" height="81" viewBox="0 0 67 81" fill="none" xmlns="http://www.w3.org/2000/svg">
<path d="M35.6274 0.574086L65.0124 18.0857C66.3301 18.871 67.0948 20.3303 66.9905 21.8608C66.0388 35.8329 62.9989 47.4968 57.8711 56.8527C52.4393 66.763 45.4189 74.2437 36.8098 79.2948C35.2058 80.7556 32.5447 80.7556 30.4657 79.3806C20.411 73.1737 12.8532 65.0929 7.79233 55.1383C3.02728 45.7656 0.430585 34.6429 0.00224534 21.7703L0.00226172 21.7703C-0.0470652 20.2879 0.713474 18.8959 1.9876 18.1366L31.4579 0.574086C32.7423 -0.191362 34.343 -0.191362 35.6274 0.574086Z" fill="url(#paint0_linear)"/>
<path d="M35.6274 0.574086L65.0124 18.0857C66.3301 18.871 67.0948 20.3303 66.9905 21.8608C66.0388 35.8329 62.9989 47.4968 57.8711 56.8527C52.4393 66.763 45.4189 74.2437 36.8098 79.2948C35.2058 80.7556 32.5447 80.7556 30.4657 79.3806C20.411 73.1737 12.8532 65.0929 7.79233 55.1383C3.02728 45.7656 0.430585 34.6429 0.00224534 21.7703C-0.0470816 20.2879 0.713474 18.8959 1.9876 18.1366L31.4579 0.574086C32.7423 -0.191362 34.343 -0.191362 35.6274 0.574086Z" fill="url(#paint1_linear)"/>
<path opacity="0.3" d="M33.6064 55.0126C42.9391 55.0126 50.5048 47.4469 50.5048 38.1142C50.5048 28.7815 42.9391 21.2158 33.6064 21.2158C24.2737 21.2158 16.708 28.7815 16.708 38.1142C16.708 47.4469 24.2737 55.0126 33.6064 55.0126Z" fill="#373A5B"/>
<path d="M32.3159 40.902C32.3159 40.0007 32.4806 39.2553 32.8099 38.666C33.1393 38.0593 33.5986 37.418 34.1879 36.742C34.6386 36.222 34.9679 35.78 35.1759 35.416C35.4013 35.052 35.5139 34.6533 35.5139 34.22C35.5139 33.7 35.3406 33.3013 34.9939 33.024C34.6473 32.7467 34.1533 32.608 33.5119 32.608C32.8186 32.608 32.0646 32.764 31.2499 33.076C30.4353 33.388 29.6379 33.8213 28.8579 34.376L27.5579 31.49C28.2686 30.866 29.1959 30.372 30.3399 30.008C31.5013 29.6267 32.6626 29.436 33.8239 29.436C34.9333 29.436 35.9126 29.6267 36.7619 30.008C37.6286 30.372 38.2959 30.892 38.7639 31.568C39.2493 32.2267 39.4919 32.9807 39.4919 33.83C39.4919 34.4713 39.3706 35.0607 39.1279 35.598C38.8853 36.118 38.5906 36.5773 38.2439 36.976C37.9146 37.3573 37.4553 37.8253 36.8659 38.38C36.2073 39.004 35.7133 39.5327 35.3839 39.966C35.0546 40.382 34.8466 40.8413 34.7599 41.344L34.6039 42.202H32.3159V40.902ZM31.4319 43.84H35.6179V48H31.4319V43.84Z" fill="white"/>
<defs>
<linearGradient id="paint0_linear" x1="1.75681" y1="-1.99106" x2="1.75681" y2="97.8919" gradientUnits="userSpaceOnUse">
<stop stop-color="#52DEEA"/>
<stop offset="1" stop-color="#3488ED"/>
</linearGradient>
<linearGradient id="paint1_linear" x1="1.75681" y1="-1.99106" x2="1.75681" y2="97.8919" gradientUnits="userSpaceOnUse">
<stop stop-color="#3EAFC3"/>
<stop offset="1" stop-color="#A8EB9D"/>
</linearGradient>
</defs>
</svg>
