<svg width="48" height="45" viewBox="0 0 48 45" fill="none" xmlns="http://www.w3.org/2000/svg">
<path d="M23.6985 35.9712C30.977 35.9712 36.8774 30.0708 36.8774 22.7922C36.8774 15.5137 30.977 9.61328 23.6985 9.61328C16.4199 9.61328 10.5195 15.5137 10.5195 22.7922C10.5195 30.0708 16.4199 35.9712 23.6985 35.9712Z" fill="url(#paint0_linear)"/>
<path opacity="0.3" fill-rule="evenodd" clip-rule="evenodd" d="M3 22.6977C3 34.1287 12.2667 43.3954 23.6977 43.3954C35.1287 43.3954 44.3954 34.1287 44.3954 22.6977C44.3954 11.2667 35.1287 2 23.6977 2C12.2667 2 3 11.2667 3 22.6977ZM43.5519 22.6978C43.5519 33.6622 34.6635 42.5507 23.699 42.5507C12.7346 42.5507 3.84612 33.6622 3.84612 22.6978C3.84612 11.7333 12.7346 2.84484 23.699 2.84484C34.6635 2.84484 43.5519 11.7333 43.5519 22.6978Z" fill="url(#paint1_linear)"/>
<path d="M28.0346 28.0194C28.0346 28.486 27.6563 28.8642 27.1898 28.8642C26.7232 28.8642 26.345 28.486 26.345 28.0194C26.345 26.6004 25.1639 25.443 23.6984 25.443C22.233 25.443 21.0519 26.6004 21.0519 28.0194C21.0519 28.486 20.6737 28.8642 20.2071 28.8642C19.7405 28.8642 19.3623 28.486 19.3623 28.0194C19.3623 25.6595 21.3075 23.7534 23.6984 23.7534C26.0894 23.7534 28.0346 25.6595 28.0346 28.0194Z" fill="#A4D0F7"/>
<path fill-rule="evenodd" clip-rule="evenodd" d="M19.3623 20.9862C19.3623 23.3461 21.3075 25.2521 23.6984 25.2521C26.0894 25.2521 28.0346 23.3461 28.0346 20.9862C28.0346 18.6263 26.0894 16.7202 23.6984 16.7202C21.3075 16.7202 19.3623 18.6263 19.3623 20.9862ZM26.3459 20.9864C26.3459 22.4054 25.1648 23.5627 23.6993 23.5627C22.2339 23.5627 21.0528 22.4054 21.0528 20.9864C21.0528 19.5673 22.2339 18.41 23.6993 18.41C25.1648 18.41 26.3459 19.5673 26.3459 20.9864Z" fill="white"/>
<defs>
<linearGradient id="paint0_linear" x1="23.3721" y1="-1.72719" x2="1.99664" y2="25.2834" gradientUnits="userSpaceOnUse">
<stop stop-color="#93DFA5"/>
<stop offset="1" stop-color="#3FAFC3"/>
</linearGradient>
<linearGradient id="paint1_linear" x1="32.1654" y1="67.425" x2="80.2246" y2="21.427" gradientUnits="userSpaceOnUse">
<stop stop-color="#51DCEA"/>
<stop offset="1" stop-color="#3A99ED"/>
</linearGradient>
</defs>
</svg>
