<svg width="48" height="45" viewBox="0 0 48 45" fill="none" xmlns="http://www.w3.org/2000/svg">
<path d="M24.5003 35.6467C31.7093 35.6467 37.5534 29.8026 37.5534 22.5936C37.5534 15.3846 31.7093 9.54053 24.5003 9.54053C17.2913 9.54053 11.4473 15.3846 11.4473 22.5936C11.4473 29.8026 17.2913 35.6467 24.5003 35.6467Z" fill="url(#paint0_linear)"/>
<path opacity="0.3" fill-rule="evenodd" clip-rule="evenodd" d="M4 22.5C4 33.8218 13.1782 43 24.5 43C35.8218 43 45 33.8218 45 22.5C45 11.1782 35.8218 2 24.5 2C13.1782 2 4 11.1782 4 22.5ZM44.1643 22.4999C44.1643 33.3596 35.3608 42.1632 24.5011 42.1632C13.6414 42.1632 4.83781 33.3596 4.83781 22.4999C4.83781 11.6402 13.6414 2.83665 24.5011 2.83665C35.3608 2.83665 44.1643 11.6402 44.1643 22.4999Z" fill="url(#paint1_linear)"/>
<path d="M28.7945 27.7711C28.7945 28.2332 28.4199 28.6078 27.9578 28.6078C27.4956 28.6078 27.121 28.2332 27.121 27.7711C27.121 26.3657 25.9512 25.2194 24.4998 25.2194C23.0484 25.2194 21.8785 26.3657 21.8785 27.7711C21.8785 28.2332 21.5039 28.6078 21.0418 28.6078C20.5797 28.6078 20.2051 28.2332 20.2051 27.7711C20.2051 25.4337 22.1316 23.5459 24.4998 23.5459C26.8679 23.5459 28.7945 25.4337 28.7945 27.7711Z" fill="#A4D0F7"/>
<path fill-rule="evenodd" clip-rule="evenodd" d="M20.2051 20.8053C20.2051 23.1427 22.1316 25.0305 24.4998 25.0305C26.8679 25.0305 28.7945 23.1427 28.7945 20.8053C28.7945 18.4679 26.8679 16.5801 24.4998 16.5801C22.1316 16.5801 20.2051 18.4679 20.2051 20.8053ZM27.122 20.8051C27.122 22.2106 25.9522 23.3569 24.5007 23.3569C23.0493 23.3569 21.8795 22.2106 21.8795 20.8051C21.8795 19.3997 23.0493 18.2534 24.5007 18.2534C25.9522 18.2534 27.122 19.3997 27.122 20.8051Z" fill="white"/>
<path d="M24.6985 35.9712C31.977 35.9712 37.8774 30.0708 37.8774 22.7922C37.8774 15.5137 31.977 9.61328 24.6985 9.61328C17.4199 9.61328 11.5195 15.5137 11.5195 22.7922C11.5195 30.0708 17.4199 35.9712 24.6985 35.9712Z" fill="url(#paint2_linear)"/>
<path opacity="0.3" fill-rule="evenodd" clip-rule="evenodd" d="M4 22.6977C4 34.1287 13.2667 43.3954 24.6977 43.3954C36.1287 43.3954 45.3954 34.1287 45.3954 22.6977C45.3954 11.2667 36.1287 2 24.6977 2C13.2667 2 4 11.2667 4 22.6977ZM44.5519 22.6978C44.5519 33.6622 35.6635 42.5507 24.699 42.5507C13.7346 42.5507 4.84612 33.6622 4.84612 22.6978C4.84612 11.7333 13.7346 2.84484 24.699 2.84484C35.6635 2.84484 44.5519 11.7333 44.5519 22.6978Z" fill="url(#paint3_linear)"/>
<path d="M29.0346 28.0194C29.0346 28.486 28.6563 28.8642 28.1898 28.8642C27.7232 28.8642 27.345 28.486 27.345 28.0194C27.345 26.6004 26.1639 25.443 24.6984 25.443C23.233 25.443 22.0519 26.6004 22.0519 28.0194C22.0519 28.486 21.6737 28.8642 21.2071 28.8642C20.7405 28.8642 20.3623 28.486 20.3623 28.0194C20.3623 25.6595 22.3075 23.7534 24.6984 23.7534C27.0894 23.7534 29.0346 25.6595 29.0346 28.0194Z" fill="#A4D0F7"/>
<path fill-rule="evenodd" clip-rule="evenodd" d="M20.3623 20.9862C20.3623 23.3461 22.3075 25.2521 24.6984 25.2521C27.0894 25.2521 29.0346 23.3461 29.0346 20.9862C29.0346 18.6263 27.0894 16.7202 24.6984 16.7202C22.3075 16.7202 20.3623 18.6263 20.3623 20.9862ZM27.3459 20.9864C27.3459 22.4054 26.1648 23.5627 24.6993 23.5627C23.2339 23.5627 22.0528 22.4054 22.0528 20.9864C22.0528 19.5673 23.2339 18.41 24.6993 18.41C26.1648 18.41 27.3459 19.5673 27.3459 20.9864Z" fill="white"/>
<path fill-rule="evenodd" clip-rule="evenodd" d="M38.0085 22.5043C38.0085 29.9625 31.9625 36.0085 24.5043 36.0085C17.0461 36.0085 11 29.9625 11 22.5043C11 15.0461 17.0461 9 24.5043 9C31.9625 9 38.0085 15.0461 38.0085 22.5043ZM29.8534 13.9545L16.3052 28.3795C10.1231 19.742 19.9444 8.1231 29.8534 13.9545ZM32.6156 16.4975L19.199 31.054C28.4065 36.71 39.1047 26.0119 32.6156 16.4975Z" fill="#FF0000" fill-opacity="0.65"/>
<defs>
<linearGradient id="paint0_linear" x1="24.1771" y1="-1.69161" x2="3.00579" y2="25.061" gradientUnits="userSpaceOnUse">
<stop stop-color="#52DEEA"/>
<stop offset="1" stop-color="#3A99ED"/>
</linearGradient>
<linearGradient id="paint1_linear" x1="32.8868" y1="66.8001" x2="80.487" y2="21.2415" gradientUnits="userSpaceOnUse">
<stop stop-color="#51DCEA"/>
<stop offset="1" stop-color="#3A99ED"/>
</linearGradient>
<linearGradient id="paint2_linear" x1="24.3721" y1="-1.72719" x2="2.99664" y2="25.2834" gradientUnits="userSpaceOnUse">
<stop stop-color="#93DFA5"/>
<stop offset="1" stop-color="#3FAFC3"/>
</linearGradient>
<linearGradient id="paint3_linear" x1="33.1654" y1="67.425" x2="81.2246" y2="21.427" gradientUnits="userSpaceOnUse">
<stop stop-color="#51DCEA"/>
<stop offset="1" stop-color="#3A99ED"/>
</linearGradient>
</defs>
</svg>
