<svg width="48" height="45" viewBox="0 0 48 45" fill="none" xmlns="http://www.w3.org/2000/svg">
<path d="M23.6985 35.9712C30.977 35.9712 36.8774 30.0708 36.8774 22.7922C36.8774 15.5137 30.977 9.61328 23.6985 9.61328C16.4199 9.61328 10.5195 15.5137 10.5195 22.7922C10.5195 30.0708 16.4199 35.9712 23.6985 35.9712Z" fill="url(#paint0_linear)"/>
<path opacity="0.3" fill-rule="evenodd" clip-rule="evenodd" d="M3 22.6977C3 34.1287 12.2667 43.3954 23.6977 43.3954C35.1287 43.3954 44.3954 34.1287 44.3954 22.6977C44.3954 11.2667 35.1287 2 23.6977 2C12.2667 2 3 11.2667 3 22.6977ZM43.5519 22.6978C43.5519 33.6622 34.6635 42.5507 23.699 42.5507C12.7346 42.5507 3.84612 33.6622 3.84612 22.6978C3.84612 11.7333 12.7346 2.84484 23.699 2.84484C34.6635 2.84484 43.5519 11.7333 43.5519 22.6978Z" fill="url(#paint1_linear)"/>
<path d="M28.0346 28.0194C28.0346 28.486 27.6563 28.8642 27.1898 28.8642C26.7232 28.8642 26.345 28.486 26.345 28.0194C26.345 26.6004 25.1639 25.443 23.6984 25.443C22.233 25.443 21.0519 26.6004 21.0519 28.0194C21.0519 28.486 20.6737 28.8642 20.2071 28.8642C19.7405 28.8642 19.3623 28.486 19.3623 28.0194C19.3623 25.6595 21.3075 23.7534 23.6984 23.7534C26.0894 23.7534 28.0346 25.6595 28.0346 28.0194Z" fill="#A4D0F7"/>
<path fill-rule="evenodd" clip-rule="evenodd" d="M19.3623 20.9862C19.3623 23.3461 21.3075 25.2521 23.6984 25.2521C26.0894 25.2521 28.0346 23.3461 28.0346 20.9862C28.0346 18.6263 26.0894 16.7202 23.6984 16.7202C21.3075 16.7202 19.3623 18.6263 19.3623 20.9862ZM26.3459 20.9864C26.3459 22.4054 25.1648 23.5627 23.6993 23.5627C22.2339 23.5627 21.0528 22.4054 21.0528 20.9864C21.0528 19.5673 22.2339 18.41 23.6993 18.41C25.1648 18.41 26.3459 19.5673 26.3459 20.9864Z" fill="white"/>
<circle cx="23.5" cy="22.5" r="20.5" fill="white" fill-opacity="0.55"/>
<path d="M22.4527 25.991C22.4527 24.847 22.6617 23.901 23.0797 23.153C23.4977 22.383 24.0807 21.569 24.8287 20.711C25.4007 20.051 25.8187 19.49 26.0827 19.028C26.3687 18.566 26.5117 18.06 26.5117 17.51C26.5117 16.85 26.2917 16.344 25.8517 15.992C25.4117 15.64 24.7847 15.464 23.9707 15.464C23.0907 15.464 22.1337 15.662 21.0997 16.058C20.0657 16.454 19.0537 17.004 18.0637 17.708L16.4137 14.045C17.3157 13.253 18.4927 12.626 19.9447 12.164C21.4187 11.68 22.8927 11.438 24.3667 11.438C25.7747 11.438 27.0177 11.68 28.0957 12.164C29.1957 12.626 30.0427 13.286 30.6367 14.144C31.2527 14.98 31.5607 15.937 31.5607 17.015C31.5607 17.829 31.4067 18.577 31.0987 19.259C30.7907 19.919 30.4167 20.502 29.9767 21.008C29.5587 21.492 28.9757 22.086 28.2277 22.79C27.3917 23.582 26.7647 24.253 26.3467 24.803C25.9287 25.331 25.6647 25.914 25.5547 26.552L25.3567 27.641H22.4527V25.991ZM21.3307 29.72H26.6437V35H21.3307V29.72Z" fill="#373A5B" fill-opacity="0.59"/>
<path d="M22.4527 24.991C22.4527 23.847 22.6617 22.901 23.0797 22.153C23.4977 21.383 24.0807 20.569 24.8287 19.711C25.4007 19.051 25.8187 18.49 26.0827 18.028C26.3687 17.566 26.5117 17.06 26.5117 16.51C26.5117 15.85 26.2917 15.344 25.8517 14.992C25.4117 14.64 24.7847 14.464 23.9707 14.464C23.0907 14.464 22.1337 14.662 21.0997 15.058C20.0657 15.454 19.0537 16.004 18.0637 16.708L16.4137 13.045C17.3157 12.253 18.4927 11.626 19.9447 11.164C21.4187 10.68 22.8927 10.438 24.3667 10.438C25.7747 10.438 27.0177 10.68 28.0957 11.164C29.1957 11.626 30.0427 12.286 30.6367 13.144C31.2527 13.98 31.5607 14.937 31.5607 16.015C31.5607 16.829 31.4067 17.577 31.0987 18.259C30.7907 18.919 30.4167 19.502 29.9767 20.008C29.5587 20.492 28.9757 21.086 28.2277 21.79C27.3917 22.582 26.7647 23.253 26.3467 23.803C25.9287 24.331 25.6647 24.914 25.5547 25.552L25.3567 26.641H22.4527V24.991ZM21.3307 28.72H26.6437V34H21.3307V28.72Z" fill="#00C2FF"/>
<defs>
<linearGradient id="paint0_linear" x1="23.3721" y1="-1.72719" x2="1.99664" y2="25.2834" gradientUnits="userSpaceOnUse">
<stop stop-color="#93DFA5"/>
<stop offset="1" stop-color="#3FAFC3"/>
</linearGradient>
<linearGradient id="paint1_linear" x1="32.1654" y1="67.425" x2="80.2246" y2="21.427" gradientUnits="userSpaceOnUse">
<stop stop-color="#51DCEA"/>
<stop offset="1" stop-color="#3A99ED"/>
</linearGradient>
</defs>
</svg>
