<svg width="102" height="64" viewBox="0 0 102 64" fill="none" xmlns="http://www.w3.org/2000/svg">
<path d="M10 0H92C97.5228 0 102 4.47715 102 10V54C102 59.5228 97.5228 64 92 64H10C4.47715 64 0 59.5228 0 54V10C0 4.47715 4.47715 0 10 0Z" fill="url(#paint0_linear)"/>
<path d="M10 0H92C97.5228 0 102 4.47715 102 10V54C102 59.5228 97.5228 64 92 64H10C4.47715 64 0 59.5228 0 54V10C0 4.47715 4.47715 0 10 0Z" fill="url(#paint1_linear)"/>
<path d="M10 0H92C97.5228 0 102 4.47715 102 10V54C102 59.5228 97.5228 64 92 64H10C4.47715 64 0 59.5228 0 54V10C0 4.47715 4.47715 0 10 0Z" fill="url(#paint2_linear)"/>
<path d="M10 0H92C97.5228 0 102 4.47715 102 10V54C102 59.5228 97.5228 64 92 64H10C4.47715 64 0 59.5228 0 54V10C0 4.47715 4.47715 0 10 0Z" fill="white" fill-opacity="0.55"/>
<mask id="mask0" mask-type="alpha" maskUnits="userSpaceOnUse" x="0" y="0" width="102" height="64">
<path d="M10 0H92C97.5228 0 102 4.47715 102 10V54C102 59.5228 97.5228 64 92 64H10C4.47715 64 0 59.5228 0 54V10C0 4.47715 4.47715 0 10 0Z" fill="white"/>
</mask>
<g mask="url(#mask0)">
<path opacity="0.3" d="M72 54C75.3137 54 78 51.3137 78 48C78 44.6863 75.3137 42 72 42C68.6863 42 66 44.6863 66 48C66 51.3137 68.6863 54 72 54Z" fill="white"/>
<path opacity="0.3" d="M82 54C85.3137 54 88 51.3137 88 48C88 44.6863 85.3137 42 82 42C78.6863 42 76 44.6863 76 48C76 51.3137 78.6863 54 82 54Z" fill="white"/>
<rect opacity="0.2" y="14" width="102" height="8" fill="#401F5C"/>
<path d="M11.0537 32C9.94914 32 9.05371 31.1046 9.05371 30C9.05371 28.8954 9.94914 28 11.0537 28L21.7481 28C22.8526 28 23.7481 28.8954 23.7481 30C23.7481 31.1046 22.8526 32 21.7481 32H11.0537Z" fill="white"/>
<path d="M31.0537 32C29.9491 32 29.0537 31.1046 29.0537 30C29.0537 28.8954 29.9491 28 31.0537 28L41.7481 28C42.8526 28 43.7481 28.8954 43.7481 30C43.7481 31.1046 42.8526 32 41.7481 32H31.0537Z" fill="white"/>
<path d="M49.6226 35.623C49.6226 33.9243 49.9329 32.5197 50.5536 31.409C51.1742 30.2657 52.0399 29.057 53.1506 27.783C53.9999 26.803 54.6206 25.97 55.0126 25.284C55.4372 24.598 55.6496 23.8467 55.6496 23.03C55.6496 22.05 55.3229 21.2987 54.6696 20.776C54.0162 20.2533 53.0852 19.992 51.8766 19.992C50.5699 19.992 49.1489 20.286 47.6136 20.874C46.0782 21.462 44.5756 22.2787 43.1056 23.324L40.6556 17.885C41.9949 16.709 43.7426 15.778 45.8986 15.092C48.0872 14.3733 50.2759 14.014 52.4646 14.014C54.5552 14.014 56.4009 14.3733 58.0016 15.092C59.6349 15.778 60.8926 16.758 61.7746 18.032C62.6892 19.2733 63.1466 20.6943 63.1466 22.295C63.1466 23.5037 62.9179 24.6143 62.4606 25.627C62.0032 26.607 61.4479 27.4727 60.7946 28.224C60.1739 28.9427 59.3082 29.8247 58.1976 30.87C56.9562 32.046 56.0252 33.0423 55.4046 33.859C54.7839 34.643 54.3919 35.5087 54.2286 36.456L53.9346 38.073H49.6226V35.623ZM47.9566 41.16H55.8456V49H47.9566V41.16Z" fill="#373A5B" fill-opacity="0.59"/>
<path d="M49.6226 34.623C49.6226 32.9243 49.9329 31.5197 50.5536 30.409C51.1742 29.2657 52.0399 28.057 53.1506 26.783C53.9999 25.803 54.6206 24.97 55.0126 24.284C55.4372 23.598 55.6496 22.8467 55.6496 22.03C55.6496 21.05 55.3229 20.2987 54.6696 19.776C54.0162 19.2533 53.0852 18.992 51.8766 18.992C50.5699 18.992 49.1489 19.286 47.6136 19.874C46.0782 20.462 44.5756 21.2787 43.1056 22.324L40.6556 16.885C41.9949 15.709 43.7426 14.778 45.8986 14.092C48.0872 13.3733 50.2759 13.014 52.4646 13.014C54.5552 13.014 56.4009 13.3733 58.0016 14.092C59.6349 14.778 60.8926 15.758 61.7746 17.032C62.6892 18.2733 63.1466 19.6943 63.1466 21.295C63.1466 22.5037 62.9179 23.6143 62.4606 24.627C62.0032 25.607 61.4479 26.4727 60.7946 27.224C60.1739 27.9427 59.3082 28.8247 58.1976 29.87C56.9562 31.046 56.0252 32.0423 55.4046 32.859C54.7839 33.643 54.3919 34.5087 54.2286 35.456L53.9346 37.073H49.6226V34.623ZM47.9566 40.16H55.8456V48H47.9566V40.16Z" fill="#00C2FF"/>
</g>
<defs>
<linearGradient id="paint0_linear" x1="56.3412" y1="112.589" x2="107.238" y2="7.57561" gradientUnits="userSpaceOnUse">
<stop stop-color="#3A99ED"/>
<stop offset="1" stop-color="#51DCEA"/>
</linearGradient>
<linearGradient id="paint1_linear" x1="56.3412" y1="112.589" x2="107.238" y2="7.57561" gradientUnits="userSpaceOnUse">
<stop stop-color="#3A99ED"/>
<stop offset="1" stop-color="#51DCEA"/>
</linearGradient>
<linearGradient id="paint2_linear" x1="56.3412" y1="112.589" x2="107.238" y2="7.57561" gradientUnits="userSpaceOnUse">
<stop stop-color="#A8EB9D"/>
<stop offset="1" stop-color="#3EAFC3"/>
</linearGradient>
</defs>
</svg>
