<svg width="82" height="56" viewBox="0 0 82 56" fill="none" xmlns="http://www.w3.org/2000/svg">
<path d="M3 0L21.2392 0C22.6543 0 23.9641 0.747677 24.6836 1.96619L28.2664 8.03381C28.9859 9.25232 30.2956 10 31.7107 10H68C69.6569 10 71 11.3431 71 13V53C71 54.6569 69.6569 56 68 56H3C1.34315 56 0 54.6569 0 53L0 3C0 1.34315 1.34315 0 3 0Z" fill="url(#paint0_linear)"/>
<path d="M11.4694 16.7319L78.2753 16.7319C79.9321 16.7319 81.2753 18.0751 81.2753 19.7319C81.2753 19.9833 81.2437 20.2336 81.1812 20.4771L72.7197 53.4771C72.3795 54.804 71.1836 55.7319 69.8137 55.7319H3.00781C1.35096 55.7319 0.0078125 54.3888 0.0078125 52.7319C0.0078125 52.4806 0.0393961 52.2303 0.101821 51.9868L8.56336 18.9868C8.9036 17.6599 10.0995 16.7319 11.4694 16.7319Z" fill="url(#paint1_linear)"/>
<circle cx="41.5" cy="22.5" r="16.5" fill="white" fill-opacity="0.69"/>
<g clip-path="url(#clip0)">
<path d="M16.7316 48.6352L28.5737 37.3568C28.7849 37.1557 28.8989 36.8895 28.9059 36.6027L28.9284 35.6797C32.1782 38.8346 36.5682 40.8246 41.4522 40.9437C51.7489 41.1948 60.2954 33.0551 60.5465 22.7584C60.7975 12.4617 52.6579 3.91522 42.3612 3.66415C32.0645 3.41308 23.518 11.5527 23.2669 21.8494C23.1478 26.7334 24.9216 31.2152 27.9053 34.6146L26.9912 34.5923C26.7045 34.5853 26.4328 34.6953 26.2219 34.8874L14.3797 46.1658C13.9483 46.5767 13.9317 47.2578 14.3426 47.6892L15.2081 48.598C15.6191 49.0295 16.3001 49.0461 16.7316 48.6352ZM26.1346 21.9194C26.3472 13.1999 33.5718 6.3192 42.2913 6.53181C51.0107 6.74442 57.8914 13.969 57.6788 22.6885C57.4662 31.408 50.2416 38.2887 41.5221 38.076C32.8026 37.8634 25.922 30.6388 26.1346 21.9194Z" fill="url(#paint2_linear)"/>
</g>
<defs>
<linearGradient id="paint0_linear" x1="12.6474" y1="-17.1224" x2="-17.4591" y2="45.2978" gradientUnits="userSpaceOnUse">
<stop stop-color="#3FAFC3"/>
<stop offset="1" stop-color="#A8EB9D"/>
</linearGradient>
<linearGradient id="paint1_linear" x1="30.3004" y1="12.391" x2="23.9548" y2="55.17" gradientUnits="userSpaceOnUse">
<stop stop-color="#3EAFC3"/>
<stop offset="1" stop-color="#A5EB9D" stop-opacity="0.12"/>
</linearGradient>
<linearGradient id="paint2_linear" x1="60.4416" y1="27.061" x2="14.5568" y2="25.9422" gradientUnits="userSpaceOnUse">
<stop stop-color="#002D31"/>
<stop offset="1" stop-color="#3EAFC3"/>
</linearGradient>
<clipPath id="clip0">
<rect width="45.8962" height="45.8962" fill="white" transform="translate(61.001 4.11865) rotate(91.3968)"/>
</clipPath>
</defs>
</svg>
