<svg width="82" height="61" viewBox="0 0 82 61" fill="none" xmlns="http://www.w3.org/2000/svg">
<path d="M3 5L21.2392 5C22.6543 5 23.9641 5.74768 24.6836 6.96619L28.2664 13.0338C28.9859 14.2523 30.2956 15 31.7107 15H68C69.6569 15 71 16.3431 71 18V58C71 59.6569 69.6569 61 68 61H3C1.34315 61 0 59.6569 0 58L0 8C0 6.34315 1.34315 5 3 5Z" fill="url(#paint0_linear)"/>
<path d="M11.4694 21.7319L78.2753 21.7319C79.9321 21.7319 81.2753 23.0751 81.2753 24.7319C81.2753 24.9833 81.2437 25.2336 81.1812 25.4771L72.7197 58.4771C72.3795 59.804 71.1836 60.7319 69.8137 60.7319H3.00781C1.35096 60.7319 0.0078125 59.3888 0.0078125 57.7319C0.0078125 57.4806 0.0393961 57.2303 0.101821 56.9868L8.56336 23.9868C8.9036 22.6599 10.0995 21.7319 11.4694 21.7319Z" fill="url(#paint1_linear)"/>
<path fill-rule="evenodd" clip-rule="evenodd" d="M67 29C67 45.0163 54.0163 58 38 58C21.9837 58 9 45.0163 9 29C9 12.9837 21.9837 0 38 0C54.0163 0 67 12.9837 67 29ZM49.487 10.6396L20.3929 41.6169C7.11688 23.0682 28.2078 -1.88312 49.487 10.6396ZM55.4188 16.1006L26.6071 47.3604C46.3799 59.5065 69.3539 36.5325 55.4188 16.1006Z" fill="#FF0000" fill-opacity="0.66"/>
<defs>
<linearGradient id="paint0_linear" x1="12.6474" y1="-12.1224" x2="-17.4591" y2="50.2978" gradientUnits="userSpaceOnUse">
<stop stop-color="#3FAFC3"/>
<stop offset="1" stop-color="#A8EB9D"/>
</linearGradient>
<linearGradient id="paint1_linear" x1="30.3004" y1="17.391" x2="23.9548" y2="60.17" gradientUnits="userSpaceOnUse">
<stop stop-color="#3EAFC3"/>
<stop offset="1" stop-color="#A5EB9D" stop-opacity="0.12"/>
</linearGradient>
</defs>
</svg>
