<svg width="83" height="61" viewBox="0 0 83 61" fill="none" xmlns="http://www.w3.org/2000/svg">
<path d="M4 5L22.2392 5C23.6543 5 24.9641 5.74768 25.6836 6.96619L29.2664 13.0338C29.9859 14.2523 31.2956 15 32.7107 15H69C70.6569 15 72 16.3431 72 18V58C72 59.6569 70.6569 61 69 61H4C2.34315 61 1 59.6569 1 58L1 8C1 6.34315 2.34315 5 4 5Z" fill="url(#paint0_linear)"/>
<path d="M12.4694 21.7319L79.2753 21.7319C80.9321 21.7319 82.2753 23.0751 82.2753 24.7319C82.2753 24.9833 82.2437 25.2336 82.1812 25.4771L73.7197 58.4771C73.3795 59.804 72.1836 60.7319 70.8137 60.7319H4.00781C2.35096 60.7319 1.00781 59.3888 1.00781 57.7319C1.00781 57.4806 1.0394 57.2303 1.10182 56.9868L9.56336 23.9868C9.9036 22.6599 11.0995 21.7319 12.4694 21.7319Z" fill="url(#paint1_linear)"/>
<rect y="4" width="82" height="57" fill="white" fill-opacity="0.55"/>
<path d="M35.6226 32.623C35.6226 30.9243 35.9329 29.5197 36.5536 28.409C37.1742 27.2657 38.0399 26.057 39.1506 24.783C39.9999 23.803 40.6206 22.97 41.0126 22.284C41.4372 21.598 41.6496 20.8467 41.6496 20.03C41.6496 19.05 41.3229 18.2987 40.6696 17.776C40.0162 17.2533 39.0852 16.992 37.8766 16.992C36.5699 16.992 35.1489 17.286 33.6136 17.874C32.0782 18.462 30.5756 19.2787 29.1056 20.324L26.6556 14.885C27.9949 13.709 29.7426 12.778 31.8986 12.092C34.0872 11.3733 36.2759 11.014 38.4646 11.014C40.5552 11.014 42.4009 11.3733 44.0016 12.092C45.6349 12.778 46.8926 13.758 47.7746 15.032C48.6892 16.2733 49.1466 17.6943 49.1466 19.295C49.1466 20.5037 48.9179 21.6143 48.4606 22.627C48.0032 23.607 47.4479 24.4727 46.7946 25.224C46.1739 25.9427 45.3082 26.8247 44.1976 27.87C42.9562 29.046 42.0252 30.0423 41.4046 30.859C40.7839 31.643 40.3919 32.5087 40.2286 33.456L39.9346 35.073H35.6226V32.623ZM33.9566 38.16H41.8456V46H33.9566V38.16Z" fill="#373A5B" fill-opacity="0.59"/>
<path d="M35.6226 31.623C35.6226 29.9243 35.9329 28.5197 36.5536 27.409C37.1742 26.2657 38.0399 25.057 39.1506 23.783C39.9999 22.803 40.6206 21.97 41.0126 21.284C41.4372 20.598 41.6496 19.8467 41.6496 19.03C41.6496 18.05 41.3229 17.2987 40.6696 16.776C40.0162 16.2533 39.0852 15.992 37.8766 15.992C36.5699 15.992 35.1489 16.286 33.6136 16.874C32.0782 17.462 30.5756 18.2787 29.1056 19.324L26.6556 13.885C27.9949 12.709 29.7426 11.778 31.8986 11.092C34.0872 10.3733 36.2759 10.014 38.4646 10.014C40.5552 10.014 42.4009 10.3733 44.0016 11.092C45.6349 11.778 46.8926 12.758 47.7746 14.032C48.6892 15.2733 49.1466 16.6943 49.1466 18.295C49.1466 19.5037 48.9179 20.6143 48.4606 21.627C48.0032 22.607 47.4479 23.4727 46.7946 24.224C46.1739 24.9427 45.3082 25.8247 44.1976 26.87C42.9562 28.046 42.0252 29.0423 41.4046 29.859C40.7839 30.643 40.3919 31.5087 40.2286 32.456L39.9346 34.073H35.6226V31.623ZM33.9566 37.16H41.8456V45H33.9566V37.16Z" fill="#00C2FF"/>
<defs>
<linearGradient id="paint0_linear" x1="13.6474" y1="-12.1224" x2="-16.4591" y2="50.2978" gradientUnits="userSpaceOnUse">
<stop stop-color="#3FAFC3"/>
<stop offset="1" stop-color="#A8EB9D"/>
</linearGradient>
<linearGradient id="paint1_linear" x1="31.3004" y1="17.391" x2="24.9548" y2="60.17" gradientUnits="userSpaceOnUse">
<stop stop-color="#3EAFC3"/>
<stop offset="1" stop-color="#A5EB9D" stop-opacity="0.12"/>
</linearGradient>
</defs>
</svg>
