<svg width="75" height="88" viewBox="0 0 75 88" fill="none" xmlns="http://www.w3.org/2000/svg">
<rect width="75" height="88" fill="white" fill-opacity="0.2"/>
<path d="M13.7033 7L44.5275 7C45.5347 7 46.5051 7.37786 47.2471 8.05888L66.6976 25.9111C67.5276 26.6728 68 27.7477 68 28.8742V74.033C68 77.7351 64.9988 80.7363 61.2967 80.7363H13.7033C10.0012 80.7363 7 77.7351 7 74.033V13.7033C7 10.0012 10.0012 7 13.7033 7Z" fill="url(#paint0_linear)"/>
<mask id="mask0" mask-type="alpha" maskUnits="userSpaceOnUse" x="7" y="7" width="61" height="74">
<path d="M13.7033 7L44.5275 7C45.5347 7 46.5051 7.37786 47.2471 8.05888L66.6976 25.9111C67.5276 26.6728 68 27.7477 68 28.8742V74.033C68 77.7351 64.9988 80.7363 61.2967 80.7363H13.7033C10.0012 80.7363 7 77.7351 7 74.033V13.7033C7 10.0012 10.0012 7 13.7033 7Z" fill="white"/>
</mask>
<g mask="url(#mask0)">
<path d="M28.1601 20.1548C28.5527 19.7621 29.1894 19.7621 29.5821 20.1548C29.9747 20.5475 29.9747 21.1841 29.5821 21.5768L23.4201 27.7387C23.0274 28.1314 22.3908 28.1314 21.9981 27.7387L18.2062 23.9468C17.8135 23.5541 17.8135 22.9174 18.2062 22.5248C18.5988 22.1321 19.2355 22.1321 19.6282 22.5248L22.7091 25.6057L28.1601 20.1548Z" fill="white"/>
<path d="M51.8996 -45.5317L82.7238 -45.5317C83.7309 -45.5317 84.7014 -45.1539 85.4434 -44.4729L104.894 -26.6206C105.724 -25.8589 106.196 -24.784 106.196 -23.6575V21.5012C106.196 25.2034 103.195 28.2045 99.493 28.2045H51.8996C48.1975 28.2045 45.1963 25.2034 45.1963 21.5012V-38.8284C45.1963 -42.5306 48.1975 -45.5317 51.8996 -45.5317Z" fill="url(#paint1_linear)"/>
<path d="M18.5289 55.5842C17.9736 55.5842 17.5234 55.1341 17.5234 54.5787C17.5234 54.0234 17.9736 53.5732 18.5289 53.5732H35.5629C36.1182 53.5732 36.5684 54.0234 36.5684 54.5787C36.5684 55.1341 36.1182 55.5842 35.5629 55.5842H18.5289Z" fill="white"/>
<path opacity="0.3" d="M18.5289 63.6282C17.9736 63.6282 17.5234 63.178 17.5234 62.6227C17.5234 62.0674 17.9736 61.6172 18.5289 61.6172H48.9695C49.5248 61.6172 49.975 62.0674 49.975 62.6227C49.975 63.178 49.5248 63.6282 48.9695 63.6282H18.5289Z" fill="white"/>
</g>
<path d="M18.0504 47.4768C17.5533 47.4768 17.1504 47.0738 17.1504 46.5768C17.1504 46.0797 17.5533 45.6768 18.0504 45.6768H27.9491C28.4462 45.6768 28.8491 46.0797 28.8491 46.5768C28.8491 47.0738 28.4462 47.4768 27.9491 47.4768H18.0504Z" fill="#E4BFF1"/>
<path opacity="0.1" d="M26 40C32.0751 40 37 35.0751 37 29C37 22.9249 32.0751 18 26 18C19.9249 18 15 22.9249 15 29C15 35.0751 19.9249 40 26 40Z" fill="#373A5B"/>
<path d="M26 37C32.0751 37 37 32.0751 37 26C37 19.9249 32.0751 15 26 15C19.9249 15 15 19.9249 15 26C15 32.0751 19.9249 37 26 37Z" fill="white"/>
<path d="M29.8738 30.3834C29.8738 30.9357 29.426 31.3834 28.8738 31.3834C28.3215 31.3834 27.8738 30.9357 27.8738 30.3834C27.8738 29.411 27.0518 28.6113 26.0243 28.6113C24.9968 28.6113 24.1748 29.411 24.1748 30.3834C24.1748 30.9357 23.7271 31.3834 23.1748 31.3834C22.6225 31.3834 22.1748 30.9357 22.1748 30.3834C22.1748 28.2939 23.9043 26.6113 26.0243 26.6113C28.1442 26.6113 29.8738 28.2939 29.8738 30.3834Z" fill="#F9B9BD"/>
<path fill-rule="evenodd" clip-rule="evenodd" d="M22.1748 24.6842C22.1748 26.7737 23.9043 28.4563 26.0243 28.4563C28.1442 28.4563 29.8738 26.7737 29.8738 24.6842C29.8738 22.5947 28.1442 20.9121 26.0243 20.9121C23.9043 20.9121 22.1748 22.5947 22.1748 24.6842ZM27.8738 24.6842C27.8738 25.6566 27.0518 26.4563 26.0243 26.4563C24.9968 26.4563 24.1748 25.6566 24.1748 24.6842C24.1748 23.7118 24.9968 22.9121 26.0243 22.9121C27.0518 22.9121 27.8738 23.7118 27.8738 24.6842Z" fill="#F3747B"/>
<defs>
<linearGradient id="paint0_linear" x1="30.0785" y1="84.2213" x2="40.9781" y2="10.2121" gradientUnits="userSpaceOnUse">
<stop stop-color="#A8EB9D"/>
<stop offset="1" stop-color="#3EAFC3"/>
</linearGradient>
<linearGradient id="paint1_linear" x1="68.2748" y1="31.6895" x2="79.1744" y2="-42.3196" gradientUnits="userSpaceOnUse">
<stop stop-color="#9FE6A1"/>
<stop offset="1" stop-color="#3488ED"/>
</linearGradient>
</defs>
</svg>
