<svg width="75" height="88" viewBox="0 0 75 88" fill="none" xmlns="http://www.w3.org/2000/svg">
<rect width="75" height="88" fill="white" fill-opacity="0.2"/>
<path d="M13.7033 8L44.5275 8C45.5347 8 46.5051 8.37786 47.2471 9.05888L66.6976 26.9111C67.5276 27.6728 68 28.7477 68 29.8742V75.033C68 78.7351 64.9988 81.7363 61.2967 81.7363H13.7033C10.0012 81.7363 7 78.7351 7 75.033V14.7033C7 11.0012 10.0012 8 13.7033 8Z" fill="url(#paint0_linear)"/>
<path d="M13.7033 8L44.5275 8C45.5347 8 46.5051 8.37786 47.2471 9.05888L66.6976 26.9111C67.5276 27.6728 68 28.7477 68 29.8742V75.033C68 78.7351 64.9988 81.7363 61.2967 81.7363H13.7033C10.0012 81.7363 7 78.7351 7 75.033V14.7033C7 11.0012 10.0012 8 13.7033 8Z" fill="white" fill-opacity="0.55"/>
<mask id="mask0" mask-type="alpha" maskUnits="userSpaceOnUse" x="7" y="8" width="61" height="74">
<path d="M13.7033 8L44.5275 8C45.5347 8 46.5051 8.37786 47.2471 9.05888L66.6976 26.9111C67.5276 27.6728 68 28.7477 68 29.8742V75.033C68 78.7351 64.9988 81.7363 61.2967 81.7363H13.7033C10.0012 81.7363 7 78.7351 7 75.033V14.7033C7 11.0012 10.0012 8 13.7033 8Z" fill="white"/>
</mask>
<g mask="url(#mask0)">
<path d="M28.1601 21.1548C28.5527 20.7621 29.1894 20.7621 29.5821 21.1548C29.9747 21.5475 29.9747 22.1841 29.5821 22.5768L23.4201 28.7387C23.0274 29.1314 22.3908 29.1314 21.9981 28.7387L18.2062 24.9468C17.8135 24.5541 17.8135 23.9174 18.2062 23.5248C18.5988 23.1321 19.2355 23.1321 19.6282 23.5248L22.7091 26.6057L28.1601 21.1548Z" fill="white"/>
<path d="M51.8996 -44.5317L82.7238 -44.5317C83.7309 -44.5317 84.7014 -44.1539 85.4434 -43.4729L104.894 -25.6206C105.724 -24.8589 106.196 -23.784 106.196 -22.6575V22.5012C106.196 26.2034 103.195 29.2045 99.493 29.2045H51.8996C48.1975 29.2045 45.1963 26.2034 45.1963 22.5012V-37.8284C45.1963 -41.5306 48.1975 -44.5317 51.8996 -44.5317Z" fill="url(#paint1_linear)"/>
<path d="M18.5289 56.5842C17.9736 56.5842 17.5234 56.1341 17.5234 55.5787C17.5234 55.0234 17.9736 54.5732 18.5289 54.5732H35.5629C36.1182 54.5732 36.5684 55.0234 36.5684 55.5787C36.5684 56.1341 36.1182 56.5842 35.5629 56.5842H18.5289Z" fill="white"/>
<path opacity="0.3" d="M18.5289 64.6282C17.9736 64.6282 17.5234 64.178 17.5234 63.6227C17.5234 63.0674 17.9736 62.6172 18.5289 62.6172H48.9695C49.5248 62.6172 49.975 63.0674 49.975 63.6227C49.975 64.178 49.5248 64.6282 48.9695 64.6282H18.5289Z" fill="white"/>
</g>
<path d="M26 38C32.0751 38 37 33.0751 37 27C37 20.9249 32.0751 16 26 16C19.9249 16 15 20.9249 15 27C15 33.0751 19.9249 38 26 38Z" fill="white"/>
<path d="M29.8738 31.3834C29.8738 31.9357 29.426 32.3834 28.8738 32.3834C28.3215 32.3834 27.8738 31.9357 27.8738 31.3834C27.8738 30.411 27.0518 29.6113 26.0243 29.6113C24.9968 29.6113 24.1748 30.411 24.1748 31.3834C24.1748 31.9357 23.7271 32.3834 23.1748 32.3834C22.6225 32.3834 22.1748 31.9357 22.1748 31.3834C22.1748 29.2939 23.9043 27.6113 26.0243 27.6113C28.1442 27.6113 29.8738 29.2939 29.8738 31.3834Z" fill="#F9B9BD"/>
<path fill-rule="evenodd" clip-rule="evenodd" d="M22.1748 25.6842C22.1748 27.7737 23.9043 29.4563 26.0243 29.4563C28.1442 29.4563 29.8738 27.7737 29.8738 25.6842C29.8738 23.5947 28.1442 21.9121 26.0243 21.9121C23.9043 21.9121 22.1748 23.5947 22.1748 25.6842ZM27.8738 25.6842C27.8738 26.6566 27.0518 27.4563 26.0243 27.4563C24.9968 27.4563 24.1748 26.6566 24.1748 25.6842C24.1748 24.7118 24.9968 23.9121 26.0243 23.9121C27.0518 23.9121 27.8738 24.7118 27.8738 25.6842Z" fill="#F3747B"/>
<path d="M34.6226 47.623C34.6226 45.9243 34.9329 44.5197 35.5536 43.409C36.1742 42.2657 37.0399 41.057 38.1506 39.783C38.9999 38.803 39.6206 37.97 40.0126 37.284C40.4372 36.598 40.6496 35.8467 40.6496 35.03C40.6496 34.05 40.3229 33.2987 39.6696 32.776C39.0162 32.2533 38.0852 31.992 36.8766 31.992C35.5699 31.992 34.1489 32.286 32.6136 32.874C31.0782 33.462 29.5756 34.2787 28.1056 35.324L25.6556 29.885C26.9949 28.709 28.7426 27.778 30.8986 27.092C33.0872 26.3733 35.2759 26.014 37.4646 26.014C39.5552 26.014 41.4009 26.3733 43.0016 27.092C44.6349 27.778 45.8926 28.758 46.7746 30.032C47.6892 31.2733 48.1466 32.6943 48.1466 34.295C48.1466 35.5037 47.9179 36.6143 47.4606 37.627C47.0032 38.607 46.4479 39.4727 45.7946 40.224C45.1739 40.9427 44.3082 41.8247 43.1976 42.87C41.9562 44.046 41.0252 45.0423 40.4046 45.859C39.7839 46.643 39.3919 47.5087 39.2286 48.456L38.9346 50.073H34.6226V47.623ZM32.9566 53.16H40.8456V61H32.9566V53.16Z" fill="#373A5B" fill-opacity="0.59"/>
<path d="M34.6226 46.623C34.6226 44.9243 34.9329 43.5197 35.5536 42.409C36.1742 41.2657 37.0399 40.057 38.1506 38.783C38.9999 37.803 39.6206 36.97 40.0126 36.284C40.4372 35.598 40.6496 34.8467 40.6496 34.03C40.6496 33.05 40.3229 32.2987 39.6696 31.776C39.0162 31.2533 38.0852 30.992 36.8766 30.992C35.5699 30.992 34.1489 31.286 32.6136 31.874C31.0782 32.462 29.5756 33.2787 28.1056 34.324L25.6556 28.885C26.9949 27.709 28.7426 26.778 30.8986 26.092C33.0872 25.3733 35.2759 25.014 37.4646 25.014C39.5552 25.014 41.4009 25.3733 43.0016 26.092C44.6349 26.778 45.8926 27.758 46.7746 29.032C47.6892 30.2733 48.1466 31.6943 48.1466 33.295C48.1466 34.5037 47.9179 35.6143 47.4606 36.627C47.0032 37.607 46.4479 38.4727 45.7946 39.224C45.1739 39.9427 44.3082 40.8247 43.1976 41.87C41.9562 43.046 41.0252 44.0423 40.4046 44.859C39.7839 45.643 39.3919 46.5087 39.2286 47.456L38.9346 49.073H34.6226V46.623ZM32.9566 52.16H40.8456V60H32.9566V52.16Z" fill="#00C2FF"/>
<path d="M18.0504 48.4768C17.5533 48.4768 17.1504 48.0738 17.1504 47.5768C17.1504 47.0797 17.5533 46.6768 18.0504 46.6768H27.9491C28.4462 46.6768 28.8491 47.0797 28.8491 47.5768C28.8491 48.0738 28.4462 48.4768 27.9491 48.4768H18.0504Z" fill="#E4BFF1"/>
<path opacity="0.1" d="M26 41C32.0751 41 37 36.0751 37 30C37 23.9249 32.0751 19 26 19C19.9249 19 15 23.9249 15 30C15 36.0751 19.9249 41 26 41Z" fill="#373A5B"/>
<defs>
<linearGradient id="paint0_linear" x1="30.0785" y1="85.2213" x2="40.9781" y2="11.2121" gradientUnits="userSpaceOnUse">
<stop stop-color="#A8EB9D"/>
<stop offset="1" stop-color="#3EAFC3"/>
</linearGradient>
<linearGradient id="paint1_linear" x1="68.2748" y1="32.6895" x2="79.1744" y2="-41.3196" gradientUnits="userSpaceOnUse">
<stop stop-color="#9AE2A5"/>
<stop offset="1" stop-color="#3488ED"/>
</linearGradient>
</defs>
</svg>
