<svg width="431" height="383" viewBox="0 0 431 383" fill="none" xmlns="http://www.w3.org/2000/svg">
<g clip-path="url(#clip0)">
<path d="M99.0474 251.818C79.6912 179.58 122.56 105.328 194.799 85.9717L429.635 23.0474C501.873 3.69123 576.125 46.5605 595.481 118.799V118.799C614.837 191.037 571.968 265.288 499.73 284.645L264.893 347.569C192.655 366.925 118.403 324.056 99.0474 251.818V251.818Z" fill="url(#paint0_linear)"/>
<path opacity="0.449823" d="M193.238 334.845C190.878 326.035 196.106 316.979 204.916 314.619L226.6 308.809C235.409 306.448 244.465 311.676 246.826 320.486V320.486C249.186 329.296 243.958 338.351 235.148 340.712L213.464 346.522C204.654 348.883 195.599 343.655 193.238 334.845V334.845Z" fill="white"/>
<path opacity="0.2" d="M323.682 102.847C321.321 94.0371 326.55 84.9816 335.359 82.621L357.043 76.8108C365.853 74.4502 374.909 79.6784 377.269 88.4883V88.4883C379.63 97.2981 374.402 106.354 365.592 108.714L343.908 114.524C335.098 116.885 326.043 111.657 323.682 102.847V102.847Z" fill="#3F4479"/>
<path opacity="0.449823" d="M297.855 297.303C295.494 288.493 300.722 279.438 309.532 277.077L331.216 271.267C340.026 268.907 349.082 274.135 351.442 282.945V282.945C353.803 291.754 348.575 300.81 339.765 303.171L318.081 308.981C309.271 311.341 300.215 306.113 297.855 297.303V297.303Z" fill="white"/>
<path opacity="0.2" d="M302.751 324.726C301.858 321.392 303.836 317.965 307.17 317.071L315.376 314.873C318.71 313.979 322.137 315.958 323.031 319.292V319.292C323.924 322.626 321.946 326.053 318.612 326.946L310.405 329.145C307.071 330.038 303.644 328.06 302.751 324.726V324.726Z" fill="#3F4479"/>
<path opacity="0.449823" d="M229.202 94.0532C228.309 90.7191 230.287 87.2921 233.621 86.3988L241.828 84.1999C245.162 83.3066 248.589 85.2852 249.482 88.6192V88.6192C250.375 91.9533 248.397 95.3803 245.063 96.2736L236.856 98.4725C233.522 99.3659 230.095 97.3873 229.202 94.0532V94.0532Z" fill="white"/>
</g>
<defs>
<linearGradient id="paint0_linear" x1="140.903" y1="9.28297" x2="144.569" y2="335.637" gradientUnits="userSpaceOnUse">
<stop stop-color="#39ABC5"/>
<stop offset="1" stop-color="#A8EB9D"/>
</linearGradient>
<clipPath id="clip0">
<rect width="431" height="383" fill="white"/>
</clipPath>
</defs>
</svg>
