<svg width="782" height="540" viewBox="0 0 782 540" fill="none" xmlns="http://www.w3.org/2000/svg">
<path d="M548.131 429.703C556.967 429.703 564.131 422.539 564.131 413.703C564.131 404.866 556.967 397.703 548.131 397.703C539.294 397.703 532.131 404.866 532.131 413.703C532.131 422.539 539.294 429.703 548.131 429.703Z" fill="url(#paint0_linear)"/>
<path opacity="0.3" fill-rule="evenodd" clip-rule="evenodd" d="M535.287 413.702C535.287 420.796 541.037 426.547 548.131 426.547C555.225 426.547 560.976 420.796 560.976 413.702C560.976 406.609 555.225 400.858 548.131 400.858C541.037 400.858 535.287 406.609 535.287 413.702ZM558.976 413.702C558.976 419.692 554.12 424.547 548.131 424.547C542.142 424.547 537.287 419.692 537.287 413.702C537.287 407.713 542.142 402.858 548.131 402.858C554.12 402.858 558.976 407.713 558.976 413.702Z" fill="white"/>
<path fill-rule="evenodd" clip-rule="evenodd" d="M551.712 415.62C551.712 416.322 551.472 416.914 550.991 417.395C550.51 417.876 549.862 418.185 549.047 418.324V419.065C549.047 419.299 548.976 419.488 548.833 419.631C548.69 419.774 548.501 419.845 548.267 419.845C548.042 419.845 547.856 419.774 547.708 419.631C547.561 419.488 547.487 419.299 547.487 419.065V418.363C547.011 418.32 546.549 418.22 546.103 418.064C545.656 417.908 545.264 417.709 544.926 417.466C544.788 417.379 544.69 417.282 544.634 417.174C544.577 417.065 544.549 416.929 544.549 416.764C544.549 416.547 544.616 416.357 544.751 416.192C544.885 416.027 545.039 415.945 545.212 415.945C545.377 415.945 545.581 416.014 545.823 416.153C546.222 416.387 546.601 416.558 546.961 416.667C547.32 416.775 547.695 416.829 548.085 416.829C548.605 416.829 549.004 416.732 549.281 416.537C549.559 416.342 549.697 416.066 549.697 415.711C549.697 415.494 549.617 415.317 549.457 415.178C549.296 415.039 549.099 414.931 548.865 414.853C548.631 414.775 548.293 414.675 547.851 414.554C547.21 414.389 546.681 414.225 546.265 414.06C545.849 413.895 545.492 413.635 545.193 413.28C544.894 412.925 544.744 412.448 544.744 411.85C544.744 411.148 544.993 410.546 545.492 410.043C545.99 409.54 546.642 409.22 547.448 409.081V408.34C547.448 408.106 547.522 407.918 547.669 407.775C547.817 407.632 548.003 407.56 548.228 407.56C548.462 407.56 548.651 407.632 548.794 407.775C548.937 407.918 549.008 408.106 549.008 408.34V409.055C549.788 409.159 550.521 409.454 551.205 409.939C551.335 410.026 551.428 410.125 551.485 410.238C551.541 410.351 551.569 410.485 551.569 410.641C551.569 410.858 551.502 411.048 551.368 411.213C551.233 411.378 551.08 411.46 550.906 411.46C550.811 411.46 550.722 411.447 550.64 411.421C550.557 411.395 550.443 411.339 550.295 411.252C549.94 411.027 549.621 410.858 549.34 410.745C549.058 410.632 548.714 410.576 548.306 410.576C547.838 410.576 547.463 410.68 547.182 410.888C546.9 411.096 546.759 411.373 546.759 411.72C546.759 411.963 546.842 412.16 547.006 412.312C547.171 412.463 547.379 412.582 547.63 412.669C547.882 412.756 548.233 412.855 548.683 412.968C549.316 413.124 549.834 413.282 550.237 413.443C550.64 413.603 550.986 413.859 551.277 414.21C551.567 414.561 551.712 415.031 551.712 415.62Z" fill="white"/>
<path d="M372.667 351.418C372.667 342.549 379.857 335.359 388.726 335.359C397.595 335.359 404.785 342.549 404.785 351.418C404.785 356.937 402.599 361.254 398.228 364.37C397.175 365.12 396.549 366.334 396.549 367.627L396.549 370.771H380.902V367.627C380.902 366.334 380.277 365.12 379.224 364.37C374.853 361.254 372.667 356.937 372.667 351.418Z" fill="url(#paint1_linear)"/>
<path opacity="0.3" fill-rule="evenodd" clip-rule="evenodd" d="M380.314 352.176C380.314 356.822 384.08 360.588 388.726 360.588C393.371 360.588 397.137 356.822 397.137 352.176C397.137 347.531 393.371 343.765 388.726 343.765C384.08 343.765 380.314 347.531 380.314 352.176ZM395.137 352.176C395.137 355.718 392.267 358.588 388.726 358.588C385.185 358.588 382.314 355.718 382.314 352.176C382.314 348.635 385.185 345.765 388.726 345.765C392.267 345.765 395.137 348.635 395.137 352.176Z" fill="white"/>
<path d="M383.373 372.147H394.079C395.443 372.147 396.549 373.253 396.549 374.618C396.549 375.982 395.443 377.088 394.079 377.088H383.373C382.008 377.088 380.902 375.982 380.902 374.618C380.902 373.253 382.008 372.147 383.373 372.147Z" fill="url(#paint2_linear)"/>
<path d="M386.349 352.41C386.161 352.598 385.907 352.703 385.642 352.703H378.468C377.916 352.703 377.468 352.256 377.468 351.703C377.468 351.151 377.916 350.703 378.468 350.703H385.228L387.334 348.597C387.868 348.063 388.779 348.29 388.998 349.013L390.069 352.535L390.721 351.251C390.892 350.915 391.236 350.703 391.613 350.703H400.187C400.739 350.703 401.187 351.151 401.187 351.703C401.187 352.256 400.739 352.703 400.187 352.703H392.227L390.727 355.657C390.32 356.46 389.141 356.357 388.879 355.495L387.57 351.19L386.349 352.41Z" fill="white"/>
<path d="M642 149C650.837 149 658 141.837 658 133C658 124.163 650.837 117 642 117C633.163 117 626 124.163 626 133C626 141.837 633.163 149 642 149Z" fill="url(#paint3_linear)"/>
<path d="M646.389 129.754C646.779 129.364 647.413 129.364 647.803 129.754C648.194 130.145 648.194 130.778 647.803 131.169L642.146 136.826C641.756 137.216 641.123 137.216 640.732 136.826L637.197 133.29C636.806 132.899 636.806 132.266 637.197 131.876C637.587 131.485 638.22 131.485 638.611 131.876L641.439 134.704L646.389 129.754Z" fill="white"/>
<defs>
<linearGradient id="paint0_linear" x1="537.831" y1="387.918" x2="518.263" y2="419.918" gradientUnits="userSpaceOnUse">
<stop stop-color="#FFB782"/>
<stop offset="1" stop-color="#EB4878"/>
</linearGradient>
<linearGradient id="paint1_linear" x1="390.408" y1="397.655" x2="425.827" y2="356.067" gradientUnits="userSpaceOnUse">
<stop stop-color="#FFCFAA"/>
<stop offset="1" stop-color="#FA6EB9"/>
</linearGradient>
<linearGradient id="paint2_linear" x1="388.393" y1="371.666" x2="386.421" y2="378.132" gradientUnits="userSpaceOnUse">
<stop stop-color="#E6AAFF"/>
<stop offset="1" stop-color="#3488ED"/>
</linearGradient>
<linearGradient id="paint3_linear" x1="648.99" y1="154.451" x2="664.634" y2="122.243" gradientUnits="userSpaceOnUse">
<stop stop-color="#39ABC5"/>
<stop offset="1" stop-color="#A8EB9D"/>
</linearGradient>
</defs>
</svg>
