<svg width="782" height="540" viewBox="0 0 782 540" fill="none" xmlns="http://www.w3.org/2000/svg">
<g filter="url(#filter0_d)">
<path d="M432.131 307.359H566.131C570.549 307.359 574.131 310.941 574.131 315.359V355.359C574.131 359.777 570.549 363.359 566.131 363.359H432.131C427.713 363.359 424.131 359.777 424.131 355.359V315.359C424.131 310.941 427.713 307.359 432.131 307.359Z" fill="url(#paint0_linear)"/>
<path d="M484.131 331.859C483.026 331.859 482.131 330.964 482.131 329.859C482.131 328.754 483.026 327.859 484.131 327.859H501.868C502.973 327.859 503.868 328.754 503.868 329.859C503.868 330.964 502.973 331.859 501.868 331.859H484.131Z" fill="white"/>
<path opacity="0.3" d="M484.131 341.859C483.026 341.859 482.131 340.964 482.131 339.859C482.131 338.754 483.026 337.859 484.131 337.859H521.868C522.973 337.859 523.868 338.754 523.868 339.859C523.868 340.964 522.973 341.859 521.868 341.859H484.131Z" fill="white"/>
<path opacity="0.2" d="M455.131 348.359C462.311 348.359 468.131 342.539 468.131 335.359C468.131 328.179 462.311 322.359 455.131 322.359C447.951 322.359 442.131 328.179 442.131 335.359C442.131 342.539 447.951 348.359 455.131 348.359Z" fill="white"/>
<path fill-rule="evenodd" clip-rule="evenodd" d="M451.281 333.631C451.281 335.721 453.011 337.403 455.131 337.403C457.251 337.403 458.98 335.721 458.98 333.631C458.98 331.542 457.251 329.859 455.131 329.859C453.011 329.859 451.281 331.542 451.281 333.631ZM456.98 333.631C456.98 334.604 456.158 335.403 455.131 335.403C454.103 335.403 453.281 334.604 453.281 333.631C453.281 332.659 454.103 331.859 455.131 331.859C456.158 331.859 456.98 332.659 456.98 333.631Z" fill="white"/>
<path opacity="0.3" d="M458.98 339.33C458.98 339.882 458.532 340.33 457.98 340.33C457.428 340.33 456.98 339.882 456.98 339.33C456.98 338.358 456.158 337.558 455.131 337.558C454.103 337.558 453.281 338.358 453.281 339.33C453.281 339.882 452.834 340.33 452.281 340.33C451.729 340.33 451.281 339.882 451.281 339.33C451.281 337.241 453.011 335.558 455.131 335.558C457.251 335.558 458.98 337.241 458.98 339.33Z" fill="white"/>
</g>
<path d="M539.823 33H657.177C659.841 33 662 35.1592 662 37.8228V84.443C662 87.1066 659.841 89.2658 657.177 89.2658H554.558C553.359 89.2658 552.203 89.7126 551.315 90.519L543.066 98.0138C541.094 99.8049 538.044 99.6587 536.253 97.6873C535.447 96.7996 535 95.6434 535 94.4442V37.8228C535 35.1592 537.159 33 539.823 33Z" fill="url(#paint1_linear)"/>
<path opacity="0.3" d="M564.077 80.3061C573.843 80.3061 581.761 72.3889 581.761 62.6225C581.761 52.8562 573.843 44.939 564.077 44.939C554.311 44.939 546.394 52.8562 546.394 62.6225C546.394 72.3889 554.311 80.3061 564.077 80.3061Z" fill="#373A5B"/>
<path d="M570.305 69.6694C570.305 70.5573 569.585 71.277 568.697 71.277C567.809 71.277 567.089 70.5573 567.089 69.6694C567.089 68.1062 565.768 66.8207 564.116 66.8207C562.464 66.8207 561.143 68.1062 561.143 69.6694C561.143 70.5573 560.423 71.277 559.535 71.277C558.647 71.277 557.928 70.5573 557.928 69.6694C557.928 66.3103 560.708 63.6055 564.116 63.6055C567.524 63.6055 570.305 66.3103 570.305 69.6694Z" fill="#DCB0B8"/>
<path fill-rule="evenodd" clip-rule="evenodd" d="M557.928 60.5077C557.928 63.8668 560.708 66.5717 564.116 66.5717C567.524 66.5717 570.305 63.8668 570.305 60.5077C570.305 57.1486 567.524 54.4437 564.116 54.4437C560.708 54.4437 557.928 57.1486 557.928 60.5077ZM567.089 60.5078C567.089 62.071 565.768 63.3565 564.116 63.3565C562.464 63.3565 561.143 62.071 561.143 60.5078C561.143 58.9445 562.464 57.659 564.116 57.659C565.768 57.659 567.089 58.9445 567.089 60.5078Z" fill="white"/>
<path d="M593.052 57.6392C592.253 57.6392 591.605 56.9914 591.605 56.1923C591.605 55.3933 592.253 54.7455 593.052 54.7455H608.965C609.765 54.7455 610.412 55.3933 610.412 56.1923C610.412 56.9914 609.765 57.6392 608.965 57.6392H593.052Z" fill="white"/>
<path d="M593.052 68.5503C592.253 68.5503 591.605 67.9025 591.605 67.1035C591.605 66.3044 592.253 65.6566 593.052 65.6566H637.64C638.439 65.6566 639.087 66.3044 639.087 67.1035C639.087 67.9025 638.439 68.5503 637.64 68.5503H593.052Z" fill="#FBBBA5"/>
<path d="M184.192 129.754H211.981C212.889 129.754 213.764 130.095 214.433 130.709L231.969 146.803C232.717 147.49 233.143 148.459 233.143 149.474V190.187C233.143 193.525 230.437 196.23 227.099 196.23H184.192C180.854 196.23 178.148 193.525 178.148 190.187V135.797C178.148 132.46 180.854 129.754 184.192 129.754Z" fill="url(#paint2_linear)"/>
<mask id="mask0" mask-type="alpha" maskUnits="userSpaceOnUse" x="178" y="129" width="56" height="68">
<path d="M184.192 129.754H211.981C212.889 129.754 213.764 130.095 214.433 130.709L231.969 146.803C232.717 147.49 233.143 148.459 233.143 149.474V190.187C233.143 193.525 230.437 196.23 227.099 196.23H184.192C180.854 196.23 178.148 193.525 178.148 190.187V135.797C178.148 132.46 180.854 129.754 184.192 129.754Z" fill="white"/>
</mask>
<g mask="url(#mask0)">
<path d="M187.664 141.207C187.167 141.207 186.764 140.804 186.764 140.307C186.764 139.81 187.167 139.407 187.664 139.407H196.487C196.984 139.407 197.387 139.81 197.387 140.307C197.387 140.804 196.984 141.207 196.487 141.207H187.664Z" fill="white"/>
<path d="M187.664 146.555C187.167 146.555 186.764 146.152 186.764 145.655C186.764 145.157 187.167 144.755 187.664 144.755H202.4C202.897 144.755 203.3 145.157 203.3 145.655C203.3 146.152 202.897 146.555 202.4 146.555H187.664Z" fill="#BF9EF5"/>
<path opacity="0.1" d="M188.411 160.525H222.772C223.876 160.525 224.772 161.42 224.772 162.525V182.525C224.772 183.63 223.876 184.525 222.772 184.525H188.411C187.306 184.525 186.411 183.63 186.411 182.525V162.525C186.411 161.42 187.306 160.525 188.411 160.525Z" fill="#373A5B"/>
<path opacity="0.54" d="M188.411 158.525H222.772C223.876 158.525 224.772 159.42 224.772 160.525V180.525C224.772 181.63 223.876 182.525 222.772 182.525H188.411C187.306 182.525 186.411 181.63 186.411 180.525V160.525C186.411 159.42 187.306 158.525 188.411 158.525Z" fill="white"/>
<path d="M188.411 158.525H211.204V182.525H188.411C187.306 182.525 186.411 181.63 186.411 180.525V160.525C186.411 159.42 187.306 158.525 188.411 158.525Z" fill="white"/>
<path fill-rule="evenodd" clip-rule="evenodd" d="M194.511 167.861C194.511 170.567 196.705 172.761 199.411 172.761C202.117 172.761 204.311 170.567 204.311 167.861C204.311 165.155 202.117 162.961 199.411 162.961C196.705 162.961 194.511 165.155 194.511 167.861ZM202.511 167.861C202.511 169.573 201.123 170.961 199.411 170.961C197.699 170.961 196.311 169.573 196.311 167.861C196.311 166.149 197.699 164.761 199.411 164.761C201.123 164.761 202.511 166.149 202.511 167.861Z" fill="#FB8FB4"/>
<path d="M194.999 177.243C194.502 177.243 194.099 176.841 194.099 176.343C194.099 175.846 194.502 175.443 194.999 175.443H203.822C204.319 175.443 204.722 175.846 204.722 176.343C204.722 176.841 204.319 177.243 203.822 177.243H194.999Z" fill="#D9EFF3"/>
<path d="M218.627 82.394H246.417C247.325 82.394 248.2 82.7347 248.869 83.3487L266.404 99.4433C267.152 100.13 267.578 101.099 267.578 102.115V142.827C267.578 146.165 264.873 148.871 261.535 148.871H218.627C215.29 148.871 212.584 146.165 212.584 142.827V88.4374C212.584 85.0997 215.29 82.394 218.627 82.394Z" fill="url(#paint3_linear)"/>
</g>
<defs>
<filter id="filter0_d" x="380.131" y="285.359" width="238" height="144" filterUnits="userSpaceOnUse" color-interpolation-filters="sRGB">
<feFlood flood-opacity="0" result="BackgroundImageFix"/>
<feColorMatrix in="SourceAlpha" type="matrix" values="0 0 0 0 0 0 0 0 0 0 0 0 0 0 0 0 0 0 127 0"/>
<feOffset dy="22"/>
<feGaussianBlur stdDeviation="22"/>
<feColorMatrix type="matrix" values="0 0 0 0 0.443137 0 0 0 0 0.65098 0 0 0 0 0.972549 0 0 0 0.252887 0"/>
<feBlend mode="normal" in2="BackgroundImageFix" result="effect1_dropShadow"/>
<feBlend mode="normal" in="SourceGraphic" in2="effect1_dropShadow" result="shape"/>
</filter>
<linearGradient id="paint0_linear" x1="586.964" y1="415.123" x2="600.919" y2="309.933" gradientUnits="userSpaceOnUse">
<stop stop-color="#46E5F2"/>
<stop offset="1" stop-color="#9E66FF"/>
</linearGradient>
<linearGradient id="paint1_linear" x1="557.623" y1="12.7384" x2="531.256" y2="95.3727" gradientUnits="userSpaceOnUse">
<stop stop-color="#FFB782"/>
<stop offset="1" stop-color="#EB4878"/>
</linearGradient>
<linearGradient id="paint2_linear" x1="209.206" y1="216.722" x2="215.494" y2="130.858" gradientUnits="userSpaceOnUse">
<stop stop-color="#FF90D7"/>
<stop offset="1" stop-color="#906EFA"/>
</linearGradient>
<linearGradient id="paint3_linear" x1="243.642" y1="169.362" x2="249.929" y2="83.4977" gradientUnits="userSpaceOnUse">
<stop stop-color="#FF90D7"/>
<stop offset="1" stop-color="#906EFA"/>
</linearGradient>
</defs>
</svg>
