<svg width="782" height="540" viewBox="0 0 782 540" fill="none" xmlns="http://www.w3.org/2000/svg">
<path fill-rule="evenodd" clip-rule="evenodd" d="M694.423 176.734C694.279 175.557 694.168 174.658 694.177 174.176C689.228 175.963 675.313 176.567 671.628 174.176C671.501 192.12 673.037 201.532 677.71 201.532C679.137 201.532 681.479 201.274 683.97 200.54L682.085 206.46C682.085 206.46 686.693 212.613 691.499 213.118C696.304 213.623 700.434 208.967 700.434 208.967L699.236 192.755L693.786 192.809C695.791 187.856 694.912 180.709 694.423 176.734Z" fill="url(#paint0_linear)"/>
<path d="M679.441 184.617C678.591 184.617 677.801 184.878 677.141 185.327C676.679 183.372 675.873 179.571 674.639 178.749C669.282 175.179 666.075 169.582 669.875 165.926C673.675 162.271 688.623 165.003 692.398 164.672C698.413 164.145 701.421 166.613 701.423 172.077C702.844 171.395 704.777 171.712 705.248 172.077C707.917 174.142 707.776 183.289 702.844 194.85C701.59 197.789 698.872 199.254 694.869 199.254C691.071 199.254 688.045 199.924 686.352 196.957C685.147 194.847 683.684 193.389 682.253 192.136C683.096 191.346 683.626 190.205 683.626 188.937C683.626 186.551 681.752 184.617 679.441 184.617Z" fill="url(#paint1_linear)"/>
<path d="M661.795 479.785C661.795 479.785 659.838 487.749 647.97 488.354C636.103 488.958 637.854 496.922 637.854 496.922C637.854 496.922 670.988 496.922 677.529 496.922C684.07 496.922 682.486 492.151 682.486 492.151L679.214 479.785H661.795Z" fill="url(#paint2_linear)"/>
<mask id="mask0" mask-type="alpha" maskUnits="userSpaceOnUse" x="637" y="479" width="46" height="18">
<path d="M661.795 479.785C661.795 479.785 659.838 487.749 647.97 488.354C636.103 488.958 637.854 496.922 637.854 496.922C637.854 496.922 670.988 496.922 677.529 496.922C684.07 496.922 682.486 492.151 682.486 492.151L679.214 479.785H661.795Z" fill="white"/>
</mask>
<g mask="url(#mask0)">
<rect opacity="0.2" x="637.629" y="490.847" width="45.1657" height="6.09813" fill="#373A5B"/>
</g>
<path d="M713.473 479.785C713.473 479.785 716.118 484.557 721.153 488.354C726.188 492.151 724.273 496.922 721.515 496.922C718.757 496.922 699.757 496.922 693.216 496.922C686.675 496.922 688.26 492.151 688.26 492.151L696.054 479.785H713.473Z" fill="url(#paint3_linear)"/>
<mask id="mask1" mask-type="alpha" maskUnits="userSpaceOnUse" x="688" y="479" width="37" height="18">
<path d="M713.473 479.785C713.473 479.785 716.118 484.557 721.153 488.354C726.188 492.151 724.273 496.922 721.515 496.922C718.757 496.922 699.757 496.922 693.216 496.922C686.675 496.922 688.26 492.151 688.26 492.151L696.054 479.785H713.473Z" fill="white"/>
</mask>
<g mask="url(#mask1)">
<rect opacity="0.2" x="687.951" y="490.847" width="36.334" height="6.09813" fill="#373A5B"/>
</g>
<path d="M614.874 215.336C617.226 216.928 618.699 219.539 619.293 223.17C618.705 226.949 617.706 229.37 616.295 230.433C614.884 231.495 613.602 231.864 612.451 231.539C609.56 227.624 606.583 224.834 603.519 223.17C598.924 220.673 599.426 219.564 598.743 217.256C598.485 216.382 595.954 212.24 596.001 211.416C596.077 210.062 598.518 210.577 599.687 212.947C600.94 215.489 604.443 216.742 610.196 216.708C608.453 214.2 608.007 212.436 608.856 211.416C610.129 209.884 611.345 212.947 614.874 215.336Z" fill="url(#paint4_linear)"/>
<path d="M708.135 299.021C707.598 299.922 704.758 302.885 704.162 303.538C703.567 304.191 707.071 303.996 706.164 305.449C704.804 307.627 708.918 306.576 708.444 307.987C707.791 309.93 710.93 307.609 712.661 306.239C714.393 304.87 716.349 308.397 720.519 306.48C721.723 305.927 724.442 303.521 727.729 299.931C724.293 294.543 718.378 292.325 718.378 292.325L715.239 292.794L715.42 294.614C715.548 295.558 715.198 296.786 714.054 296.786C712.91 296.786 707.845 296.763 706.664 297.21C705.483 297.658 701.532 300.266 701.532 300.266C701.777 301.278 704.162 301.121 705.483 299.931C706.22 299.268 708.211 298.894 708.135 299.021Z" fill="url(#paint5_linear)"/>
<path d="M716.137 302.262C722.804 348.422 713.017 367.502 716.137 408.13C716.856 417.494 716.137 453.091 715.244 470.995C715.051 474.863 717.644 479.682 713.397 480.594C709.149 481.507 696.577 481.141 693.816 481.141C691.055 481.141 692.542 476.352 692.542 472.615C692.542 444.395 688.261 442.642 689.178 427.822C690.338 409.078 689.716 383.071 682.795 349.802C675.887 367.036 667.909 383.721 663.378 399.857C659.604 413.3 671.561 429.012 675.528 455.312C676.088 459.022 684.008 479.37 679.755 480.019C675.502 480.668 664.631 480.668 661.702 480.565C658.774 480.463 655.722 470.582 652.139 459.104C648.555 447.625 630.902 415.232 630.902 399.857C630.902 389.608 639.219 357.076 655.854 302.262H716.137Z" fill="url(#paint6_linear)"/>
<mask id="mask2" mask-type="alpha" maskUnits="userSpaceOnUse" x="630" y="302" width="89" height="180">
<path d="M716.137 302.262C722.804 348.422 713.017 367.502 716.137 408.13C716.856 417.494 716.137 453.091 715.244 470.995C715.051 474.863 717.644 479.682 713.397 480.594C709.149 481.507 696.577 481.141 693.816 481.141C691.055 481.141 692.542 476.352 692.542 472.615C692.542 444.395 688.261 442.642 689.178 427.822C690.338 409.078 689.716 383.071 682.795 349.802C675.887 367.036 667.909 383.721 663.378 399.857C659.604 413.3 671.561 429.012 675.528 455.312C676.088 459.022 684.008 479.37 679.755 480.019C675.502 480.668 664.631 480.668 661.702 480.565C658.774 480.463 655.722 470.582 652.139 459.104C648.555 447.625 630.902 415.232 630.902 399.857C630.902 389.608 639.219 357.076 655.854 302.262H716.137Z" fill="white"/>
</mask>
<g mask="url(#mask2)">
<path opacity="0.3" d="M715.519 307.803C715.519 307.803 710.9 315.014 691.431 315.014C671.963 315.014 682.44 330.24 662.552 335.264C642.665 340.289 653.373 361.954 641.282 361.954C629.192 361.954 638.232 302.262 638.232 302.262L715.519 307.803Z" fill="#151731"/>
<path opacity="0.3" d="M682.795 349.802C682.795 349.802 691.857 335.773 694.212 324.442C694.212 324.442 695.992 340.19 690.26 347.332C684.528 354.475 698.339 365.009 691.87 377.536C685.402 390.064 684.596 398.199 684.596 398.199L682.795 349.802Z" fill="#151731"/>
</g>
<path d="M671.621 206.042C679.89 204.504 696.273 202.756 714.094 206.042C719.75 207.085 724.83 210.39 727.969 213.959C745.691 232.343 752.916 247.34 757.408 252.852C760.403 256.527 760.285 260.486 757.053 264.729C748.565 277.049 742.619 286.445 732.026 297.082C731.425 297.686 730.451 300.106 728.778 300.969C724.561 300.969 720.884 297.744 717.749 291.295C727.936 275.199 734.554 265.227 737.601 261.379C730.151 253.769 723.829 248.056 718.634 244.238C716.089 264.096 714.803 277.045 714.777 283.086C714.739 291.982 716.42 299.906 716.388 300.969C716.292 304.186 720.544 305.041 710.042 309.407C699.54 313.773 671.387 310.533 661.595 309.407C651.804 308.281 650.799 305.187 653.467 299.244C656.136 293.301 657.722 279.734 658.226 258.541L641.969 268.156C635.922 270.046 631.371 268.903 628.315 264.729C625.26 260.554 618.37 248.442 607.646 228.391C607.646 223.573 611.716 221.399 619.855 221.87L638.276 245.265L658.226 214.909C661.31 209.512 666.252 207.041 671.621 206.042Z" fill="url(#paint7_linear)"/>
<mask id="mask3" mask-type="alpha" maskUnits="userSpaceOnUse" x="607" y="204" width="153" height="108">
<path d="M671.621 206.042C679.89 204.504 696.273 202.756 714.094 206.042C719.75 207.085 724.83 210.39 727.969 213.959C745.691 232.343 752.916 247.34 757.408 252.852C760.403 256.527 760.285 260.486 757.053 264.729C748.565 277.049 742.619 286.445 732.026 297.082C731.425 297.686 730.451 300.106 728.778 300.969C724.561 300.969 720.884 297.744 717.749 291.295C727.936 275.199 734.554 265.227 737.601 261.379C730.151 253.769 723.829 248.056 718.634 244.238C716.089 264.096 714.803 277.045 714.777 283.086C714.739 291.982 716.42 299.906 716.388 300.969C716.292 304.186 720.544 305.041 710.042 309.407C699.54 313.773 671.387 310.533 661.595 309.407C651.804 308.281 650.799 305.187 653.467 299.244C656.136 293.301 657.722 279.734 658.226 258.541L641.969 268.156C635.922 270.046 631.371 268.903 628.315 264.729C625.26 260.554 618.37 248.442 607.646 228.391C607.646 223.573 611.716 221.399 619.855 221.87L638.276 245.265L658.226 214.909C661.31 209.512 666.252 207.041 671.621 206.042Z" fill="white"/>
</mask>
<g mask="url(#mask3)">
<path opacity="0.3" d="M665.584 203.126C665.584 203.126 660.93 208.967 677.12 208.967C693.309 208.967 705.333 201.407 705.333 201.407L665.584 203.126Z" fill="#373A5B"/>
<path opacity="0.3" d="M657.857 258.669L674.584 243.102C674.584 243.102 675.881 247.024 674.584 249.644C672.258 254.342 666.334 256.295 668.018 264.022C672.231 283.358 659.511 272.138 659.511 289.107C659.511 306.076 647.601 299.686 647.601 299.686L657.857 258.669Z" fill="#373A5B"/>
<path opacity="0.3" d="M718.517 244.656L721.047 226.511C721.047 226.511 722.968 244.656 730.329 246.588C737.691 248.519 734.904 257.803 737.536 261.335C732.061 261.882 721.047 263.266 721.047 263.266L718.517 244.656Z" fill="#373A5B"/>
</g>
<path d="M328.462 479.012C328.462 479.012 330.428 487.013 342.351 487.62C354.274 488.228 352.514 496.229 352.514 496.229C352.514 496.229 319.226 496.229 312.655 496.229C306.083 496.229 307.675 491.435 307.675 491.435L310.962 479.012H328.462Z" fill="url(#paint8_linear)"/>
<mask id="mask4" mask-type="alpha" maskUnits="userSpaceOnUse" x="307" y="479" width="46" height="18">
<path d="M328.462 479.012C328.462 479.012 330.428 487.013 342.351 487.62C354.274 488.228 352.514 496.229 352.514 496.229C352.514 496.229 319.226 496.229 312.655 496.229C306.083 496.229 307.675 491.435 307.675 491.435L310.962 479.012H328.462Z" fill="white"/>
</mask>
<g mask="url(#mask4)">
<rect opacity="0.2" x="307.365" y="488.872" width="45.3755" height="7.68975" fill="#F3F4FF"/>
</g>
<path d="M278.315 479.012C278.315 479.012 280.972 483.805 286.03 487.62C291.088 491.435 289.165 496.229 286.394 496.229C283.622 496.229 264.535 496.229 257.963 496.229C251.392 496.229 252.984 491.435 252.984 491.435L260.815 479.012H278.315Z" fill="url(#paint9_linear)"/>
<mask id="mask5" mask-type="alpha" maskUnits="userSpaceOnUse" x="252" y="479" width="38" height="18">
<path d="M278.315 479.012C278.315 479.012 280.972 483.805 286.03 487.62C291.088 491.435 289.165 496.229 286.394 496.229C283.622 496.229 264.535 496.229 257.963 496.229C251.392 496.229 252.984 491.435 252.984 491.435L260.815 479.012H278.315Z" fill="white"/>
</mask>
<g mask="url(#mask5)">
<rect opacity="0.2" x="252.673" y="488.872" width="36.5028" height="7.68975" fill="#F3F4FF"/>
</g>
<path d="M258.026 300.664C251.329 347.038 261.161 366.208 258.026 407.024C257.304 416.432 258.026 452.193 258.924 470.181C259.117 474.067 256.512 478.908 260.78 479.825C265.047 480.742 277.678 480.374 280.451 480.374C283.225 480.374 281.731 475.563 281.731 471.808C281.731 443.457 286.032 441.696 285.111 426.808C283.362 398.561 293.792 348.425 293.792 348.425C293.792 348.425 297.093 374.396 303.921 398.713C307.713 412.218 304.193 429.41 307.448 455.616C307.919 459.407 306.314 478.624 310.587 479.276C314.859 479.928 325.781 479.928 328.723 479.825C331.666 479.722 331.258 468.127 333.21 455.616C335.162 443.104 333.21 414.159 333.21 398.713C333.21 383.267 318.59 300.664 318.59 300.664H258.026Z" fill="url(#paint10_linear)"/>
<mask id="mask6" mask-type="alpha" maskUnits="userSpaceOnUse" x="255" y="300" width="80" height="181">
<path d="M258.026 300.664C251.329 347.038 261.161 366.208 258.026 407.024C257.304 416.432 258.026 452.193 258.924 470.181C259.117 474.067 256.512 478.908 260.78 479.825C265.047 480.742 277.678 480.374 280.451 480.374C283.225 480.374 281.731 475.563 281.731 471.808C281.731 443.457 286.032 441.696 285.111 426.808C283.362 398.561 293.792 348.425 293.792 348.425C293.792 348.425 297.093 374.396 303.921 398.713C307.713 412.218 304.193 429.41 307.448 455.616C307.919 459.407 306.314 478.624 310.587 479.276C314.859 479.928 325.781 479.928 328.723 479.825C331.666 479.722 331.258 468.127 333.21 455.616C335.162 443.104 333.21 414.159 333.21 398.713C333.21 383.267 318.59 300.664 318.59 300.664H258.026Z" fill="white"/>
</mask>
<g mask="url(#mask6)">
<path opacity="0.3" d="M318.991 300.664C318.991 300.664 318.162 315.712 295.187 315.712C272.213 315.712 291.856 341.347 268.387 347.277C244.918 353.206 258.549 382.057 244.281 382.057C230.013 382.057 256.575 302.323 256.575 302.323L318.991 300.664Z" fill="#151731"/>
<path opacity="0.3" d="M292.308 353.888L299.59 326.345C299.59 326.345 304.395 336.084 302.768 348.953C301.141 361.823 312.839 371.478 307.286 381.1C301.733 390.723 318.473 411.571 306.388 426.695C294.304 441.82 299.918 425.395 299.918 425.395L292.308 353.888Z" fill="#151731"/>
</g>
<path d="M302.431 203.681C294.631 201.189 279.718 198.94 261.814 202.242C253.292 203.814 247.504 210.655 244.19 218.564C232.942 245.407 229.122 274.676 245.602 274.676C252.884 274.676 250.966 274.676 255.635 274.676C255.635 274.676 255.219 298.297 255.251 299.365C255.347 302.597 254.093 306.454 262.868 307.843C271.643 309.231 297.768 309.231 306.363 308.424C314.959 307.618 323.57 306.588 319.549 297.633C315.528 288.677 314.768 256.74 314.768 256.74L331.101 266.4C331.101 266.4 340.213 269.247 344.818 262.957C349.423 256.666 365.583 226.45 365.583 226.45C365.583 226.45 365.583 219.189 353.318 219.899L334.811 243.402L314.768 212.905C314.768 212.905 310.23 206.173 302.431 203.681Z" fill="url(#paint11_linear)"/>
<mask id="mask7" mask-type="alpha" maskUnits="userSpaceOnUse" x="234" y="200" width="132" height="109">
<path d="M302.431 203.681C294.631 201.189 279.718 198.94 261.814 202.242C253.292 203.814 247.504 210.655 244.19 218.564C232.942 245.407 229.122 274.676 245.602 274.676C252.884 274.676 250.966 274.676 255.635 274.676C255.635 274.676 255.219 298.297 255.251 299.365C255.347 302.597 254.093 306.454 262.868 307.843C271.643 309.231 297.768 309.231 306.363 308.424C314.959 307.618 323.57 306.588 319.549 297.633C315.528 288.677 314.768 256.74 314.768 256.74L331.101 266.4C331.101 266.4 340.213 269.247 344.818 262.957C349.423 256.666 365.583 226.45 365.583 226.45C365.583 226.45 365.583 219.189 353.318 219.899L334.811 243.402L314.768 212.905C314.768 212.905 310.23 206.173 302.431 203.681Z" fill="white"/>
</mask>
<g mask="url(#mask7)">
<path opacity="0.12" d="M284.181 210.111C284.181 210.111 294.171 240.963 292.58 272.735C290.989 304.508 294.569 295.979 294.569 306.119C294.569 316.259 298.804 322.1 299.512 310.9C300.22 299.699 296.98 301.175 296.98 290.325C296.98 279.474 297.241 250.71 294.569 235.123C291.897 219.537 284.181 202.034 284.181 202.034V210.111Z" fill="white"/>
<path d="M285.266 210.111C285.266 210.111 282.489 214.087 282.489 215.518C282.489 216.948 286.816 219.504 286.816 219.504C286.816 219.504 291.168 251.461 290.112 261.476C290.112 261.476 291.177 265.119 290.844 266.674C290.528 268.148 289.506 273.657 289.506 273.657L287.807 273.938C286.615 280.092 285.876 287.147 285.876 287.147L293.665 292.572L301.606 283.892C301.606 283.892 298.065 275.212 298.065 260.022C298.065 244.832 290.13 218.452 290.13 218.452C290.13 218.452 291.346 215.518 291.346 214.222C291.346 212.926 285.266 210.111 285.266 210.111Z" fill="url(#paint12_linear)"/>
<rect x="296.92" y="228.557" width="11.9352" height="3.25505" fill="#FFCCB5"/>
<path opacity="0.2" d="M350.727 222.046C350.727 222.046 351.448 232.279 357.421 233.538C363.394 234.797 369.032 229.428 369.032 229.428L367.609 219.15L357.421 216.12L350.727 218.418V222.046Z" fill="white"/>
<path opacity="0.3" d="M314.748 256.746C314.748 256.746 314.785 238.74 311.63 227.749C311.63 227.749 317.314 231.103 318.185 242.247C319.055 253.391 324.663 242.687 328.255 255.189C331.847 267.69 340.914 259.499 343.038 262.844C345.162 266.189 331.847 272.815 331.847 272.815L314.748 256.746Z" fill="#923E5A"/>
<path opacity="0.3" d="M258.033 201.986C258.033 201.986 257.654 213.25 273.919 213.25C275.081 213.25 278.702 218.889 279.158 218.258C279.878 217.264 281.657 214.236 283.627 214.151C287.554 213.979 295.986 216.214 296.739 214.451C297.172 213.438 285.161 206.856 285.161 206.856C285.161 206.856 280.533 199.344 274.5 198.779C268.468 198.214 258.033 201.986 258.033 201.986Z" fill="#923E5A"/>
<path d="M270.12 197.172L278.045 217.824C278.319 218.539 279.262 218.693 279.749 218.103L286.351 210.111L296.081 214.972C296.975 215.419 297.899 214.42 297.385 213.563L288.157 198.176L274.66 194.34L269.763 197.172" fill="#FFCCB5"/>
<path opacity="0.3" d="M243.954 299.459C243.954 299.459 246.759 292.717 254.963 289.503L254.286 297.245L246.22 300.664L243.954 299.459Z" fill="#373A5B"/>
<path opacity="0.3" d="M353.277 219.85C353.277 219.85 354.573 228.932 359.892 228.932C365.21 228.932 367.357 223.445 367.357 223.445L355.88 216.585L353.277 219.85Z" fill="#373A5B"/>
<path opacity="0.3" d="M255.635 274.817C255.635 274.817 278.062 274.346 289.393 273.657C300.724 272.969 303.447 271.913 303.447 271.913C303.447 271.913 288.09 277.334 282.725 277.334C277.359 277.334 277.521 273.438 271.643 281.521C265.764 289.605 261.097 279.299 255.635 294.583C250.173 309.867 255.635 274.817 255.635 274.817Z" fill="#923E5A"/>
<path opacity="0.3" d="M290.088 261.487L255.635 255.923L261.821 229.727C261.821 229.727 266.742 235.291 262.815 245.607C258.888 255.923 269.23 246.335 272.862 253.073C276.493 259.811 290.088 261.487 290.088 261.487Z" fill="#923E5A"/>
<path opacity="0.2" d="M285.417 260.82L290.41 261.487C290.41 261.487 290.816 265.942 290.41 268.254C290.004 270.565 289.393 273.657 289.393 273.657L283.578 273.984C283.578 273.984 285.748 265.798 285.417 260.82Z" fill="white"/>
</g>
<path d="M300.05 170.852C300.05 170.852 299.346 161.457 291.724 159.115C284.102 156.774 274.089 158.51 271.26 167.582C268.431 176.654 276.27 189.332 276.27 189.332L300.05 170.852Z" fill="url(#paint13_linear)"/>
<path d="M272.458 200.919C272.458 200.919 283.513 209.957 285.703 209.957C287.894 209.957 289.505 200.919 289.505 200.919L288.29 193.63L275.352 186.899L272.458 200.919Z" fill="url(#paint14_linear)"/>
<mask id="mask8" mask-type="alpha" maskUnits="userSpaceOnUse" x="272" y="186" width="18" height="24">
<path d="M272.458 200.919C272.458 200.919 283.513 209.957 285.703 209.957C287.894 209.957 289.505 200.919 289.505 200.919L288.29 193.63L275.352 186.899L272.458 200.919Z" fill="white"/>
</mask>
<g mask="url(#mask8)">
<path opacity="0.2" d="M275.059 187.181C275.059 187.181 277.411 201.798 287.434 202.963C297.457 204.127 296.683 196.605 296.683 196.605L275.059 187.181Z" fill="#50211F"/>
</g>
<path d="M282.338 169.71C288.157 171.88 296.345 173.198 300.047 170.795C299.341 189.117 296.382 198.278 291.687 198.278C284.646 198.278 276.953 194.676 275.179 187.106C275.16 187.024 275.141 186.942 275.123 186.861C274.943 186.886 274.76 186.899 274.574 186.899C272.424 186.899 270.681 185.156 270.681 183.005C270.681 180.855 272.424 179.112 274.574 179.112C275.926 179.112 277.117 179.8 277.815 180.846C278.208 181.025 276.518 167.54 282.338 169.71Z" fill="url(#paint15_linear)"/>
<mask id="mask9" mask-type="alpha" maskUnits="userSpaceOnUse" x="270" y="169" width="31" height="30">
<path d="M282.338 169.71C288.157 171.88 296.345 173.198 300.047 170.795C299.341 189.117 296.382 198.278 291.687 198.278C284.646 198.278 276.953 194.676 275.179 187.106C275.16 187.024 275.141 186.942 275.123 186.861C274.943 186.886 274.76 186.899 274.574 186.899C272.424 186.899 270.681 185.156 270.681 183.005C270.681 180.855 272.424 179.112 274.574 179.112C275.926 179.112 277.117 179.8 277.815 180.846C278.208 181.025 276.518 167.54 282.338 169.71Z" fill="white"/>
</mask>
<g mask="url(#mask9)">
<path d="M292.336 186.493C292.336 186.493 286.871 187.217 285.592 190.079C284.313 192.941 292.336 187.633 292.336 187.633C292.336 187.633 297.967 192.013 297.967 189.496C297.967 186.979 292.336 186.493 292.336 186.493Z" fill="url(#paint16_linear)"/>
<path opacity="0.2" d="M300.175 171.051C300.175 171.051 292.741 175.844 286.748 174.613C280.755 173.383 282.052 182.443 277.068 180.071L279.091 168.201L300.175 171.051Z" fill="#50211F"/>
</g>
<path d="M358.121 211.994C360.539 209.123 358.127 204.412 360.786 204.412C361.295 204.412 362.97 205.553 363.233 206.936C363.544 208.576 363.233 210.779 363.233 210.779C363.233 210.779 368.565 211.296 369.826 212.81C371.145 214.394 370.592 220.789 369.826 222.893C368.757 225.829 367.358 225.829 364.352 226.748C362.962 227.173 360.164 228.94 360.164 228.94C360.164 228.94 358.429 229.43 356.303 227.828C354.176 226.227 353.291 220.532 353.291 220.532C353.291 220.532 355.702 214.864 358.121 211.994Z" fill="url(#paint17_linear)"/>
<mask id="mask10" mask-type="alpha" maskUnits="userSpaceOnUse" x="353" y="204" width="18" height="26">
<path d="M358.121 211.994C360.539 209.123 358.127 204.412 360.786 204.412C361.295 204.412 362.97 205.553 363.233 206.936C363.544 208.576 363.233 210.779 363.233 210.779C363.233 210.779 368.565 211.296 369.826 212.81C371.145 214.394 370.592 220.789 369.826 222.893C368.757 225.829 367.358 225.829 364.352 226.748C362.962 227.173 360.164 228.94 360.164 228.94C360.164 228.94 358.429 229.43 356.303 227.828C354.176 226.227 353.291 220.532 353.291 220.532C353.291 220.532 355.702 214.864 358.121 211.994Z" fill="white"/>
</mask>
<g mask="url(#mask10)">
<path opacity="0.2" d="M353.278 219.583C353.278 219.583 356.346 228.169 363.732 226.801L360.162 230.593L353.278 227.749V219.583Z" fill="#50211F"/>
<path opacity="0.2" d="M364.459 211.672C364.459 211.672 360.482 212.182 360.482 216.701C360.482 221.22 360.543 225.248 364.459 226.283C364.459 226.283 357.591 225.726 358.299 217.68C359.007 209.635 364.459 211.672 364.459 211.672Z" fill="#50211F"/>
</g>
<path d="M303.447 236.923L293.25 284.717L327.49 283.972L338.423 236.923H303.447Z" fill="url(#paint18_linear)"/>
<path d="M289.393 273.657C289.393 273.657 291.022 266.705 290.448 262.819C290.448 262.819 295.685 258.316 298.64 258.316L297.863 261.981C297.863 261.981 305.139 261.69 308.517 258.316C311.895 254.942 310.224 262.489 308.035 263.657C305.846 264.824 306.801 271.545 301.549 272.601C296.298 273.657 289.393 273.657 289.393 273.657Z" fill="url(#paint19_linear)"/>
<path d="M153.73 479.612C153.73 479.612 152.777 480.349 162.274 485.695C166.111 487.855 171 490.067 176.942 492.332C180.808 493.805 179.847 496.819 175.408 496.819C154.048 496.819 141.556 496.819 137.931 496.819C131.364 496.819 132.955 492.028 132.955 492.028L136.239 479.612H153.73Z" fill="url(#paint20_linear)"/>
<mask id="mask11" mask-type="alpha" maskUnits="userSpaceOnUse" x="132" y="479" width="48" height="18">
<path d="M153.73 479.612C153.73 479.612 152.777 480.349 162.274 485.695C166.111 487.855 171 490.067 176.942 492.332C180.808 493.805 179.847 496.819 175.408 496.819C154.048 496.819 141.556 496.819 137.931 496.819C131.364 496.819 132.955 492.028 132.955 492.028L136.239 479.612H153.73Z" fill="white"/>
</mask>
<g mask="url(#mask11)">
<path d="M129.967 489.28C129.967 489.28 165.151 493.34 167.179 482.044C169.207 470.747 131.644 476.625 131.644 476.625L129.967 489.28Z" fill="url(#paint21_linear)"/>
</g>
<path d="M122.046 479.612C122.046 479.612 128.757 486.906 133.813 490.719C138.868 494.532 135.498 496.819 132.728 496.819C129.958 496.819 108.273 496.819 101.706 496.819C95.138 496.819 96.7292 492.028 96.7292 492.028L104.555 479.612H122.046Z" fill="url(#paint22_linear)"/>
<mask id="mask12" mask-type="alpha" maskUnits="userSpaceOnUse" x="96" y="479" width="41" height="18">
<path d="M122.046 479.612C122.046 479.612 128.757 486.906 133.813 490.719C138.868 494.532 135.498 496.819 132.728 496.819C129.958 496.819 108.273 496.819 101.706 496.819C95.138 496.819 96.7292 492.028 96.7292 492.028L104.555 479.612H122.046Z" fill="white"/>
</mask>
<g mask="url(#mask12)">
<path d="M99.3105 485.802C99.3105 485.802 119.388 491.281 130.233 484.579C141.077 477.877 101.28 475.716 101.28 475.716L99.3105 485.802Z" fill="url(#paint23_linear)"/>
</g>
<path d="M103.906 300.945C93.2883 326.554 104.828 367.682 104.828 409.253C104.828 418.77 100.564 480.592 104.56 481.509C108.556 482.425 119.093 482.044 121.69 482.044C124.287 482.044 123.162 477.249 123.162 473.496C123.162 445.161 136.206 346.733 136.206 346.733C136.206 346.733 144.384 380.487 150.777 404.79C154.328 418.287 132.206 480.28 136.206 480.931C140.207 481.582 150.434 481.582 153.189 481.48C155.944 481.377 175.616 416.38 175.616 400.942C175.616 385.505 158.691 302.447 158.691 302.447L103.906 300.945Z" fill="url(#paint24_linear)"/>
<mask id="mask13" mask-type="alpha" maskUnits="userSpaceOnUse" x="99" y="300" width="77" height="183">
<path d="M103.906 300.945C93.2883 326.554 104.828 367.682 104.828 409.253C104.828 418.77 100.564 480.592 104.56 481.509C108.556 482.425 119.093 482.044 121.69 482.044C124.287 482.044 123.162 477.249 123.162 473.496C123.162 445.161 136.206 346.733 136.206 346.733C136.206 346.733 144.384 380.487 150.777 404.79C154.328 418.287 132.206 480.28 136.206 480.931C140.207 481.582 150.434 481.582 153.189 481.48C155.944 481.377 175.616 416.38 175.616 400.942C175.616 385.505 158.691 302.447 158.691 302.447L103.906 300.945Z" fill="white"/>
</mask>
<g mask="url(#mask13)">
<path opacity="0.3" d="M165.249 315.46C165.249 315.46 164.42 330.5 141.458 330.5C118.496 330.5 138.129 356.121 114.673 362.047C91.2165 367.973 104.84 396.808 90.58 396.808C76.3197 396.808 102.867 317.118 102.867 317.118L165.249 315.46Z" fill="#151731"/>
<path opacity="0.3" d="M134.243 355.642L141.521 328.113C141.521 328.113 146.322 337.847 144.696 350.71C143.07 363.572 154.762 373.222 149.212 382.839C143.662 392.456 160.393 413.292 148.315 428.408C136.237 443.525 141.848 427.109 141.848 427.109L134.243 355.642Z" fill="#151731"/>
</g>
<path d="M137.558 164.31C157.769 169.141 153.26 189.241 147.95 210.94C142.639 232.638 129.721 273.549 102.552 270.261C75.3824 266.973 67.807 249.976 77.6454 230.658C87.4838 211.34 107.08 210.94 109.385 194.743C111.691 178.547 117.347 159.479 137.558 164.31Z" fill="url(#paint25_linear)"/>
<path d="M139.727 212.024C117.067 208.225 139.4 207.563 121.293 209.357C110.166 210.459 98.7846 219.879 98.7846 219.879C94.4961 223.374 95.3506 243.238 98.7846 256.144C102.036 268.363 108.108 271.11 108.128 275.534C108.166 284.467 98.7846 296.638 98.7846 320.282C99.5306 320.366 103.318 301.285 104.046 301.363C104.943 301.458 103.177 320.196 104.046 320.282C121.81 322.046 125.835 331.989 139.727 330.225C141.288 330.027 144.411 307.536 144.411 307.536C144.411 307.536 147.828 330.409 149.819 330.225C155.277 329.722 159.419 325.239 163.426 325.239C164.248 325.239 161.391 308.456 160.239 299.862C159.742 296.154 158.121 285.411 158.121 270.583C158.121 261.907 175.477 262.837 175.477 262.837C175.477 262.837 162.387 215.823 139.727 212.024Z" fill="url(#paint26_linear)"/>
<mask id="mask14" mask-type="alpha" maskUnits="userSpaceOnUse" x="95" y="208" width="81" height="123">
<path d="M139.727 212.024C117.067 208.225 139.4 207.563 121.293 209.357C110.166 210.459 98.7846 219.879 98.7846 219.879C94.4961 223.374 95.3506 243.238 98.7846 256.144C102.036 268.363 108.108 271.11 108.128 275.534C108.166 284.467 98.7846 296.638 98.7846 320.282C99.5306 320.366 103.318 301.285 104.046 301.363C104.943 301.458 103.177 320.196 104.046 320.282C121.81 322.046 125.835 331.989 139.727 330.225C141.288 330.027 144.411 307.536 144.411 307.536C144.411 307.536 147.828 330.409 149.819 330.225C155.277 329.722 159.419 325.239 163.426 325.239C164.248 325.239 161.391 308.456 160.239 299.862C159.742 296.154 158.121 285.411 158.121 270.583C158.121 261.907 175.477 262.837 175.477 262.837C175.477 262.837 162.387 215.823 139.727 212.024Z" fill="white"/>
</mask>
<g mask="url(#mask14)">
<path opacity="0.3" d="M140.399 223.965C140.399 223.965 137.269 277.543 127.362 279.399C117.455 281.254 114.111 280.051 112.012 285.988C109.912 291.926 122.887 305.974 112.012 307.451C101.137 308.929 96.4189 335.988 96.4189 335.988L101.137 270.055L121.858 266.932L140.399 223.965Z" fill="#373A5B"/>
<path opacity="0.3" d="M185.409 272.395C185.409 272.395 145.41 269.421 130.017 264.426C127.464 263.598 124.996 264.98 122.612 264.023C122.612 264.023 115.486 264.401 117.546 268.414C121.132 275.396 139.829 277.763 144.318 277.763C154.921 277.763 153.426 270.496 164.724 274.903C176.022 279.31 185.409 272.395 185.409 272.395Z" fill="#373A5B"/>
<path opacity="0.3" d="M127.462 224.984C127.462 224.984 122.047 254.634 117.25 253.145C112.454 251.656 111.093 234.534 111.093 234.534C111.093 234.534 113.682 233.332 115.413 241.025C117.144 248.718 127.462 224.984 127.462 224.984Z" fill="#373A5B"/>
<path opacity="0.3" d="M96.9422 231.544C98.7389 231.544 100.195 230.087 100.195 228.29C100.195 226.494 98.7389 225.037 96.9422 225.037C95.1455 225.037 93.689 226.494 93.689 228.29C93.689 230.087 95.1455 231.544 96.9422 231.544Z" fill="white"/>
<path opacity="0.3" d="M118.631 231.544C120.427 231.544 121.884 230.087 121.884 228.29C121.884 226.494 120.427 225.037 118.631 225.037C116.834 225.037 115.377 226.494 115.377 228.29C115.377 230.087 116.834 231.544 118.631 231.544Z" fill="white"/>
<path opacity="0.3" d="M140.319 231.544C142.116 231.544 143.572 230.087 143.572 228.29C143.572 226.494 142.116 225.037 140.319 225.037C138.522 225.037 137.066 226.494 137.066 228.29C137.066 230.087 138.522 231.544 140.319 231.544Z" fill="white"/>
<path opacity="0.3" d="M162.007 231.544C163.804 231.544 165.26 230.087 165.26 228.29C165.26 226.494 163.804 225.037 162.007 225.037C160.21 225.037 158.754 226.494 158.754 228.29C158.754 230.087 160.21 231.544 162.007 231.544Z" fill="white"/>
<path opacity="0.3" d="M107.786 220.699C109.583 220.699 111.04 219.243 111.04 217.446C111.04 215.649 109.583 214.193 107.786 214.193C105.99 214.193 104.533 215.649 104.533 217.446C104.533 219.243 105.99 220.699 107.786 220.699Z" fill="white"/>
<path opacity="0.3" d="M129.475 220.699C131.272 220.699 132.728 219.243 132.728 217.446C132.728 215.649 131.272 214.193 129.475 214.193C127.678 214.193 126.222 215.649 126.222 217.446C126.222 219.243 127.678 220.699 129.475 220.699Z" fill="white"/>
<path opacity="0.3" d="M151.163 220.699C152.96 220.699 154.417 219.243 154.417 217.446C154.417 215.649 152.96 214.193 151.163 214.193C149.367 214.193 147.91 215.649 147.91 217.446C147.91 219.243 149.367 220.699 151.163 220.699Z" fill="white"/>
<path opacity="0.3" d="M172.851 220.699C174.648 220.699 176.105 219.243 176.105 217.446C176.105 215.649 174.648 214.193 172.851 214.193C171.055 214.193 169.598 215.649 169.598 217.446C169.598 219.243 171.055 220.699 172.851 220.699Z" fill="white"/>
<path opacity="0.3" d="M107.786 242.388C109.583 242.388 111.04 240.931 111.04 239.134C111.04 237.338 109.583 235.881 107.786 235.881C105.99 235.881 104.533 237.338 104.533 239.134C104.533 240.931 105.99 242.388 107.786 242.388Z" fill="white"/>
<path opacity="0.3" d="M129.475 242.388C131.272 242.388 132.728 240.931 132.728 239.134C132.728 237.338 131.272 235.881 129.475 235.881C127.678 235.881 126.222 237.338 126.222 239.134C126.222 240.931 127.678 242.388 129.475 242.388Z" fill="white"/>
<path opacity="0.3" d="M151.163 242.388C152.96 242.388 154.417 240.931 154.417 239.134C154.417 237.338 152.96 235.881 151.163 235.881C149.367 235.881 147.91 237.338 147.91 239.134C147.91 240.931 149.367 242.388 151.163 242.388Z" fill="white"/>
<path opacity="0.3" d="M172.851 242.388C174.648 242.388 176.105 240.931 176.105 239.134C176.105 237.338 174.648 235.881 172.851 235.881C171.055 235.881 169.598 237.338 169.598 239.134C169.598 240.931 171.055 242.388 172.851 242.388Z" fill="white"/>
<path opacity="0.3" d="M96.9422 253.232C98.7389 253.232 100.195 251.775 100.195 249.979C100.195 248.182 98.7389 246.725 96.9422 246.725C95.1455 246.725 93.689 248.182 93.689 249.979C93.689 251.775 95.1455 253.232 96.9422 253.232Z" fill="white"/>
<path opacity="0.3" d="M118.631 253.232C120.427 253.232 121.884 251.775 121.884 249.979C121.884 248.182 120.427 246.725 118.631 246.725C116.834 246.725 115.377 248.182 115.377 249.979C115.377 251.775 116.834 253.232 118.631 253.232Z" fill="white"/>
<path opacity="0.3" d="M140.319 253.232C142.116 253.232 143.572 251.775 143.572 249.979C143.572 248.182 142.116 246.725 140.319 246.725C138.522 246.725 137.066 248.182 137.066 249.979C137.066 251.775 138.522 253.232 140.319 253.232Z" fill="white"/>
<path opacity="0.3" d="M162.007 253.232C163.804 253.232 165.26 251.775 165.26 249.979C165.26 248.182 163.804 246.725 162.007 246.725C160.21 246.725 158.754 248.182 158.754 249.979C158.754 251.775 160.21 253.232 162.007 253.232Z" fill="white"/>
<path opacity="0.3" d="M107.786 264.076C109.583 264.076 111.04 262.62 111.04 260.823C111.04 259.026 109.583 257.57 107.786 257.57C105.99 257.57 104.533 259.026 104.533 260.823C104.533 262.62 105.99 264.076 107.786 264.076Z" fill="white"/>
<path opacity="0.3" d="M129.475 264.076C131.272 264.076 132.728 262.62 132.728 260.823C132.728 259.026 131.272 257.57 129.475 257.57C127.678 257.57 126.222 259.026 126.222 260.823C126.222 262.62 127.678 264.076 129.475 264.076Z" fill="white"/>
<path opacity="0.3" d="M151.163 264.076C152.96 264.076 154.417 262.62 154.417 260.823C154.417 259.026 152.96 257.57 151.163 257.57C149.367 257.57 147.91 259.026 147.91 260.823C147.91 262.62 149.367 264.076 151.163 264.076Z" fill="white"/>
<path opacity="0.3" d="M172.851 264.076C174.648 264.076 176.105 262.62 176.105 260.823C176.105 259.026 174.648 257.57 172.851 257.57C171.055 257.57 169.598 259.026 169.598 260.823C169.598 262.62 171.055 264.076 172.851 264.076Z" fill="white"/>
<path opacity="0.3" d="M96.9422 274.92C98.7389 274.92 100.195 273.464 100.195 271.667C100.195 269.87 98.7389 268.414 96.9422 268.414C95.1455 268.414 93.689 269.87 93.689 271.667C93.689 273.464 95.1455 274.92 96.9422 274.92Z" fill="white"/>
<path opacity="0.3" d="M118.631 274.92C120.427 274.92 121.884 273.464 121.884 271.667C121.884 269.87 120.427 268.414 118.631 268.414C116.834 268.414 115.377 269.87 115.377 271.667C115.377 273.464 116.834 274.92 118.631 274.92Z" fill="white"/>
<path opacity="0.3" d="M140.319 274.92C142.116 274.92 143.572 273.464 143.572 271.667C143.572 269.87 142.116 268.414 140.319 268.414C138.522 268.414 137.066 269.87 137.066 271.667C137.066 273.464 138.522 274.92 140.319 274.92Z" fill="white"/>
<path opacity="0.3" d="M162.007 274.92C163.804 274.92 165.26 273.464 165.26 271.667C165.26 269.87 163.804 268.414 162.007 268.414C160.21 268.414 158.754 269.87 158.754 271.667C158.754 273.464 160.21 274.92 162.007 274.92Z" fill="white"/>
<path opacity="0.3" d="M107.786 285.764C109.583 285.764 111.04 284.308 111.04 282.511C111.04 280.714 109.583 279.258 107.786 279.258C105.99 279.258 104.533 280.714 104.533 282.511C104.533 284.308 105.99 285.764 107.786 285.764Z" fill="white"/>
<path opacity="0.3" d="M129.475 285.764C131.272 285.764 132.728 284.308 132.728 282.511C132.728 280.714 131.272 279.258 129.475 279.258C127.678 279.258 126.222 280.714 126.222 282.511C126.222 284.308 127.678 285.764 129.475 285.764Z" fill="white"/>
<path opacity="0.3" d="M151.163 285.764C152.96 285.764 154.417 284.308 154.417 282.511C154.417 280.714 152.96 279.258 151.163 279.258C149.367 279.258 147.91 280.714 147.91 282.511C147.91 284.308 149.367 285.764 151.163 285.764Z" fill="white"/>
<path opacity="0.3" d="M172.851 285.764C174.648 285.764 176.105 284.308 176.105 282.511C176.105 280.714 174.648 279.258 172.851 279.258C171.055 279.258 169.598 280.714 169.598 282.511C169.598 284.308 171.055 285.764 172.851 285.764Z" fill="white"/>
<path opacity="0.3" d="M96.9422 296.608C98.7389 296.608 100.195 295.152 100.195 293.355C100.195 291.558 98.7389 290.102 96.9422 290.102C95.1455 290.102 93.689 291.558 93.689 293.355C93.689 295.152 95.1455 296.608 96.9422 296.608Z" fill="white"/>
<path opacity="0.3" d="M118.631 296.608C120.427 296.608 121.884 295.152 121.884 293.355C121.884 291.558 120.427 290.102 118.631 290.102C116.834 290.102 115.377 291.558 115.377 293.355C115.377 295.152 116.834 296.608 118.631 296.608Z" fill="white"/>
<path opacity="0.3" d="M140.319 296.608C142.116 296.608 143.572 295.152 143.572 293.355C143.572 291.558 142.116 290.102 140.319 290.102C138.522 290.102 137.066 291.558 137.066 293.355C137.066 295.152 138.522 296.608 140.319 296.608Z" fill="white"/>
<path opacity="0.3" d="M162.007 296.608C163.804 296.608 165.26 295.152 165.26 293.355C165.26 291.558 163.804 290.102 162.007 290.102C160.21 290.102 158.754 291.558 158.754 293.355C158.754 295.152 160.21 296.608 162.007 296.608Z" fill="white"/>
<path opacity="0.3" d="M107.786 307.453C109.583 307.453 111.04 305.996 111.04 304.199C111.04 302.403 109.583 300.946 107.786 300.946C105.99 300.946 104.533 302.403 104.533 304.199C104.533 305.996 105.99 307.453 107.786 307.453Z" fill="white"/>
<path opacity="0.3" d="M129.475 307.453C131.272 307.453 132.728 305.996 132.728 304.199C132.728 302.403 131.272 300.946 129.475 300.946C127.678 300.946 126.222 302.403 126.222 304.199C126.222 305.996 127.678 307.453 129.475 307.453Z" fill="white"/>
<path opacity="0.3" d="M151.163 307.453C152.96 307.453 154.417 305.996 154.417 304.199C154.417 302.403 152.96 300.946 151.163 300.946C149.367 300.946 147.91 302.403 147.91 304.199C147.91 305.996 149.367 307.453 151.163 307.453Z" fill="white"/>
<path opacity="0.3" d="M172.851 307.453C174.648 307.453 176.105 305.996 176.105 304.199C176.105 302.403 174.648 300.946 172.851 300.946C171.055 300.946 169.598 302.403 169.598 304.199C169.598 305.996 171.055 307.453 172.851 307.453Z" fill="white"/>
<path opacity="0.3" d="M96.9422 318.297C98.7389 318.297 100.195 316.84 100.195 315.044C100.195 313.247 98.7389 311.79 96.9422 311.79C95.1455 311.79 93.689 313.247 93.689 315.044C93.689 316.84 95.1455 318.297 96.9422 318.297Z" fill="white"/>
<path opacity="0.3" d="M118.631 318.297C120.427 318.297 121.884 316.84 121.884 315.044C121.884 313.247 120.427 311.79 118.631 311.79C116.834 311.79 115.377 313.247 115.377 315.044C115.377 316.84 116.834 318.297 118.631 318.297Z" fill="white"/>
<path opacity="0.3" d="M140.319 318.297C142.116 318.297 143.572 316.84 143.572 315.044C143.572 313.247 142.116 311.79 140.319 311.79C138.522 311.79 137.066 313.247 137.066 315.044C137.066 316.84 138.522 318.297 140.319 318.297Z" fill="white"/>
<path opacity="0.3" d="M162.007 318.297C163.804 318.297 165.26 316.84 165.26 315.044C165.26 313.247 163.804 311.79 162.007 311.79C160.21 311.79 158.754 313.247 158.754 315.044C158.754 316.84 160.21 318.297 162.007 318.297Z" fill="white"/>
<path opacity="0.2" d="M132.74 218.301C132.74 218.301 143.616 238.494 142.267 255.563C140.919 272.631 146.645 333.479 146.645 333.479H156.447C156.447 333.479 149.033 316.767 148.276 308.496C146.154 285.343 144.832 266.217 145.56 255.563C147.044 233.872 135.655 217.33 135.655 217.33L132.74 218.301Z" fill="white"/>
<path opacity="0.3" d="M159.979 253.435C162.522 239.554 159.168 238.207 150.747 220.583C150.747 220.583 162.522 235.093 163.392 246.231C164.262 257.369 169.867 246.671 173.457 259.166C177.047 271.66 182.657 267.239 184.78 270.582C186.903 273.926 177.047 276.782 177.047 276.782L158.714 274.964C158.714 274.964 157.425 261.631 159.979 253.435Z" fill="#373A5B"/>
<path opacity="0.3" d="M107.523 211.619C107.523 211.619 107.528 220.583 123.783 220.583C124.945 220.583 128.565 226.219 129.02 225.589C129.739 224.595 131.518 221.569 133.486 221.483C137.411 221.312 142.368 224.783 143.121 223.021C143.554 222.009 135.019 214.193 135.019 214.193C135.019 214.193 130.394 206.685 124.365 206.12C118.336 205.556 107.523 211.619 107.523 211.619Z" fill="#373A5B"/>
<path opacity="0.3" d="M92.042 303.412C92.042 303.412 94.8455 296.672 103.044 293.46L102.368 301.199L94.3066 304.616L92.042 303.412Z" fill="#373A5B"/>
<path d="M120.8 209.466L128.773 225.077C129.098 225.713 129.966 225.814 130.427 225.268L135.655 219.092L142.759 223.489C143.639 224.033 144.665 223.046 144.155 222.146L137.711 210.765L125.337 206.636L120.443 209.466" fill="#FFD5D7"/>
</g>
<path d="M160.184 258.592C160.184 258.592 167.041 253.291 173.519 257.57C179.997 261.848 175.952 274.001 166.322 273.57C156.692 273.139 160.184 258.592 160.184 258.592Z" fill="#FFD5D7"/>
<path d="M112.41 253.232C112.41 253.232 105.635 253.361 104.913 257.569C104.192 261.778 103.914 274.306 112.41 274.92C120.907 275.534 121.353 267.489 121.353 267.489L112.41 253.232Z" fill="#FFD5D7"/>
<path d="M121.242 209.268C124.634 216.214 133.486 218.301 135.388 218.301C137.29 218.301 136.656 211.014 136.656 211.014L137.065 201.983L124.134 195.256C124.134 195.256 124.949 208.743 121.242 209.268Z" fill="url(#paint27_linear)"/>
<mask id="mask15" mask-type="alpha" maskUnits="userSpaceOnUse" x="121" y="195" width="17" height="24">
<path d="M121.242 209.268C124.634 216.214 133.486 218.301 135.388 218.301C137.29 218.301 136.656 211.014 136.656 211.014L137.065 201.983L124.134 195.256C124.134 195.256 124.949 208.743 121.242 209.268Z" fill="white"/>
</mask>
<g mask="url(#mask15)">
<path opacity="0.2" d="M124.083 195.256C124.083 195.256 126.434 209.865 136.451 211.029C146.468 212.193 145.695 204.675 145.695 204.675L124.083 195.256Z" fill="#DA433D"/>
</g>
<path d="M144.476 175.983C144.476 175.983 147.366 183.541 147.003 186.665C145.702 197.856 143.572 207.686 138.504 207.686C131.467 207.686 124.7 199.85 122.928 192.285C122.908 192.203 122.889 192.121 122.871 192.04C122.692 192.065 122.509 192.078 122.323 192.078C120.174 192.078 118.432 190.336 118.432 188.186C118.432 186.037 120.174 184.295 122.323 184.295C123.674 184.295 124.864 184.983 125.562 186.028C125.955 186.208 139.491 186.744 144.476 175.983Z" fill="url(#paint28_linear)"/>
<mask id="mask16" mask-type="alpha" maskUnits="userSpaceOnUse" x="118" y="175" width="30" height="33">
<path d="M144.476 175.983C144.476 175.983 147.366 183.541 147.003 186.665C145.702 197.856 143.572 207.686 138.504 207.686C131.467 207.686 124.7 199.85 122.928 192.285C122.908 192.203 122.889 192.121 122.871 192.04C122.692 192.065 122.509 192.078 122.323 192.078C120.174 192.078 118.432 190.336 118.432 188.186C118.432 186.037 120.174 184.295 122.323 184.295C123.674 184.295 124.864 184.983 125.562 186.028C125.955 186.208 139.491 186.744 144.476 175.983Z" fill="white"/>
</mask>
<g mask="url(#mask16)">
<path opacity="0.2" d="M144.476 173.856C144.476 173.856 144.457 184.586 136.775 186.647C129.093 188.708 125.699 186.022 125.699 186.022C125.699 186.022 125.953 185.56 125.039 184.11C124.125 182.66 144.476 173.856 144.476 173.856Z" fill="#DA433D"/>
</g>
<path d="M122.014 260.367L153.613 258.601C153.613 258.601 174.092 256.826 171.987 265.978C169.883 275.13 158.486 274.071 140.956 271.614C123.427 269.157 117.084 268.414 117.084 268.414L122.014 260.367Z" fill="url(#paint29_linear)"/>
<mask id="mask17" mask-type="alpha" maskUnits="userSpaceOnUse" x="117" y="258" width="56" height="16">
<path d="M122.014 260.367L153.613 258.601C153.613 258.601 174.092 256.826 171.987 265.978C169.883 275.13 158.486 274.071 140.956 271.614C123.427 269.157 117.084 268.414 117.084 268.414L122.014 260.367Z" fill="white"/>
</mask>
<g mask="url(#mask17)">
<path opacity="0.2" d="M169.209 245.588C169.209 245.588 155.399 248.433 151.118 253.773C146.837 259.113 152.667 245.588 152.667 245.588L167.449 244.069L169.209 245.588Z" fill="#DA433D"/>
<path opacity="0.2" d="M131.614 258.781C131.614 258.781 131.403 270.318 128.507 277.104C125.611 283.891 114.436 270.603 114.436 270.603L117.842 261.427L122.213 258.313L131.614 258.781Z" fill="#DA433D"/>
</g>
<path d="M124.433 265.701C119.283 272.11 118.789 274.55 112.751 265.701C106.684 256.809 113.769 250.159 116.188 246.709C118.607 243.259 128.883 223.144 130.559 218.722C130.559 218.722 132.784 212.009 130.205 209.119C127.567 206.162 125.192 203.136 127.926 203.43C132.993 203.974 131.6 207.354 137.371 206.651C143.142 205.948 143.903 203.308 147.931 197.93C151.959 192.552 148.444 203.677 147.144 206.192C145.844 208.707 145.08 212.896 143.098 214.319C141.877 215.196 140.794 217.419 139.872 220.903C140.062 221.023 131.787 256.549 124.433 265.701Z" fill="url(#paint30_linear)"/>
<mask id="mask18" mask-type="alpha" maskUnits="userSpaceOnUse" x="110" y="196" width="40" height="76">
<path d="M124.433 265.701C119.283 272.11 118.789 274.55 112.751 265.701C106.684 256.809 113.769 250.159 116.188 246.709C118.607 243.259 128.883 223.144 130.559 218.722C130.559 218.722 132.784 212.009 130.205 209.119C127.567 206.162 125.192 203.136 127.926 203.43C132.993 203.974 131.6 207.354 137.371 206.651C143.142 205.948 143.903 203.308 147.931 197.93C151.959 192.552 148.444 203.677 147.144 206.192C145.844 208.707 145.08 212.896 143.098 214.319C141.877 215.196 140.794 217.419 139.872 220.903C140.062 221.023 131.787 256.549 124.433 265.701Z" fill="white"/>
</mask>
<g mask="url(#mask18)">
<path opacity="0.2" d="M114.111 243.419C114.111 243.419 98.879 249.323 96.5912 254.594C94.3034 259.866 95.0058 247.205 95.0058 247.205L114.111 240.001V243.419Z" fill="#DA433D"/>
</g>
<path opacity="0.1" d="M89.5 498.225C133.959 498.225 170 497.503 170 496.613C170 495.722 133.959 495 89.5 495C45.0411 495 9 495.722 9 496.613C9 497.503 45.0411 498.225 89.5 498.225Z" fill="#373A5B"/>
<path opacity="0.1" d="M269.5 498.225C313.959 498.225 350 497.503 350 496.613C350 495.722 313.959 495 269.5 495C225.041 495 189 495.722 189 496.613C189 497.503 225.041 498.225 269.5 498.225Z" fill="#373A5B"/>
<path opacity="0.1" d="M619.5 498.225C663.959 498.225 700 497.503 700 496.613C700 495.722 663.959 495 619.5 495C575.041 495 539 495.722 539 496.613C539 497.503 575.041 498.225 619.5 498.225Z" fill="#373A5B"/>
<defs>
<linearGradient id="paint0_linear" x1="686.784" y1="232.69" x2="716.946" y2="207.969" gradientUnits="userSpaceOnUse">
<stop stop-color="#FF9292"/>
<stop offset="1" stop-color="#FFB59D"/>
</linearGradient>
<linearGradient id="paint1_linear" x1="693.221" y1="203.45" x2="726.348" y2="172.563" gradientUnits="userSpaceOnUse">
<stop stop-color="#321847"/>
<stop offset="1" stop-color="#834A88"/>
</linearGradient>
<linearGradient id="paint2_linear" x1="606.333" y1="475.358" x2="613.067" y2="509.928" gradientUnits="userSpaceOnUse">
<stop stop-color="#CE8BA0"/>
<stop offset="1" stop-color="#875151"/>
</linearGradient>
<linearGradient id="paint3_linear" x1="749.461" y1="475.358" x2="741.254" y2="509.253" gradientUnits="userSpaceOnUse">
<stop stop-color="#CE8BA0"/>
<stop offset="1" stop-color="#875151"/>
</linearGradient>
<linearGradient id="paint4_linear" x1="608.258" y1="242.164" x2="624.457" y2="222.215" gradientUnits="userSpaceOnUse">
<stop stop-color="#FF9292"/>
<stop offset="1" stop-color="#FFB59D"/>
</linearGradient>
<linearGradient id="paint5_linear" x1="713.943" y1="316.952" x2="702.855" y2="297.321" gradientUnits="userSpaceOnUse">
<stop stop-color="#FF9292"/>
<stop offset="1" stop-color="#FFB59D"/>
</linearGradient>
<linearGradient id="paint6_linear" x1="711.209" y1="214.229" x2="565.013" y2="262.082" gradientUnits="userSpaceOnUse">
<stop stop-color="#404683"/>
<stop offset="1" stop-color="#373A5B"/>
</linearGradient>
<linearGradient id="paint7_linear" x1="742.764" y1="320.92" x2="771.691" y2="216.337" gradientUnits="userSpaceOnUse">
<stop stop-color="#5D63D3"/>
<stop offset="1" stop-color="#B986FF"/>
</linearGradient>
<linearGradient id="paint8_linear" x1="311.15" y1="470.542" x2="331.572" y2="506.527" gradientUnits="userSpaceOnUse">
<stop stop-color="#404683"/>
<stop offset="1" stop-color="#373A5B"/>
</linearGradient>
<linearGradient id="paint9_linear" x1="255.718" y1="470.542" x2="278.128" y2="502.307" gradientUnits="userSpaceOnUse">
<stop stop-color="#404683"/>
<stop offset="1" stop-color="#373A5B"/>
</linearGradient>
<linearGradient id="paint10_linear" x1="255.635" y1="300.664" x2="255.635" y2="480.447" gradientUnits="userSpaceOnUse">
<stop stop-color="#AF3053"/>
<stop offset="1" stop-color="#7A3343"/>
</linearGradient>
<linearGradient id="paint11_linear" x1="257.832" y1="167.447" x2="197.873" y2="286.051" gradientUnits="userSpaceOnUse">
<stop stop-color="#FFB782"/>
<stop offset="1" stop-color="#EB4878"/>
</linearGradient>
<linearGradient id="paint12_linear" x1="294.821" y1="302.218" x2="324.224" y2="296.427" gradientUnits="userSpaceOnUse">
<stop stop-color="#321847"/>
<stop offset="1" stop-color="#834A88"/>
</linearGradient>
<linearGradient id="paint13_linear" x1="289.566" y1="192.977" x2="318.19" y2="169.922" gradientUnits="userSpaceOnUse">
<stop stop-color="#321847"/>
<stop offset="1" stop-color="#834A88"/>
</linearGradient>
<linearGradient id="paint14_linear" x1="281.429" y1="221.512" x2="299.272" y2="206.885" gradientUnits="userSpaceOnUse">
<stop stop-color="#843E3E"/>
<stop offset="1" stop-color="#7B4838"/>
</linearGradient>
<linearGradient id="paint15_linear" x1="286.135" y1="212.713" x2="308.696" y2="187.208" gradientUnits="userSpaceOnUse">
<stop stop-color="#843E3E"/>
<stop offset="1" stop-color="#C08775"/>
</linearGradient>
<linearGradient id="paint16_linear" x1="293.513" y1="191.618" x2="296.645" y2="184.338" gradientUnits="userSpaceOnUse">
<stop stop-color="#321847"/>
<stop offset="1" stop-color="#834A88"/>
</linearGradient>
<linearGradient id="paint17_linear" x1="362.411" y1="241.404" x2="381.271" y2="226.696" gradientUnits="userSpaceOnUse">
<stop stop-color="#843E3E"/>
<stop offset="1" stop-color="#EF8A69"/>
</linearGradient>
<linearGradient id="paint18_linear" x1="293.25" y1="236.923" x2="293.25" y2="284.717" gradientUnits="userSpaceOnUse">
<stop stop-color="#A3EDED"/>
<stop offset="1" stop-color="#9FCFFF"/>
</linearGradient>
<linearGradient id="paint19_linear" x1="300.468" y1="281.777" x2="312.448" y2="264.523" gradientUnits="userSpaceOnUse">
<stop stop-color="#843E3E"/>
<stop offset="1" stop-color="#EF8A69"/>
</linearGradient>
<linearGradient id="paint20_linear" x1="136.541" y1="471.147" x2="156.638" y2="507.622" gradientUnits="userSpaceOnUse">
<stop stop-color="#404683"/>
<stop offset="1" stop-color="#373A5B"/>
</linearGradient>
<linearGradient id="paint21_linear" x1="149.604" y1="498.242" x2="157.86" y2="476.539" gradientUnits="userSpaceOnUse">
<stop stop-color="#FF9292"/>
<stop offset="1" stop-color="#FFB59D"/>
</linearGradient>
<linearGradient id="paint22_linear" x1="99.7558" y1="471.147" x2="121.392" y2="504.774" gradientUnits="userSpaceOnUse">
<stop stop-color="#404683"/>
<stop offset="1" stop-color="#373A5B"/>
</linearGradient>
<linearGradient id="paint23_linear" x1="116.805" y1="494.556" x2="122.848" y2="476.805" gradientUnits="userSpaceOnUse">
<stop stop-color="#FF9292"/>
<stop offset="1" stop-color="#FFB59D"/>
</linearGradient>
<linearGradient id="paint24_linear" x1="169.26" y1="211.817" x2="38.7997" y2="248.5" gradientUnits="userSpaceOnUse">
<stop stop-color="#404683"/>
<stop offset="1" stop-color="#373A5B"/>
</linearGradient>
<linearGradient id="paint25_linear" x1="73.5244" y1="163.547" x2="73.5244" y2="270.448" gradientUnits="userSpaceOnUse">
<stop stop-color="#AF3053"/>
<stop offset="1" stop-color="#7A3343"/>
</linearGradient>
<linearGradient id="paint26_linear" x1="139.846" y1="423.078" x2="261.732" y2="320.155" gradientUnits="userSpaceOnUse">
<stop stop-color="#FFCFAA"/>
<stop offset="1" stop-color="#FA6EB9"/>
</linearGradient>
<linearGradient id="paint27_linear" x1="123.881" y1="193.824" x2="109.088" y2="208.498" gradientUnits="userSpaceOnUse">
<stop stop-color="#F68585"/>
<stop offset="1" stop-color="#FF9B92"/>
</linearGradient>
<linearGradient id="paint28_linear" x1="133.489" y1="223.574" x2="158.507" y2="198.537" gradientUnits="userSpaceOnUse">
<stop stop-color="#FF9292"/>
<stop offset="1" stop-color="#FFB59D"/>
</linearGradient>
<linearGradient id="paint29_linear" x1="150.289" y1="280.968" x2="155.339" y2="257.281" gradientUnits="userSpaceOnUse">
<stop stop-color="#FF9292"/>
<stop offset="1" stop-color="#FFB59D"/>
</linearGradient>
<linearGradient id="paint30_linear" x1="128.717" y1="293.615" x2="172.725" y2="272.612" gradientUnits="userSpaceOnUse">
<stop stop-color="#FF9292"/>
<stop offset="1" stop-color="#FFCFBF"/>
</linearGradient>
</defs>
</svg>
