<svg width="782" height="540" viewBox="0 0 782 540" fill="none" xmlns="http://www.w3.org/2000/svg">
<path d="M235.152 46L770 46C775.5 46 782 52.4442 782 60.3936V482.606C782 490.556 776.559 497 769.848 497H235.152C228.441 497 223 490.556 223 482.606V60.3936C223 52.4442 228.441 46 235.152 46Z" fill="url(#paint0_linear)"/>
<mask id="mask0" mask-type="alpha" maskUnits="userSpaceOnUse" x="223" y="46" width="559" height="451">
<path d="M235.152 46H769C777 46 782 52.4442 782 60.3936V482.606C782 490.556 776.559 497 769.848 497H235.152C228.441 497 223 490.556 223 482.606V60.3936C223 52.4442 228.441 46 235.152 46Z" fill="white"/>
</mask>
<g mask="url(#mask0)">
<path d="M223.367 83.2252H333.767V497.225H237.767C229.814 497.225 223.367 490.778 223.367 482.825V83.2252Z" fill="url(#paint1_linear)"/>
<path fill-rule="evenodd" clip-rule="evenodd" d="M258.167 134.825C258.167 146.092 267.3 155.225 278.567 155.225C289.833 155.225 298.967 146.092 298.967 134.825C298.967 123.559 289.833 114.425 278.567 114.425C267.3 114.425 258.167 123.559 258.167 134.825ZM294.167 134.825C294.167 143.441 287.182 150.425 278.567 150.425C269.951 150.425 262.967 143.441 262.967 134.825C262.967 126.21 269.951 119.225 278.567 119.225C287.182 119.225 294.167 126.21 294.167 134.825Z" fill="white"/>
<path opacity="0.449823" d="M235.152 46H770.5C777 46 782 52.4124 782 60.3226V83H223V60.3226C223 52.4124 228.441 46 235.152 46Z" fill="white"/>
<path d="M246.167 69.4253C248.818 69.4253 250.967 67.2763 250.967 64.6253C250.967 61.9744 248.818 59.8253 246.167 59.8253C243.516 59.8253 241.367 61.9744 241.367 64.6253C241.367 67.2763 243.516 69.4253 246.167 69.4253Z" fill="#F3757C"/>
<path d="M264.167 69.4253C266.818 69.4253 268.967 67.2763 268.967 64.6253C268.967 61.9744 266.818 59.8253 264.167 59.8253C261.516 59.8253 259.367 61.9744 259.367 64.6253C259.367 67.2763 261.516 69.4253 264.167 69.4253Z" fill="#C1A4FF"/>
<path d="M282.167 69.4253C284.818 69.4253 286.967 67.2763 286.967 64.6253C286.967 61.9744 284.818 59.8253 282.167 59.8253C279.516 59.8253 277.367 61.9744 277.367 64.6253C277.367 67.2763 279.516 69.4253 282.167 69.4253Z" fill="#85CFF3"/>
<path d="M267.924 182.917C266.599 182.917 265.524 181.843 265.524 180.517C265.524 179.192 266.599 178.117 267.924 178.117H289.209C290.535 178.117 291.609 179.192 291.609 180.517C291.609 181.843 290.535 182.917 289.209 182.917H267.924Z" fill="white"/>
<path d="M369.526 122.917C368.201 122.917 367.126 121.843 367.126 120.517C367.126 119.192 368.201 118.117 369.526 118.117H390.811C392.137 118.117 393.211 119.192 393.211 120.517C393.211 121.843 392.137 122.917 390.811 122.917H369.526Z" fill="white"/>
<path d="M255.924 194.917C254.599 194.917 253.524 193.843 253.524 192.517C253.524 191.192 254.599 190.117 255.924 190.117H301.209C302.535 190.117 303.609 191.192 303.609 192.517C303.609 193.843 302.535 194.917 301.209 194.917H255.924Z" fill="#EAF2FF"/>
<path d="M369.526 134.917C368.201 134.917 367.126 133.843 367.126 132.517C367.126 131.192 368.201 130.117 369.526 130.117H414.811C416.137 130.117 417.211 131.192 417.211 132.517C417.211 133.843 416.137 134.917 414.811 134.917H369.526Z" fill="#F2F4FF"/>
</g>
<defs>
<linearGradient id="paint0_linear" x1="636.356" y1="607.37" x2="896.677" y2="121.114" gradientUnits="userSpaceOnUse">
<stop stop-color="#FCEFFF"/>
<stop offset="1" stop-color="#C9E7FF"/>
</linearGradient>
<linearGradient id="paint1_linear" x1="305.003" y1="598.541" x2="503.706" y2="518.687" gradientUnits="userSpaceOnUse">
<stop stop-color="#FCEFFF"/>
<stop offset="1" stop-color="#C9E7FF"/>
</linearGradient>
</defs>
</svg>
