<svg width="325" height="301" viewBox="0 0 325 301" fill="none" xmlns="http://www.w3.org/2000/svg">
<path d="M95.0609 154.836C85.7159 151.851 67.8474 149.156 46.3963 153.113C36.1856 154.996 29.2506 163.192 25.2799 172.668C11.8035 204.83 7.22671 239.898 26.9724 239.898C35.6967 239.898 33.3982 239.898 38.9931 239.898C38.9931 239.898 38.4942 268.199 38.5325 269.479C38.6484 273.352 37.1456 277.973 47.659 279.636C58.1724 281.3 89.4736 281.3 99.7724 280.333C110.071 279.367 120.389 278.134 115.571 267.403C110.753 256.673 109.842 218.409 109.842 218.409L129.411 229.982C129.411 229.982 140.329 233.394 145.846 225.857C151.363 218.32 170.725 182.117 170.725 182.117C170.725 182.117 170.725 173.417 156.03 174.268L133.857 202.428L109.842 165.888C109.842 165.888 104.406 157.822 95.0609 154.836Z" fill="url(#paint0_linear)"/>
<mask id="mask0" mask-type="alpha" maskUnits="userSpaceOnUse" x="13" y="151" width="158" height="130">
<path d="M95.0609 154.836C85.7159 151.851 67.8474 149.156 46.3963 153.113C36.1856 154.996 29.2506 163.192 25.2799 172.668C11.8035 204.83 7.22671 239.898 26.9724 239.898C35.6967 239.898 33.3982 239.898 38.9931 239.898C38.9931 239.898 38.4942 268.199 38.5325 269.479C38.6484 273.352 37.1456 277.973 47.659 279.636C58.1724 281.3 89.4736 281.3 99.7724 280.333C110.071 279.367 120.389 278.134 115.571 267.403C110.753 256.673 109.842 218.409 109.842 218.409L129.411 229.982C129.411 229.982 140.329 233.394 145.846 225.857C151.363 218.32 170.725 182.117 170.725 182.117C170.725 182.117 170.725 173.417 156.03 174.268L133.857 202.428L109.842 165.888C109.842 165.888 104.406 157.822 95.0609 154.836Z" fill="white"/>
</mask>
<g mask="url(#mask0)">
<path opacity="0.12" d="M73.1953 162.541C73.1953 162.541 85.165 199.505 83.2584 237.573C81.3518 275.641 85.6417 265.423 85.6417 277.572C85.6417 289.721 90.7156 296.719 91.5635 283.299C92.4115 269.879 88.5295 271.647 88.5295 258.647C88.5295 245.647 88.8433 211.183 85.6417 192.509C82.44 173.834 73.1953 152.863 73.1953 152.863V162.541Z" fill="white"/>
<path d="M74.4951 162.541C74.4951 162.541 71.167 167.305 71.167 169.018C71.167 170.732 76.3519 173.795 76.3519 173.795C76.3519 173.795 81.5656 212.084 80.301 224.083C80.301 224.083 81.5773 228.448 81.1781 230.31C80.7995 232.077 79.5741 238.678 79.5741 238.678L77.5392 239.014C76.1106 246.387 75.2259 254.841 75.2259 254.841L84.5582 261.341L94.0725 250.941C94.0725 250.941 89.8293 240.541 89.8293 222.341C89.8293 204.141 80.3223 172.534 80.3223 172.534C80.3223 172.534 81.7793 169.018 81.7793 167.466C81.7793 165.913 74.4951 162.541 74.4951 162.541Z" fill="url(#paint1_linear)"/>
<rect x="88.4585" y="184.641" width="14.3" height="3.9" fill="#FFCCB5"/>
<path opacity="0.2" d="M152.926 176.841C152.926 176.841 153.79 189.1 160.947 190.609C168.103 192.118 174.858 185.685 174.858 185.685L173.153 173.37L160.947 169.739L152.926 172.493V176.841Z" fill="white"/>
<path opacity="0.3" d="M109.819 218.415C109.819 218.415 109.863 196.842 106.083 183.673C106.083 183.673 112.893 187.692 113.936 201.044C114.979 214.396 121.698 201.571 126.002 216.55C130.305 231.528 141.169 221.714 143.714 225.721C146.259 229.729 130.305 237.669 130.305 237.669L109.819 218.415Z" fill="#923E5A"/>
<path opacity="0.3" d="M41.8663 152.805C41.8663 152.805 41.4121 166.301 60.8994 166.301C62.2925 166.301 66.6312 173.057 67.1773 172.302C68.0393 171.11 70.1716 167.483 72.5311 167.38C77.2365 167.175 87.339 169.852 88.2418 167.741C88.7606 166.527 74.3693 158.641 74.3693 158.641C74.3693 158.641 68.8241 149.64 61.5964 148.963C54.3686 148.286 41.8663 152.805 41.8663 152.805Z" fill="#923E5A"/>
<path d="M56.3475 147.037L65.7803 171.619C66.1368 172.548 67.3624 172.749 67.9962 171.981L75.7952 162.541L87.1397 168.208C88.3028 168.789 89.5043 167.491 88.8355 166.376L77.9583 148.241L61.7872 143.644L55.9204 147.037" fill="#FFCCB5"/>
<path opacity="0.3" d="M24.9976 269.592C24.9976 269.592 28.3584 261.513 38.1874 257.662L37.3767 266.939L27.7124 271.036L24.9976 269.592Z" fill="#373A5B"/>
<path opacity="0.3" d="M155.982 174.209C155.982 174.209 157.535 185.091 163.907 185.091C170.28 185.091 172.852 178.516 172.852 178.516L159.1 170.297L155.982 174.209Z" fill="#373A5B"/>
<path opacity="0.3" d="M38.9931 240.067C38.9931 240.067 65.8634 239.502 79.4398 238.678C93.0162 237.853 96.2783 236.588 96.2783 236.588C96.2783 236.588 77.879 243.082 71.4503 243.082C65.0215 243.082 65.2155 238.415 58.1723 248.1C51.1292 257.785 45.5378 245.438 38.9931 263.75C32.4483 282.062 38.9931 240.067 38.9931 240.067Z" fill="#923E5A"/>
<path opacity="0.3" d="M80.2724 224.096L38.9932 217.429L46.4045 186.044C46.4045 186.044 52.3011 192.71 47.5955 205.07C42.8898 217.429 55.2815 205.942 59.6328 214.015C63.9841 222.088 80.2724 224.096 80.2724 224.096Z" fill="#923E5A"/>
<path opacity="0.2" d="M74.6752 223.297L80.6582 224.096C80.6582 224.096 81.1446 229.434 80.6582 232.203C80.1717 234.973 79.4396 238.678 79.4396 238.678L72.4722 239.069C72.4722 239.069 75.0722 229.261 74.6752 223.297Z" fill="white"/>
</g>
<path d="M92.2079 115.503C92.2079 115.503 91.3645 104.247 82.2327 101.441C73.1008 98.6349 61.1035 100.715 57.7139 111.584C54.3242 122.454 63.7164 137.644 63.7164 137.644L92.2079 115.503Z" fill="url(#paint2_linear)"/>
<path d="M59.1499 151.527C59.1499 151.527 72.3945 162.356 75.0191 162.356C77.6436 162.356 79.5741 151.527 79.5741 151.527L78.1183 142.794L62.6168 134.729L59.1499 151.527Z" fill="url(#paint3_linear)"/>
<mask id="mask1" mask-type="alpha" maskUnits="userSpaceOnUse" x="59" y="134" width="21" height="29">
<path d="M59.1499 151.527C59.1499 151.527 72.3945 162.356 75.0191 162.356C77.6436 162.356 79.5741 151.527 79.5741 151.527L78.1183 142.794L62.6168 134.729L59.1499 151.527Z" fill="white"/>
</mask>
<g mask="url(#mask1)">
<path opacity="0.2" d="M62.2656 135.067C62.2656 135.067 65.0844 152.58 77.093 153.976C89.1017 155.371 88.1752 146.358 88.1752 146.358L62.2656 135.067Z" fill="#50211F"/>
</g>
<path d="M70.9861 114.135C77.9582 116.735 87.7692 118.313 92.2045 115.435C91.3584 137.387 87.8129 148.363 82.1883 148.363C73.7515 148.363 64.5343 144.047 62.4093 134.978C62.3861 134.879 62.3635 134.781 62.3415 134.684C62.1269 134.714 61.9077 134.729 61.6848 134.729C59.1082 134.729 57.0195 132.641 57.0195 130.064C57.0195 127.488 59.1082 125.399 61.6848 125.399C63.3041 125.399 64.7308 126.224 65.5673 127.477C66.0387 127.692 64.0141 111.535 70.9861 114.135Z" fill="url(#paint4_linear)"/>
<mask id="mask2" mask-type="alpha" maskUnits="userSpaceOnUse" x="57" y="113" width="36" height="36">
<path d="M70.9861 114.135C77.9582 116.735 87.7692 118.313 92.2045 115.435C91.3584 137.387 87.8129 148.363 82.1883 148.363C73.7515 148.363 64.5343 144.047 62.4093 134.978C62.3861 134.879 62.3635 134.781 62.3415 134.684C62.1269 134.714 61.9077 134.729 61.6848 134.729C59.1082 134.729 57.0195 132.641 57.0195 130.064C57.0195 127.488 59.1082 125.399 61.6848 125.399C63.3041 125.399 64.7308 126.224 65.5673 127.477C66.0387 127.692 64.0141 111.535 70.9861 114.135Z" fill="white"/>
</mask>
<g mask="url(#mask2)">
<path d="M82.9662 134.243C82.9662 134.243 76.4184 135.11 74.886 138.539C73.3536 141.968 82.9662 135.608 82.9662 135.608C82.9662 135.608 89.7125 140.857 89.7125 137.841C89.7125 134.825 82.9662 134.243 82.9662 134.243Z" fill="url(#paint5_linear)"/>
<path opacity="0.2" d="M92.3583 115.741C92.3583 115.741 83.4508 121.484 76.2706 120.009C69.0904 118.535 70.6433 129.39 64.6729 126.548L67.0962 112.326L92.3583 115.741Z" fill="#50211F"/>
</g>
<path d="M161.785 164.796C164.683 161.357 161.792 155.713 164.978 155.713C165.588 155.713 167.595 157.079 167.91 158.736C168.283 160.702 167.91 163.341 167.91 163.341C167.91 163.341 174.298 163.96 175.809 165.774C177.39 167.672 176.727 175.334 175.809 177.855C174.529 181.373 172.852 181.373 169.251 182.474C167.585 182.983 164.233 185.1 164.233 185.1C164.233 185.1 162.155 185.687 159.607 183.768C157.059 181.849 155.998 175.026 155.998 175.026C155.998 175.026 158.887 168.236 161.785 164.796Z" fill="url(#paint6_linear)"/>
<mask id="mask3" mask-type="alpha" maskUnits="userSpaceOnUse" x="155" y="155" width="22" height="31">
<path d="M161.785 164.796C164.683 161.357 161.792 155.713 164.978 155.713C165.588 155.713 167.595 157.079 167.91 158.736C168.283 160.702 167.91 163.341 167.91 163.341C167.91 163.341 174.298 163.96 175.809 165.774C177.39 167.672 176.727 175.334 175.809 177.855C174.529 181.373 172.852 181.373 169.251 182.474C167.585 182.983 164.233 185.1 164.233 185.1C164.233 185.1 162.155 185.687 159.607 183.768C157.059 181.849 155.998 175.026 155.998 175.026C155.998 175.026 158.887 168.236 161.785 164.796Z" fill="white"/>
</mask>
<g mask="url(#mask3)">
<path opacity="0.2" d="M155.982 173.889C155.982 173.889 159.658 184.177 168.507 182.537L164.231 187.081L155.982 183.673V173.889Z" fill="#50211F"/>
<path opacity="0.2" d="M169.379 164.411C169.379 164.411 164.614 165.022 164.614 170.436C164.614 175.851 164.687 180.677 169.379 181.917C169.379 181.917 161.15 181.249 161.999 171.61C162.847 161.97 169.379 164.411 169.379 164.411Z" fill="#50211F"/>
</g>
<path d="M96.2784 194.665L84.061 251.929L125.086 251.036L138.185 194.665H96.2784Z" fill="url(#paint7_linear)"/>
<path d="M79.4399 238.678C79.4399 238.678 81.3921 230.348 80.7037 225.693C80.7037 225.693 86.9787 220.297 90.5188 220.297L89.588 224.688C89.588 224.688 98.3056 224.34 102.353 220.297C106.4 216.254 104.398 225.297 101.775 226.696C99.1524 228.095 100.297 236.148 94.005 237.413C87.7131 238.678 79.4399 238.678 79.4399 238.678Z" fill="url(#paint8_linear)"/>
<defs>
<linearGradient id="paint0_linear" x1="41.6256" y1="111.423" x2="-30.2133" y2="253.526" gradientUnits="userSpaceOnUse">
<stop stop-color="#FFB782"/>
<stop offset="1" stop-color="#EB4878"/>
</linearGradient>
<linearGradient id="paint1_linear" x1="85.943" y1="272.897" x2="121.171" y2="265.959" gradientUnits="userSpaceOnUse">
<stop stop-color="#321847"/>
<stop offset="1" stop-color="#834A88"/>
</linearGradient>
<linearGradient id="paint2_linear" x1="79.6465" y1="142.011" x2="113.943" y2="114.388" gradientUnits="userSpaceOnUse">
<stop stop-color="#321847"/>
<stop offset="1" stop-color="#834A88"/>
</linearGradient>
<linearGradient id="paint3_linear" x1="69.898" y1="176.2" x2="91.2758" y2="158.676" gradientUnits="userSpaceOnUse">
<stop stop-color="#843E3E"/>
<stop offset="1" stop-color="#7B4838"/>
</linearGradient>
<linearGradient id="paint4_linear" x1="75.5355" y1="165.658" x2="102.567" y2="135.1" gradientUnits="userSpaceOnUse">
<stop stop-color="#843E3E"/>
<stop offset="1" stop-color="#C08775"/>
</linearGradient>
<linearGradient id="paint5_linear" x1="84.3756" y1="140.383" x2="88.1292" y2="131.661" gradientUnits="userSpaceOnUse">
<stop stop-color="#321847"/>
<stop offset="1" stop-color="#834A88"/>
</linearGradient>
<linearGradient id="paint6_linear" x1="166.925" y1="200.033" x2="189.522" y2="182.411" gradientUnits="userSpaceOnUse">
<stop stop-color="#843E3E"/>
<stop offset="1" stop-color="#EF8A69"/>
</linearGradient>
<linearGradient id="paint7_linear" x1="84.061" y1="194.665" x2="84.061" y2="251.929" gradientUnits="userSpaceOnUse">
<stop stop-color="#A3EDED"/>
<stop offset="1" stop-color="#9FCFFF"/>
</linearGradient>
<linearGradient id="paint8_linear" x1="92.709" y1="248.406" x2="107.063" y2="227.733" gradientUnits="userSpaceOnUse">
<stop stop-color="#843E3E"/>
<stop offset="1" stop-color="#EF8A69"/>
</linearGradient>
</defs>
</svg>
