<svg width="325" height="301" viewBox="0 0 325 301" fill="none" xmlns="http://www.w3.org/2000/svg">
<path d="M255.3 162.57C266.788 162.57 276.1 153.258 276.1 141.77C276.1 130.283 266.788 120.97 255.3 120.97C243.812 120.97 234.5 130.283 234.5 141.77C234.5 153.258 243.812 162.57 255.3 162.57Z" fill="url(#paint0_linear)"/>
<path d="M261.006 137.551C261.514 137.043 262.337 137.043 262.845 137.551C263.352 138.059 263.352 138.882 262.845 139.389L255.491 146.743C254.983 147.251 254.16 147.251 253.652 146.743L249.056 142.147C248.548 141.639 248.548 140.816 249.056 140.309C249.564 139.801 250.387 139.801 250.894 140.309L254.571 143.986L261.006 137.551Z" fill="white"/>
<defs>
<linearGradient id="paint0_linear" x1="254.416" y1="116.923" x2="224.686" y2="147.705" gradientUnits="userSpaceOnUse">
<stop stop-color="#ADDC9C"/>
<stop offset="1" stop-color="#3FAFC3"/>
</linearGradient>
</defs>
</svg>
