<svg width="325" height="301" viewBox="0 0 325 301" fill="none" xmlns="http://www.w3.org/2000/svg">
<g filter="url(#filter0_d)">
<path d="M114 130.01H248C252.418 130.01 256 133.591 256 138.01V256.01C256 260.428 252.418 264.01 248 264.01H114C109.582 264.01 106 260.428 106 256.01V138.01C106 133.591 109.582 130.01 114 130.01Z" fill="white"/>
<path opacity="0.1" fill-rule="evenodd" clip-rule="evenodd" d="M124 145.01C124 143.905 124.895 143.01 126 143.01H139.737C140.842 143.01 141.737 143.905 141.737 145.01V205.01C141.737 206.114 140.842 207.01 139.737 207.01H126C124.895 207.01 124 206.114 124 205.01V145.01ZM149 145.01C149 143.905 149.895 143.01 151 143.01H164.737C165.842 143.01 166.737 143.905 166.737 145.01V205.01C166.737 206.114 165.842 207.01 164.737 207.01H151C149.895 207.01 149 206.114 149 205.01V145.01ZM176 143.01C174.895 143.01 174 143.905 174 145.01V205.01C174 206.114 174.895 207.01 176 207.01H189.737C190.842 207.01 191.737 206.114 191.737 205.01V145.01C191.737 143.905 190.842 143.01 189.737 143.01H176ZM199 145.01C199 143.905 199.895 143.01 201 143.01H214.737C215.842 143.01 216.737 143.905 216.737 145.01V205.01C216.737 206.114 215.842 207.01 214.737 207.01H201C199.895 207.01 199 206.114 199 205.01V145.01ZM226 143.01C224.895 143.01 224 143.905 224 145.01V205.01C224 206.114 224.895 207.01 226 207.01H239.737C240.842 207.01 241.737 206.114 241.737 205.01V145.01C241.737 143.905 240.842 143.01 239.737 143.01H226Z" fill="url(#paint0_linear)"/>
<path fill-rule="evenodd" clip-rule="evenodd" d="M226 163.01C224.895 163.01 224 163.905 224 165.01V205.01C224 206.114 224.895 207.01 226 207.01H239.737C240.842 207.01 241.737 206.114 241.737 205.01V165.01C241.737 163.905 240.842 163.01 239.737 163.01H226ZM149 175.01C149 173.905 149.895 173.01 151 173.01H164.737C165.842 173.01 166.737 173.905 166.737 175.01V205.01C166.737 206.114 165.842 207.01 164.737 207.01H151C149.895 207.01 149 206.114 149 205.01V175.01ZM124 185.01C124 183.905 124.895 183.01 126 183.01H139.737C140.842 183.01 141.737 183.905 141.737 185.01V205.01C141.737 206.114 140.842 207.01 139.737 207.01H126C124.895 207.01 124 206.114 124 205.01V185.01ZM176 173.01C174.895 173.01 174 173.905 174 175.01V205.01C174 206.114 174.895 207.01 176 207.01H189.737C190.842 207.01 191.737 206.114 191.737 205.01V175.01C191.737 173.905 190.842 173.01 189.737 173.01H176ZM199 195.01C199 193.905 199.895 193.01 201 193.01H214.737C215.842 193.01 216.737 193.905 216.737 195.01V205.01C216.737 206.114 215.842 207.01 214.737 207.01H201C199.895 207.01 199 206.114 199 205.01V195.01Z" fill="url(#paint1_linear)"/>
<path d="M124 237.51C122.895 237.51 122 236.614 122 235.51C122 234.405 122.895 233.51 124 233.51H141.737C142.842 233.51 143.737 234.405 143.737 235.51C143.737 236.614 142.842 237.51 141.737 237.51H124Z" fill="#6CC9B3"/>
<path d="M124 247.51C122.895 247.51 122 246.614 122 245.51C122 244.405 122.895 243.51 124 243.51H161.737C162.842 243.51 163.737 244.405 163.737 245.51C163.737 246.614 162.842 247.51 161.737 247.51H124Z" fill="#EAE8E9"/>
</g>
<g filter="url(#filter1_d)">
<path d="M114 57.0365H248C252.418 57.0365 256 60.6182 256 65.0365V105.036C256 109.455 252.418 113.036 248 113.036H114C109.582 113.036 106 109.455 106 105.036V65.0365C106 60.6182 109.582 57.0365 114 57.0365Z" fill="white"/>
<rect opacity="0.1" x="231" y="67.0365" width="15" height="35" fill="#7CBEAD"/>
<path d="M190.574 94.6749C190.021 94.6749 189.574 94.2272 189.574 93.6749C189.574 93.1226 190.021 92.6749 190.574 92.6749C191.427 92.6749 192.369 92.2045 193.47 91.2232C194.184 90.5868 194.943 89.7582 195.868 88.6303C196.237 88.1802 196.618 87.7017 197.135 87.0411C197.289 86.8448 197.459 86.6271 197.787 86.2069C198.056 85.8625 198.255 85.6088 198.452 85.3586C202.88 79.7475 205.896 77.2813 209.975 77.2813C213.775 77.2813 216.018 78.4831 219.901 81.7694C220.034 81.8821 220.034 81.8821 220.167 81.9945C223.915 85.1682 225.917 86.2341 229.427 86.2341C232.899 86.2341 234.992 84.6834 237.547 81.0558C237.759 80.7545 238.72 79.3536 238.983 78.9822C240.918 76.2587 242.436 75.0292 244.704 75.0292C245.256 75.0292 245.704 75.4769 245.704 76.0292C245.704 76.5815 245.256 77.0292 244.704 77.0292C243.282 77.0292 242.203 77.9027 240.614 80.1403C240.362 80.4949 239.404 81.8913 239.182 82.2074C236.291 86.3128 233.697 88.2341 229.427 88.2341C225.319 88.2341 222.955 86.9754 218.874 83.5209C218.741 83.4082 218.741 83.4082 218.609 83.2961C215.058 80.2912 213.174 79.2813 209.975 79.2813C206.741 79.2813 204.076 81.4603 200.022 86.5976C199.827 86.8447 199.63 87.0959 199.363 87.4379C199.036 87.8574 198.865 88.0764 198.71 88.274C198.184 88.9454 197.795 89.4345 197.415 89.8985C196.43 91.0998 195.606 91.9982 194.801 92.7161C193.368 93.9935 192.003 94.6749 190.574 94.6749Z" fill="url(#paint2_linear)"/>
<path d="M123.784 81.5365C122.679 81.5365 121.784 80.6411 121.784 79.5365C121.784 78.4319 122.679 77.5365 123.784 77.5365H141.521C142.626 77.5365 143.521 78.4319 143.521 79.5365C143.521 80.6411 142.626 81.5365 141.521 81.5365H123.784Z" fill="#6CC9B3"/>
<path d="M123.784 91.5365C122.679 91.5365 121.784 90.6411 121.784 89.5365C121.784 88.4319 122.679 87.5365 123.784 87.5365H161.521C162.626 87.5365 163.521 88.4319 163.521 89.5365C163.521 90.6411 162.626 91.5365 161.521 91.5365H123.784Z" fill="#4EB7BE" fill-opacity="0.46"/>
</g>
<defs>
<filter id="filter0_d" x="70" y="106.01" width="222" height="206" filterUnits="userSpaceOnUse" color-interpolation-filters="sRGB">
<feFlood flood-opacity="0" result="BackgroundImageFix"/>
<feColorMatrix in="SourceAlpha" type="matrix" values="0 0 0 0 0 0 0 0 0 0 0 0 0 0 0 0 0 0 127 0"/>
<feOffset dy="12"/>
<feGaussianBlur stdDeviation="18"/>
<feColorMatrix type="matrix" values="0 0 0 0 0.278431 0 0 0 0 0.705882 0 0 0 0 0.752941 0 0 0 0.23 0"/>
<feBlend mode="normal" in2="BackgroundImageFix" result="effect1_dropShadow"/>
<feBlend mode="normal" in="SourceGraphic" in2="effect1_dropShadow" result="shape"/>
</filter>
<filter id="filter1_d" x="62" y="35.0365" width="238" height="144" filterUnits="userSpaceOnUse" color-interpolation-filters="sRGB">
<feFlood flood-opacity="0" result="BackgroundImageFix"/>
<feColorMatrix in="SourceAlpha" type="matrix" values="0 0 0 0 0 0 0 0 0 0 0 0 0 0 0 0 0 0 127 0"/>
<feOffset dy="22"/>
<feGaussianBlur stdDeviation="22"/>
<feColorMatrix type="matrix" values="0 0 0 0 0.376471 0 0 0 0 0.760784 0 0 0 0 0.717647 0 0 0 0.3 0"/>
<feBlend mode="normal" in2="BackgroundImageFix" result="effect1_dropShadow"/>
<feBlend mode="normal" in="SourceGraphic" in2="effect1_dropShadow" result="shape"/>
</filter>
<linearGradient id="paint0_linear" x1="181.411" y1="115.474" x2="142.694" y2="205.477" gradientUnits="userSpaceOnUse">
<stop stop-color="#B7CB97"/>
<stop offset="1" stop-color="#40B0C3"/>
</linearGradient>
<linearGradient id="paint1_linear" x1="189.034" y1="240.414" x2="212.791" y2="158.117" gradientUnits="userSpaceOnUse">
<stop stop-color="#B7CA97"/>
<stop offset="1" stop-color="#44B2C1"/>
</linearGradient>
<linearGradient id="paint2_linear" x1="201.824" y1="66.3649" x2="194.723" y2="104.466" gradientUnits="userSpaceOnUse">
<stop stop-color="#A8E39D"/>
<stop offset="1" stop-color="#40B0C3"/>
</linearGradient>
</defs>
</svg>
